<?xml version="1.0" encoding="UTF-8" standalone="no"?>
<!-- Created with Inkscape (http://www.inkscape.org/) -->

<svg
   xmlns:ns1="http://www.iki.fi/pav/software/textext/"
   xmlns:dc="http://purl.org/dc/elements/1.1/"
   xmlns:cc="http://creativecommons.org/ns#"
   xmlns:rdf="http://www.w3.org/1999/02/22-rdf-syntax-ns#"
   xmlns:svg="http://www.w3.org/2000/svg"
   xmlns="http://www.w3.org/2000/svg"
   xmlns:sodipodi="http://sodipodi.sourceforge.net/DTD/sodipodi-0.dtd"
   xmlns:inkscape="http://www.inkscape.org/namespaces/inkscape"
   width="124.69255mm"
   height="61.456017mm"
   viewBox="0 0 124.69255 61.456016"
   version="1.1"
   id="svg5543"
   inkscape:version="0.92.4 (5da689c313, 2019-01-14)"
   sodipodi:docname="medida-polarizacion-2.svg">
  <defs
     id="defs5537">
    <marker
       inkscape:stockid="Arrow2Mend"
       orient="auto"
       refY="0"
       refX="0"
       id="Arrow2Mend"
       style="overflow:visible"
       inkscape:isstock="true">
      <path
         id="path908"
         style="fill:#000000;fill-opacity:1;fill-rule:evenodd;stroke:#000000;stroke-width:0.625;stroke-linejoin:round;stroke-opacity:1"
         d="M 8.7185878,4.0337352 -2.2072895,0.01601326 8.7185884,-4.0017078 c -1.7454984,2.3720609 -1.7354408,5.6174519 -6e-7,8.035443 z"
         transform="scale(-0.6)"
         inkscape:connector-curvature="0" />
    </marker>
  </defs>
  <sodipodi:namedview
     id="base"
     pagecolor="#ffffff"
     bordercolor="#666666"
     borderopacity="1.0"
     inkscape:pageopacity="0.0"
     inkscape:pageshadow="2"
     inkscape:zoom="1.0955144"
     inkscape:cx="220.02135"
     inkscape:cy="124.29632"
     inkscape:document-units="mm"
     inkscape:current-layer="layer1"
     showgrid="true"
     fit-margin-top="0"
     fit-margin-left="0"
     fit-margin-right="0"
     fit-margin-bottom="0"
     inkscape:window-width="1920"
     inkscape:window-height="1001"
     inkscape:window-x="1911"
     inkscape:window-y="-9"
     inkscape:window-maximized="1" />
  <metadata
     id="metadata5540">
    <rdf:RDF>
      <cc:Work
         rdf:about="">
        <dc:format>image/svg+xml</dc:format>
        <dc:type
           rdf:resource="http://purl.org/dc/dcmitype/StillImage" />
        <dc:title></dc:title>
      </cc:Work>
    </rdf:RDF>
  </metadata>
  <g
     inkscape:label="Capa 1"
     inkscape:groupmode="layer"
     id="layer1"
     transform="translate(-7.5539227,-7.9896208)">
    <rect
       style="fill:#ffffff;stroke:#000000;stroke-width:0.5;stroke-miterlimit:4;stroke-dasharray:none;stroke-dashoffset:0"
       id="rect13424"
       width="14.007879"
       height="14.007879"
       x="70.166725"
       y="13.084336" />
    <path
       style="fill:none;stroke:#000000;stroke-width:0.26199999;stroke-linecap:butt;stroke-linejoin:miter;stroke-miterlimit:4;stroke-dasharray:0.262, 0.262;stroke-dashoffset:0;stroke-opacity:1"
       d="M 39.773985,20.02007 H 100.34294"
       id="path13420"
       inkscape:connector-curvature="0" />
    <rect
       style="fill:none;stroke:#000000;stroke-width:0.5;stroke-miterlimit:4;stroke-dasharray:none;stroke-dashoffset:0"
       id="rect6088"
       width="27.914827"
       height="9.3509703"
       x="7.8039227"
       y="15.128197" />
    <text
       xml:space="preserve"
       style="font-style:normal;font-weight:normal;font-size:10.58333302px;line-height:1.25;font-family:sans-serif;letter-spacing:0px;word-spacing:0px;fill:#000000;fill-opacity:1;stroke:none;stroke-width:0.26458332"
       x="10.936134"
       y="21.353012"
       id="text3603-3"><tspan
         sodipodi:role="line"
         id="tspan3601-7"
         x="10.936134"
         y="21.353012"
         style="font-size:4.93888903px;stroke-width:0.26458332">Lámpara</tspan></text>
    <rect
       style="fill:none;stroke:#000000;stroke-width:0.5;stroke-miterlimit:4;stroke-dasharray:none;stroke-dashoffset:0"
       id="rect6757"
       width="2.6458333"
       height="6.614584"
       x="35.71875"
       y="16.541666" />
    <text
       id="text10482"
       y="11.08814"
       x="69.971466"
       style="font-style:normal;font-weight:normal;font-size:10.58333302px;line-height:1.25;font-family:sans-serif;letter-spacing:0px;word-spacing:0px;fill:#000000;fill-opacity:1;stroke:none;stroke-width:0.26458332"
       xml:space="preserve"><tspan
         style="font-size:4.23333311px;stroke-width:0.26458332"
         y="11.08814"
         x="69.971466"
         id="tspan10480"
         sodipodi:role="line">Prisma</tspan></text>
    <path
       sodipodi:nodetypes="cscsc"
       inkscape:connector-curvature="0"
       id="path3617"
       d="m 47.50796,20.020071 c 0,0 0.431889,-3.392094 1.696048,-3.392094 1.264161,-1e-6 1.696046,3.392094 1.696046,3.392094 0,0 0.43189,3.392093 1.696049,3.392093 1.264157,0 1.696046,-3.392094 1.696046,-3.392094"
       style="fill:none;stroke:#000000;stroke-width:0.5;stroke-linecap:butt;stroke-linejoin:miter;stroke-miterlimit:4;stroke-dasharray:none;stroke-opacity:1" />
    <path
       style="fill:none;stroke:#000000;stroke-width:0.5;stroke-linecap:butt;stroke-linejoin:miter;stroke-miterlimit:4;stroke-dasharray:none;stroke-opacity:1"
       d="m 54.292149,20.02007 c 0,0 0.431888,-3.392093 1.696048,-3.392095 1.264158,0 1.696046,3.392094 1.696046,3.392094 0,0 0.431889,3.392095 1.696047,3.392095 1.26416,0 1.696047,-3.392093 1.696047,-3.392093"
       id="path3619"
       inkscape:connector-curvature="0"
       sodipodi:nodetypes="cscsc" />
    <path
       style="fill:none;stroke:#000000;stroke-width:0.5;stroke-linecap:butt;stroke-linejoin:miter;stroke-miterlimit:4;stroke-dasharray:none;stroke-opacity:1;marker-end:url(#Arrow2Mend)"
       d="m 60.806259,20.020076 6.784185,-1e-6"
       id="path3625"
       inkscape:connector-curvature="0" />
    <path
       style="fill:none;stroke:#000000;stroke-width:0.5;stroke-linecap:butt;stroke-linejoin:miter;stroke-miterlimit:4;stroke-dasharray:none;stroke-opacity:1"
       d="m 42.41982,20.02007 5.08814,1e-6"
       id="path3627"
       inkscape:connector-curvature="0" />
    <text
       xml:space="preserve"
       style="font-style:normal;font-weight:normal;font-size:10.58333302px;line-height:1.25;font-family:sans-serif;letter-spacing:0px;word-spacing:0px;fill:#000000;fill-opacity:1;stroke:none;stroke-width:0.26458332"
       x="48.304268"
       y="13.929882"
       id="text3603-3-5"><tspan
         sodipodi:role="line"
         id="tspan3601-7-0"
         x="48.304268"
         y="13.929882"
         style="font-size:4.93888903px;stroke-width:0.26458332">fotón</tspan></text>
    <rect
       y="15.128197"
       x="104.08165"
       height="9.3509703"
       width="27.914827"
       id="rect13410"
       style="fill:none;stroke:#000000;stroke-width:0.5;stroke-miterlimit:4;stroke-dasharray:none;stroke-dashoffset:0" />
    <text
       id="text13414"
       y="21.353012"
       x="107.21386"
       style="font-style:normal;font-weight:normal;font-size:10.58333302px;line-height:1.25;font-family:sans-serif;letter-spacing:0px;word-spacing:0px;fill:#000000;fill-opacity:1;stroke:none;stroke-width:0.26458332"
       xml:space="preserve"><tspan
         style="font-size:4.93888903px;stroke-width:0.26458332"
         y="21.353012"
         x="107.21386"
         id="tspan13412"
         sodipodi:role="line">Detector</tspan></text>
    <rect
       y="16.541666"
       x="101.36171"
       height="6.614584"
       width="2.6458333"
       id="rect13416"
       style="fill:none;stroke:#000000;stroke-width:0.5;stroke-miterlimit:4;stroke-dasharray:none;stroke-dashoffset:0" />
    <path
       inkscape:connector-curvature="0"
       id="path13426"
       d="M 76.971834,20.075935 V 38.560873"
       style="fill:none;stroke:#000000;stroke-width:0.26199999;stroke-linecap:butt;stroke-linejoin:miter;stroke-miterlimit:4;stroke-dasharray:0.262, 0.262;stroke-dashoffset:0;stroke-opacity:1"
       sodipodi:nodetypes="cc" />
    <g
       id="g13457"
       ns1:jacobian_sqrt="0.505601"
       inkscapeversion="0.92.4"
       ns1:alignment="middle center"
       ns1:scale="1.43320087135"
       ns1:preamble="C:\\Users\\Gonzalo\\AppData\\Roaming\\inkscape\\extensions\\textext\\default_packages.tex"
       ns1:text="$\\updownarrow$"
       ns1:pdfconverter="pdf2svg"
       ns1:texconverter="pdflatex"
       ns1:version="0.10.2"
       transform="matrix(0.505601,0,0,0.505601,15.495331,-51.086201)">
      <g
         id="surface1">
        <g
           id="g13454"
           style="fill:#000000;fill-opacity:1">
          <path
             id="path13452"
             transform="translate(148.712,134.765)"
             d="m 2.6875,-6.3125 c 0.25,0.375 0.515625,0.65625 0.765625,0.84375 C 4.0625,-5 4.6875,-4.90625 4.6875,-4.90625 c 0.125,0 0.125,-0.109375 0.125,-0.1875 0,-0.15625 0,-0.171875 -0.234375,-0.234375 C 4.078125,-5.46875 3.640625,-5.75 3.28125,-6.125 2.765625,-6.703125 2.65625,-7.265625 2.609375,-7.59375 2.59375,-7.640625 2.546875,-7.6875 2.5,-7.6875 c -0.09375,0 -0.109375,0.0625 -0.125,0.1875 -0.1875,0.859375 -0.609375,1.296875 -0.703125,1.40625 -0.5625,0.5625 -1.03125,0.703125 -1.40625,0.796875 -0.09375,0.03125 -0.09375,0.109375 -0.09375,0.203125 0,0.078125 0,0.1875 0.125,0.1875 0.015625,0 0.609375,-0.109375 1.171875,-0.515625 0.328125,-0.25 0.609375,-0.546875 0.828125,-0.890625 v 7.640625 c -0.25,-0.375 -0.515625,-0.65625 -0.765625,-0.84375 -0.609375,-0.46875 -1.234375,-0.5625 -1.234375,-0.5625 -0.125,0 -0.125,0.109375 -0.125,0.1875 0,0.15625 0,0.171875 0.234375,0.234375 0.5,0.140625 0.921875,0.40625 1.28125,0.796875 0.515625,0.546875 0.640625,1.15625 0.6875,1.46875 0.015625,0.046875 0.046875,0.09375 0.125,0.09375 0.078125,0 0.09375,-0.078125 0.109375,-0.15625 0.21875,-1.125 0.953125,-1.90625 2.03125,-2.21875 C 4.796875,0.28125 4.8125,0.28125 4.8125,0.109375 c 0,-0.078125 0,-0.1875 -0.125,-0.1875 -0.015625,0 -0.609375,0.109375 -1.171875,0.515625 C 3.1875,0.6875 2.90625,0.984375 2.6875,1.328125 Z m 0,0"
             style="stroke:none;stroke-width:0"
             inkscape:connector-curvature="0" />
        </g>
      </g>
    </g>
    <g
       id="g13507"
       ns1:jacobian_sqrt="0.505601"
       inkscapeversion="0.92.4"
       ns1:alignment="middle center"
       ns1:scale="1.43320087135"
       ns1:preamble="C:\\Users\\Gonzalo\\AppData\\Roaming\\inkscape\\extensions\\textext\\default_packages.tex"
       ns1:text="$\\leftrightarrow$"
       ns1:pdfconverter="pdf2svg"
       ns1:texconverter="pdflatex"
       ns1:version="0.10.2"
       transform="matrix(0.505601,0,0,0.505601,3.1859608,-34.254761)">
      <g
         id="g13505">
        <g
           id="g13503"
           style="fill:#000000;fill-opacity:1">
          <path
             id="path13501"
             transform="translate(148.712,134.765)"
             d="m 1.640625,-2.6875 c 0.546875,-0.421875 0.828125,-0.828125 0.90625,-0.96875 0.4375,-0.6875 0.53125,-1.3125 0.53125,-1.3125 0,-0.125 -0.125,-0.125 -0.203125,-0.125 -0.171875,0 -0.1875,0.015625 -0.21875,0.203125 C 2.421875,-3.921875 1.828125,-3.09375 0.703125,-2.625 0.59375,-2.578125 0.5625,-2.5625 0.5625,-2.5 c 0,0.078125 0.046875,0.09375 0.140625,0.140625 1.046875,0.421875 1.703125,1.203125 1.953125,2.3125 0.03125,0.125 0.046875,0.15625 0.21875,0.15625 0.078125,0 0.203125,0 0.203125,-0.125 0,-0.015625 -0.09375,-0.640625 -0.515625,-1.3125 C 2.359375,-1.625 2.078125,-1.96875 1.640625,-2.296875 H 8.3125 C 7.765625,-1.875 7.5,-1.46875 7.421875,-1.328125 c -0.453125,0.6875 -0.53125,1.3125 -0.53125,1.3125 0,0.125 0.125,0.125 0.203125,0.125 C 7.25,0.109375 7.265625,0.09375 7.3125,-0.09375 7.53125,-1.0625 8.125,-1.90625 9.25,-2.359375 9.375,-2.40625 9.40625,-2.421875 9.40625,-2.5 c 0,-0.0625 -0.0625,-0.09375 -0.078125,-0.109375 C 8.875,-2.765625 7.671875,-3.265625 7.296875,-4.9375 7.265625,-5.0625 7.25,-5.09375 7.09375,-5.09375 c -0.078125,0 -0.203125,0 -0.203125,0.125 0,0.015625 0.09375,0.640625 0.5,1.3125 0.203125,0.296875 0.5,0.640625 0.921875,0.96875 z m 0,0"
             style="stroke:none;stroke-width:0"
             inkscape:connector-curvature="0" />
        </g>
      </g>
    </g>
    <path
       style="fill:none;stroke:#000000;stroke-width:0.26458332px;stroke-linecap:butt;stroke-linejoin:miter;stroke-opacity:1"
       d="m 70.166724,13.084336 14.007883,14.00788"
       id="path13515"
       inkscape:connector-curvature="0" />
    <rect
       style="fill:none;stroke:#000000;stroke-width:0.5;stroke-miterlimit:4;stroke-dasharray:none;stroke-dashoffset:0"
       id="rect13517"
       width="27.914827"
       height="9.3509703"
       x="41.280811"
       y="-81.618675"
       transform="rotate(90)" />
    <text
       xml:space="preserve"
       style="font-style:normal;font-weight:normal;font-size:10.58333302px;line-height:1.25;font-family:sans-serif;letter-spacing:0px;word-spacing:0px;fill:#000000;fill-opacity:1;stroke:none;stroke-width:0.26458332"
       x="44.413025"
       y="-75.39386"
       id="text13521"
       transform="rotate(90)"><tspan
         sodipodi:role="line"
         id="tspan13519"
         x="44.413025"
         y="-75.39386"
         style="font-size:4.93888903px;stroke-width:0.26458332">Detector</tspan></text>
    <rect
       style="fill:none;stroke:#000000;stroke-width:0.5;stroke-miterlimit:4;stroke-dasharray:none;stroke-dashoffset:0"
       id="rect13523"
       width="2.6458333"
       height="6.614584"
       x="38.560871"
       y="-80.205208"
       transform="rotate(90)" />
  </g>
</svg>
