<?xml version="1.0" encoding="UTF-8" standalone="no"?>
<!-- Created with Inkscape (http://www.inkscape.org/) -->

<svg
   inkscape:output_extension="org.inkscape.output.svg.inkscape"
   sodipodi:docname="canal-cuantico-ideal.svg"
   inkscape:version="1.2.1 (9c6d41e410, 2022-07-14)"
   sodipodi:version="0.32"
   id="svg2"
   height="26.787872"
   width="154.15448"
   version="1.0"
   viewBox="0 0 170.154 29.568155"
   xmlns:inkscape="http://www.inkscape.org/namespaces/inkscape"
   xmlns:sodipodi="http://sodipodi.sourceforge.net/DTD/sodipodi-0.dtd"
   xmlns="http://www.w3.org/2000/svg"
   xmlns:svg="http://www.w3.org/2000/svg"
   xmlns:rdf="http://www.w3.org/1999/02/22-rdf-syntax-ns#"
   xmlns:cc="http://creativecommons.org/ns#"
   xmlns:dc="http://purl.org/dc/elements/1.1/"
   xmlns:ns0="http://www.iki.fi/pav/software/textext/">
  <sodipodi:namedview
     inkscape:window-height="2054"
     inkscape:window-width="3840"
     inkscape:pageshadow="2"
     inkscape:pageopacity="0.0"
     guidetolerance="1"
     gridtolerance="1"
     objecttolerance="1"
     borderopacity="1.0"
     bordercolor="#666666"
     pagecolor="#ffffff"
     id="base"
     showgrid="true"
     inkscape:zoom="6.4120371"
     inkscape:cx="161.96101"
     inkscape:cy="56.612273"
     inkscape:window-x="2869"
     inkscape:window-y="-11"
     inkscape:current-layer="svg2"
     inkscape:window-maximized="1"
     fit-margin-top="0"
     fit-margin-left="0"
     fit-margin-right="0"
     fit-margin-bottom="0"
     showguides="true"
     inkscape:guide-bbox="true"
     inkscape:showpageshadow="2"
     inkscape:pagecheckerboard="0"
     inkscape:deskcolor="#d1d1d1">
    <inkscape:grid
       spacingy="1"
       spacingx="1"
       originy="-12.605624"
       originx="-159.5919"
       snapvisiblegridlinesonly="true"
       empspacing="5"
       type="xygrid"
       id="grid2499"
       visible="true"
       enabled="true" />
    <sodipodi:guide
       inkscape:locked="false"
       id="guide3094"
       position="-33.591898,-4.8148628"
       orientation="0,1" />
    <sodipodi:guide
       inkscape:locked="false"
       id="guide3096"
       position="-32.146368,25.353975"
       orientation="0,1" />
    <sodipodi:guide
       position="2.4081005,16.393496"
       orientation="0,-1"
       id="guide607"
       inkscape:locked="false" />
  </sodipodi:namedview>
  <metadata
     id="metadata2435">
    <rdf:RDF>
      <cc:Work
         rdf:about="">
        <dc:format>image/svg+xml</dc:format>
        <dc:type
           rdf:resource="http://purl.org/dc/dcmitype/StillImage" />
      </cc:Work>
    </rdf:RDF>
  </metadata>
  <defs
     id="defs4">
    <inkscape:perspective
       id="perspective2437"
       inkscape:persp3d-origin="154.82443 : 9.1252186 : 1"
       inkscape:vp_z="309.64871 : 20.347069 : 1"
       inkscape:vp_y="0 : 1103.7889 : 0"
       inkscape:vp_x="0 : 20.347069 : 1"
       sodipodi:type="inkscape:persp3d" />
    <marker
       style="overflow:visible"
       id="TriangleOutM"
       orient="auto"
       refY="0"
       refX="0">
      <path
         style="fill-rule:evenodd;stroke:#000000;stroke-width:1pt;marker-start:none"
         id="path3312"
         transform="scale(0.4)"
         d="M 5.77,0 -2.88,5 V -5 Z"
         inkscape:connector-curvature="0" />
    </marker>
    <marker
       style="overflow:visible"
       id="EmptyTriangleOutM"
       orient="auto"
       refY="0"
       refX="0">
      <path
         style="fill:#ffffff;fill-rule:evenodd;stroke:#000000;stroke-width:1pt;marker-start:none"
         id="path3330"
         transform="matrix(0.4,0,0,0.4,-1.8,0)"
         d="M 5.77,0 -2.88,5 V -5 Z"
         inkscape:connector-curvature="0" />
    </marker>
    <marker
       style="overflow:visible"
       id="TriangleOutL"
       orient="auto"
       refY="0"
       refX="0">
      <path
         style="fill-rule:evenodd;stroke:#000000;stroke-width:1pt;marker-start:none"
         id="path3309"
         transform="scale(0.8)"
         d="M 5.77,0 -2.88,5 V -5 Z"
         inkscape:connector-curvature="0" />
    </marker>
    <marker
       style="overflow:visible"
       id="Arrow1Mend"
       orient="auto"
       refY="0"
       refX="0">
      <path
         style="fill-rule:evenodd;stroke:#000000;stroke-width:1pt;marker-start:none"
         id="path3175"
         transform="matrix(-0.4,0,0,-0.4,-4,0)"
         d="M 0,0 5,-5 -12.5,0 5,5 Z"
         inkscape:connector-curvature="0" />
    </marker>
    <marker
       style="overflow:visible"
       id="TriangleOutM-4"
       orient="auto"
       refY="0"
       refX="0">
      <path
         style="fill-rule:evenodd;stroke:#000000;stroke-width:1pt;marker-start:none"
         id="path3312-5"
         transform="scale(0.4)"
         d="M 5.77,0 -2.88,5 V -5 Z"
         inkscape:connector-curvature="0" />
    </marker>
    <marker
       style="overflow:visible"
       id="marker5458"
       orient="auto"
       refY="0"
       refX="0">
      <path
         style="fill-rule:evenodd;stroke:#000000;stroke-width:1pt;marker-start:none"
         id="path5460"
         transform="scale(0.4)"
         d="M 5.77,0 -2.88,5 V -5 Z"
         inkscape:connector-curvature="0" />
    </marker>
    <marker
       style="overflow:visible"
       id="marker5462"
       orient="auto"
       refY="0"
       refX="0">
      <path
         style="fill-rule:evenodd;stroke:#000000;stroke-width:1pt;marker-start:none"
         id="path5464"
         transform="scale(0.4)"
         d="M 5.77,0 -2.88,5 V -5 Z"
         inkscape:connector-curvature="0" />
    </marker>
    <marker
       style="overflow:visible"
       id="marker5466"
       orient="auto"
       refY="0"
       refX="0">
      <path
         style="fill-rule:evenodd;stroke:#000000;stroke-width:1pt;marker-start:none"
         id="path5468"
         transform="scale(0.4)"
         d="M 5.77,0 -2.88,5 V -5 Z"
         inkscape:connector-curvature="0" />
    </marker>
    <marker
       style="overflow:visible"
       id="TriangleOutM-7"
       orient="auto"
       refY="0"
       refX="0">
      <path
         style="fill-rule:evenodd;stroke:#000000;stroke-width:1pt;marker-start:none"
         id="path3312-6"
         transform="scale(0.4)"
         d="M 5.77,0 -2.88,5 V -5 Z"
         inkscape:connector-curvature="0" />
    </marker>
    <marker
       style="overflow:visible"
       id="marker5621"
       orient="auto"
       refY="0"
       refX="0">
      <path
         style="fill-rule:evenodd;stroke:#000000;stroke-width:1pt;marker-start:none"
         id="path5623"
         transform="scale(0.4)"
         d="M 5.77,0 -2.88,5 V -5 Z"
         inkscape:connector-curvature="0" />
    </marker>
    <marker
       style="overflow:visible"
       id="TriangleOutM-5"
       orient="auto"
       refY="0"
       refX="0">
      <path
         style="fill-rule:evenodd;stroke:#000000;stroke-width:1pt;marker-start:none"
         id="path3312-4"
         transform="scale(0.4)"
         d="M 5.77,0 -2.88,5 V -5 Z"
         inkscape:connector-curvature="0" />
    </marker>
    <marker
       style="overflow:visible"
       id="TriangleOutM-1"
       orient="auto"
       refY="0"
       refX="0">
      <path
         style="fill-rule:evenodd;stroke:#000000;stroke-width:1pt;marker-start:none"
         id="path3312-7"
         transform="scale(0.4)"
         d="M 5.77,0 -2.88,5 V -5 Z"
         inkscape:connector-curvature="0" />
    </marker>
  </defs>
  <g
     style="font-style:normal;font-variant:normal;font-weight:normal;font-stretch:normal;letter-spacing:normal;word-spacing:normal;text-anchor:start;fill:none;stroke:#000000;stroke-linecap:butt;stroke-linejoin:miter;stroke-miterlimit:10.433;stroke-dasharray:none;stroke-dashoffset:0;stroke-opacity:1"
     id="g4030"
     transform="matrix(1,0,0,-1,-280.04519,699.85395)"
     xml:space="preserve"
     stroke-miterlimit="10.433"
     font-style="normal"
     font-variant="normal"
     font-weight="normal"
     font-stretch="normal"
     font-size-adjust="none"
     letter-spacing="normal"
     word-spacing="normal"
     ns0:text="$\\boldmath{v}\\in\\mathcal{A}_0^k$"
     ns0:preamble="" />
  <rect
     width="57.507675"
     height="26.02511"
     ry="2.7537494"
     x="34.535275"
     y="1.9003862"
     id="rect5562-4"
     style="fill:none;stroke:#000000;stroke-width:0.762763;stroke-miterlimit:4;stroke-dasharray:none;stroke-dashoffset:0;stroke-opacity:1" />
  <text
     x="56.939289"
     y="18.762012"
     xml:space="preserve"
     style="font-style:normal;font-variant:normal;font-weight:normal;font-stretch:normal;line-height:0%;font-family:'Times New Roman';-inkscape-font-specification:'Times New Roman,';text-align:center;writing-mode:lr-tb;text-anchor:middle;fill:#000000;fill-opacity:1;stroke:none"
     id="text3956-0"><tspan
       sodipodi:role="line"
       id="tspan3963-4"
       x="56.939289"
       y="18.762012"
       style="font-style:normal;font-variant:normal;font-weight:normal;font-stretch:normal;font-size:10px;line-height:1.25;font-family:sans-serif;-inkscape-font-specification:sans-serif">Canal</tspan></text>
  <path
     inkscape:connector-curvature="0"
     style="fill:none;stroke:#000000;stroke-width:0.726951;stroke-linecap:butt;stroke-linejoin:miter;stroke-miterlimit:4;stroke-dasharray:none;stroke-opacity:1;marker-end:url(#TriangleOutM)"
     id="path4673-1"
     d="M 91.793765,14.91338 H 108.26791"
     sodipodi:nodetypes="cc" />
  <path
     sodipodi:nodetypes="cc"
     d="M 14.940774,14.91338 H 32.030835"
     id="path3126"
     style="fill:none;stroke:#000000;stroke-width:0.726951;stroke-linecap:butt;stroke-linejoin:miter;stroke-miterlimit:4;stroke-dasharray:none;stroke-opacity:1;marker-end:url(#TriangleOutM)"
     inkscape:connector-curvature="0" />
  <g
     id="content"
     transform="matrix(1,0,0,-1,-147.93246,725.73094)"
     xml:space="preserve"
     stroke-miterlimit="10.433"
     font-style="normal"
     font-variant="normal"
     font-weight="normal"
     font-stretch="normal"
     font-size-adjust="none"
     letter-spacing="normal"
     word-spacing="normal"
     ns0:text="$U$"
     ns0:preamble=""
     style="font-style:normal;font-variant:normal;font-weight:normal;font-stretch:normal;letter-spacing:normal;word-spacing:normal;text-anchor:start;fill:none;stroke:#000000;stroke-linecap:butt;stroke-linejoin:miter;stroke-miterlimit:10.433;stroke-dasharray:none;stroke-dashoffset:0;stroke-opacity:1">
<path
   style="fill:#000000;stroke-width:0"
   inkscape:connector-curvature="0"
   d="m 229.75,712.87 0.02,0.07 0.01,0.04 0.01,0.03 0.01,0.04 0.02,0.03 0.01,0.04 0.02,0.03 0.01,0.03 0.02,0.03 0.02,0.03 0.02,0.03 0.03,0.03 0.02,0.03 0.03,0.02 0.03,0.03 0.03,0.02 0.03,0.02 0.03,0.02 0.04,0.02 0.04,0.02 0.04,0.02 0.05,0.02 0.04,0.01 0.05,0.02 0.06,0.01 0.05,0.01 0.06,0.01 0.07,0.01 h 0.06 l 0.07,0.01 h 0.04 0.03 c 0.05,0 0.17,0.01 0.17,0.2 0,0.01 0,0.11 -0.13,0.11 -0.32,0 -0.67,-0.03 -1.01,-0.03 -0.34,0 -0.71,0.03 -1.03,0.03 -0.06,0 -0.19,0 -0.19,-0.2 0,-0.11 0.11,-0.11 0.19,-0.11 0.56,-0.01 0.67,-0.22 0.67,-0.44 0,-0.02 -0.02,-0.17 -0.03,-0.2 l -0.89,-3.55 c -0.34,-1.33 -1.49,-2.2 -2.48,-2.2 -0.68,0 -1.21,0.44 -1.21,1.3 0,0.02 0,0.33 0.1,0.77 l 0.97,3.87 c 0.09,0.35 0.11,0.45 0.84,0.45 0.25,0 0.33,0 0.33,0.2 0,0.11 -0.11,0.11 -0.14,0.11 -0.27,0 -0.99,-0.03 -1.27,-0.03 -0.29,0 -1,0.03 -1.28,0.03 -0.08,0 -0.19,0 -0.19,-0.2 0,-0.11 0.09,-0.11 0.28,-0.11 0.02,0 0.21,0 0.38,-0.02 0.17,-0.02 0.26,-0.03 0.26,-0.16 0,-0.06 -0.11,-0.47 -0.17,-0.7 l -0.22,-0.88 c -0.08,-0.38 -0.56,-2.26 -0.6,-2.45 -0.07,-0.28 -0.07,-0.43 -0.07,-0.58 0,-1.21 0.9,-1.9 1.95,-1.9 1.25,0 2.49,1.12 2.81,2.43 z"
   id="path3097" />
</g>
  <g
     style="font-style:normal;font-variant:normal;font-weight:normal;font-stretch:normal;letter-spacing:normal;word-spacing:normal;text-anchor:start;fill:none;stroke:#000000;stroke-linecap:butt;stroke-linejoin:miter;stroke-miterlimit:10.433;stroke-dasharray:none;stroke-dashoffset:0;stroke-opacity:1"
     ns0:preamble=""
     ns0:text="$\\rho$"
     word-spacing="normal"
     letter-spacing="normal"
     font-size-adjust="none"
     font-stretch="normal"
     font-weight="normal"
     font-variant="normal"
     font-style="normal"
     stroke-miterlimit="10.433"
     xml:space="preserve"
     transform="matrix(1,0,0,-1,-217.10726,724.0383)"
     id="g3215">
<path
   style="fill:#000000;stroke-width:0"
   inkscape:connector-curvature="0"
   id="path3217"
   d="m 223.76,705.41 v -0.01 0 -0.01 l -0.01,-0.01 v 0 0 -0.01 0 -0.01 0 -0.01 0 -0.01 h -0.01 v -0.01 0 -0.01 -0.01 0 -0.01 0 l -0.01,-0.01 v 0 0 -0.01 0 -0.01 0 0 0 -0.01 0 0 -0.01 0 0 c 0,-0.15 0.11,-0.27 0.28,-0.27 0.21,0 0.33,0.18 0.35,0.21 0.05,0.09 0.37,1.42 0.63,2.49 0.2,-0.4 0.52,-0.66 0.99,-0.66 l -0.01,0.21 c -0.7,0 -0.86,0.8 -0.86,0.89 0,0.04 0.05,0.24 0.08,0.37 0.28,1.11 0.38,1.47 0.6,1.86 0.43,0.73 0.92,0.95 1.23,0.95 0.37,0 0.69,-0.29 0.69,-0.98 0,-0.54 -0.29,-1.66 -0.56,-2.14 -0.33,-0.63 -0.8,-0.95 -1.18,-0.95 v 0 l 0.01,-0.21 c 1.16,0 2.45,1.4 2.45,2.88 0,1.05 -0.66,1.62 -1.39,1.62 -0.96,0 -2.01,-1 -2.3,-2.21 z" />
</g>
  <g
     id="g1065"
     style="stroke:#000000;stroke-opacity:1"
     ns0:jacobian_sqrt="1.0"
     inkscapeversion="0.92.4"
     ns0:alignment="middle center"
     ns0:scale="0.750000000002"
     ns0:preamble="C:\\Users\\Gonzalo\\AppData\\Roaming\\inkscape\\extensions\\textext\\default_packages.tex"
     ns0:text="$\\sigma = U \\rho U^H$"
     ns0:pdfconverter="pdf2svg"
     ns0:texconverter="pdflatex"
     ns0:version="0.10.2"
     transform="translate(-34.88429,-117.89848)">
    <g
       style="stroke:#000000;stroke-opacity:1"
       id="surface1">
      <g
         id="g1044"
         style="fill:#000000;fill-opacity:1;stroke:#000000;stroke-opacity:1">
        <path
           id="path1042"
           transform="translate(148.712,134.765)"
           d="m 5.15625,-3.71875 c 0.140625,0 0.5,0 0.5,-0.34375 0,-0.234375 -0.21875,-0.234375 -0.390625,-0.234375 h -2.28125 c -1.5,0 -2.609375,1.640625 -2.609375,2.828125 0,0.875 0.59375,1.578125 1.5,1.578125 1.171875,0 2.5,-1.203125 2.5,-2.734375 0,-0.171875 0,-0.65625 -0.3125,-1.09375 z M 1.890625,-0.109375 C 1.390625,-0.109375 1,-0.46875 1,-1.1875 c 0,-0.296875 0.109375,-1.109375 0.46875,-1.703125 0.421875,-0.6875 1.015625,-0.828125 1.359375,-0.828125 0.828125,0 0.90625,0.65625 0.90625,0.96875 0,0.46875 -0.203125,1.28125 -0.53125,1.796875 -0.390625,0.578125 -0.9375,0.84375 -1.3125,0.84375 z m 0,0"
           style="stroke:#000000;stroke-width:0;stroke-opacity:1"
           inkscape:connector-curvature="0" />
      </g>
      <g
         id="g1048"
         style="fill:#000000;fill-opacity:1;stroke:#000000;stroke-opacity:1">
        <path
           id="path1046"
           transform="translate(157.53,134.765)"
           d="m 6.84375,-3.265625 c 0.15625,0 0.34375,0 0.34375,-0.1875 C 7.1875,-3.65625 7,-3.65625 6.859375,-3.65625 h -5.96875 c -0.140625,0 -0.328125,0 -0.328125,0.203125 0,0.1875 0.1875,0.1875 0.328125,0.1875 z m 0.015625,1.9375 c 0.140625,0 0.328125,0 0.328125,-0.203125 0,-0.1875 -0.1875,-0.1875 -0.34375,-0.1875 H 0.890625 c -0.140625,0 -0.328125,0 -0.328125,0.1875 0,0.203125 0.1875,0.203125 0.328125,0.203125 z m 0,0"
           style="stroke:#000000;stroke-width:0;stroke-opacity:1"
           inkscape:connector-curvature="0" />
      </g>
      <g
         id="g1052"
         style="fill:#000000;fill-opacity:1;stroke:#000000;stroke-opacity:1">
        <path
           id="path1050"
           transform="translate(168.046,134.765)"
           d="M 6.328125,-5.765625 C 6.4375,-6.171875 6.609375,-6.46875 7.40625,-6.5 c 0.046875,0 0.171875,-0.015625 0.171875,-0.203125 0,0 0,-0.109375 -0.125,-0.109375 -0.328125,0 -0.6875,0.03125 -1.015625,0.03125 -0.34375,0 -0.71875,-0.03125 -1.046875,-0.03125 -0.0625,0 -0.171875,0 -0.171875,0.203125 C 5.21875,-6.5 5.3125,-6.5 5.390625,-6.5 c 0.578125,0.015625 0.6875,0.21875 0.6875,0.4375 0,0.03125 -0.03125,0.1875 -0.03125,0.203125 l -0.90625,3.5625 C 4.8125,-0.953125 3.65625,-0.09375 2.65625,-0.09375 c -0.671875,0 -1.203125,-0.4375 -1.203125,-1.296875 0,-0.015625 0,-0.328125 0.109375,-0.765625 L 2.515625,-6.046875 C 2.609375,-6.40625 2.625,-6.5 3.359375,-6.5 c 0.265625,0 0.34375,0 0.34375,-0.203125 0,-0.109375 -0.109375,-0.109375 -0.140625,-0.109375 -0.28125,0 -1,0.03125 -1.28125,0.03125 -0.28125,0 -1,-0.03125 -1.28125,-0.03125 -0.078125,0 -0.1875,0 -0.1875,0.203125 C 0.8125,-6.5 0.890625,-6.5 1.09375,-6.5 c 0.015625,0 0.203125,0 0.375,0.015625 0.171875,0.03125 0.265625,0.03125 0.265625,0.171875 0,0.046875 -0.109375,0.46875 -0.171875,0.703125 l -0.21875,0.875 C 1.25,-4.34375 0.78125,-2.46875 0.734375,-2.265625 0.671875,-2 0.671875,-1.84375 0.671875,-1.6875 c 0,1.203125 0.90625,1.90625 1.953125,1.90625 1.25,0 2.484375,-1.125 2.8125,-2.4375 z m 0,0"
           style="stroke:#000000;stroke-width:0;stroke-opacity:1"
           inkscape:connector-curvature="0" />
      </g>
      <g
         id="g1058"
         style="fill:#000000;fill-opacity:1;stroke:#000000;stroke-opacity:1">
        <path
           id="path1054"
           transform="translate(175.93439,134.765)"
           d="m 0.328125,1.71875 c -0.03125,0.125 -0.03125,0.140625 -0.03125,0.171875 0,0.140625 0.109375,0.265625 0.28125,0.265625 0.203125,0 0.328125,-0.1875 0.34375,-0.21875 0.0625,-0.078125 0.375,-1.421875 0.640625,-2.5 0.203125,0.40625 0.515625,0.671875 0.984375,0.671875 C 3.71875,0.109375 5,-1.296875 5,-2.78125 c 0,-1.0625 -0.65625,-1.625 -1.375,-1.625 -0.96875,0 -2.015625,1 -2.3125,2.21875 z m 2.21875,-1.828125 C 1.84375,-0.109375 1.6875,-0.90625 1.6875,-1 c 0,-0.03125 0.046875,-0.234375 0.078125,-0.359375 0.28125,-1.125 0.375,-1.484375 0.59375,-1.875 0.4375,-0.734375 0.9375,-0.953125 1.234375,-0.953125 0.375,0 0.6875,0.296875 0.6875,0.984375 0,0.546875 -0.28125,1.65625 -0.546875,2.140625 -0.328125,0.640625 -0.8125,0.953125 -1.1875,0.953125 z m 0,0"
           style="stroke:#000000;stroke-width:0;stroke-opacity:1"
           inkscape:connector-curvature="0" />
        <path
           id="path1056"
           transform="translate(181.08505,134.765)"
           d="M 6.328125,-5.765625 C 6.4375,-6.171875 6.609375,-6.46875 7.40625,-6.5 c 0.046875,0 0.171875,-0.015625 0.171875,-0.203125 0,0 0,-0.109375 -0.125,-0.109375 -0.328125,0 -0.6875,0.03125 -1.015625,0.03125 -0.34375,0 -0.71875,-0.03125 -1.046875,-0.03125 -0.0625,0 -0.171875,0 -0.171875,0.203125 C 5.21875,-6.5 5.3125,-6.5 5.390625,-6.5 c 0.578125,0.015625 0.6875,0.21875 0.6875,0.4375 0,0.03125 -0.03125,0.1875 -0.03125,0.203125 l -0.90625,3.5625 C 4.8125,-0.953125 3.65625,-0.09375 2.65625,-0.09375 c -0.671875,0 -1.203125,-0.4375 -1.203125,-1.296875 0,-0.015625 0,-0.328125 0.109375,-0.765625 L 2.515625,-6.046875 C 2.609375,-6.40625 2.625,-6.5 3.359375,-6.5 c 0.265625,0 0.34375,0 0.34375,-0.203125 0,-0.109375 -0.109375,-0.109375 -0.140625,-0.109375 -0.28125,0 -1,0.03125 -1.28125,0.03125 -0.28125,0 -1,-0.03125 -1.28125,-0.03125 -0.078125,0 -0.1875,0 -0.1875,0.203125 C 0.8125,-6.5 0.890625,-6.5 1.09375,-6.5 c 0.015625,0 0.203125,0 0.375,0.015625 0.171875,0.03125 0.265625,0.03125 0.265625,0.171875 0,0.046875 -0.109375,0.46875 -0.171875,0.703125 l -0.21875,0.875 C 1.25,-4.34375 0.78125,-2.46875 0.734375,-2.265625 0.671875,-2 0.671875,-1.84375 0.671875,-1.6875 c 0,1.203125 0.90625,1.90625 1.953125,1.90625 1.25,0 2.484375,-1.125 2.8125,-2.4375 z m 0,0"
           style="stroke:#000000;stroke-width:0;stroke-opacity:1"
           inkscape:connector-curvature="0" />
      </g>
      <g
         id="g1062"
         style="fill:#000000;fill-opacity:1;stroke:#000000;stroke-opacity:1">
        <path
           id="path1060"
           transform="translate(188.974,131.149)"
           d="m 5.859375,-4.1875 c 0.0625,-0.265625 0.078125,-0.328125 0.59375,-0.328125 0.15625,0 0.234375,0 0.234375,-0.140625 0,-0.03125 -0.015625,-0.109375 -0.109375,-0.109375 -0.203125,0 -0.703125,0.03125 -0.90625,0.03125 -0.125,0 -0.375,0 -0.484375,0 C 5.046875,-4.75 4.875,-4.765625 4.75,-4.765625 c -0.046875,0 -0.15625,0 -0.15625,0.15625 0,0.09375 0.09375,0.09375 0.234375,0.09375 0,0 0.140625,0 0.265625,0.015625 0.140625,0.015625 0.15625,0.03125 0.15625,0.109375 0,0 0,0.046875 -0.03125,0.140625 L 4.8125,-2.59375 H 2.46875 l 0.40625,-1.625 c 0.0625,-0.234375 0.078125,-0.296875 0.609375,-0.296875 0.125,0 0.21875,0 0.21875,-0.140625 0,-0.03125 -0.03125,-0.109375 -0.109375,-0.109375 -0.203125,0 -0.71875,0.03125 -0.921875,0.03125 -0.109375,0 -0.359375,0 -0.484375,0 C 2.0625,-4.75 1.890625,-4.765625 1.75,-4.765625 c -0.03125,0 -0.140625,0 -0.140625,0.15625 0,0.09375 0.078125,0.09375 0.21875,0.09375 0.015625,0 0.140625,0 0.265625,0.015625 0.15625,0.015625 0.171875,0.03125 0.171875,0.109375 0,0 0,0.046875 -0.03125,0.140625 l -0.9375,3.703125 C 1.25,-0.3125 1.234375,-0.25 0.6875,-0.25 c -0.109375,0 -0.203125,0 -0.203125,0.140625 C 0.484375,-0.03125 0.53125,0 0.59375,0 0.796875,0 1.296875,-0.03125 1.5,-0.03125 c 0.109375,0 0.359375,0 0.484375,0.015625 C 2.125,-0.015625 2.296875,0 2.421875,0 2.453125,0 2.578125,0 2.578125,-0.140625 2.578125,-0.25 2.5,-0.25 2.34375,-0.25 c -0.109375,0 -0.140625,0 -0.265625,-0.015625 -0.15625,-0.015625 -0.15625,-0.03125 -0.15625,-0.109375 0,0 0,-0.046875 0.03125,-0.140625 L 2.40625,-2.34375 H 4.75 L 4.296875,-0.546875 C 4.234375,-0.3125 4.21875,-0.25 3.671875,-0.25 3.5625,-0.25 3.46875,-0.25 3.46875,-0.109375 3.46875,-0.03125 3.515625,0 3.578125,0 3.78125,0 4.28125,-0.03125 4.484375,-0.03125 c 0.125,0 0.359375,0 0.484375,0.015625 C 5.109375,-0.015625 5.28125,0 5.421875,0 5.453125,0 5.5625,0 5.5625,-0.140625 5.5625,-0.25 5.484375,-0.25 5.328125,-0.25 5.21875,-0.25 5.1875,-0.25 5.0625,-0.265625 4.90625,-0.28125 4.90625,-0.296875 4.90625,-0.375 c 0,-0.03125 0.03125,-0.109375 0.03125,-0.140625 z m 0,0"
           style="stroke:#000000;stroke-width:0;stroke-opacity:1"
           inkscape:connector-curvature="0" />
      </g>
    </g>
  </g>
</svg>
