<?xml version="1.0" encoding="UTF-8" standalone="no"?>
<!-- Created with Inkscape (http://www.inkscape.org/) -->

<svg
   version="1.1"
   id="svg12498"
   width="153.19518"
   height="27.065935"
   viewBox="0 0 153.19518 27.065935"
   sodipodi:docname="deutsch-init-H.svg"
   inkscape:version="1.2.1 (9c6d41e410, 2022-07-14)"
   xmlns:inkscape="http://www.inkscape.org/namespaces/inkscape"
   xmlns:sodipodi="http://sodipodi.sourceforge.net/DTD/sodipodi-0.dtd"
   xmlns="http://www.w3.org/2000/svg"
   xmlns:svg="http://www.w3.org/2000/svg"
   xmlns:ns0="http://www.iki.fi/pav/software/textext/">
  <defs
     id="defs12502" />
  <sodipodi:namedview
     id="namedview12500"
     pagecolor="#ffffff"
     bordercolor="#000000"
     borderopacity="0.25"
     inkscape:showpageshadow="2"
     inkscape:pageopacity="0.0"
     inkscape:pagecheckerboard="0"
     inkscape:deskcolor="#d1d1d1"
     showgrid="false"
     inkscape:zoom="8.7194474"
     inkscape:cx="76.782389"
     inkscape:cy="13.647654"
     inkscape:window-width="3840"
     inkscape:window-height="2054"
     inkscape:window-x="2869"
     inkscape:window-y="-11"
     inkscape:window-maximized="1"
     inkscape:current-layer="g12506">
    <inkscape:page
       x="0"
       y="0"
       id="page12504"
       width="153.19518"
       height="27.065935" />
  </sodipodi:namedview>
  <g
     id="g12506"
     inkscape:groupmode="layer"
     inkscape:label="Page 1"
     transform="scale(1.3333333)">
    <rect
       style="fill:none;fill-opacity:1;stroke:#000000;stroke-width:0.323154;stroke-miterlimit:4;stroke-dasharray:none;stroke-dashoffset:0;stroke-opacity:1"
       id="rect1012"
       width="17.051296"
       height="17.051296"
       x="53.189007"
       y="1.4669154" />
    <path
       inkscape:connector-curvature="0"
       id="path1049"
       d="m 48.70694,15.185173 h 4.365483"
       style="fill:none;stroke:#000000;stroke-width:0.3735;stroke-linecap:butt;stroke-linejoin:miter;stroke-miterlimit:10;stroke-dasharray:none;stroke-opacity:1"
       sodipodi:nodetypes="cc" />
    <g
       id="g2389"
       ns0:jacobian_sqrt="0.649762"
       inkscapeversion="0.92.4"
       ns0:alignment="middle center"
       ns0:scale="0.487321462501"
       ns0:preamble="C:\\Users\\Gonzalo\\AppData\\Roaming\\inkscape\\extensions\\textext\\default_packages.tex"
       ns0:text="$U_f$"
       ns0:pdfconverter="pdf2svg"
       ns0:texconverter="pdflatex"
       ns0:version="0.10.2"
       transform="matrix(0.60915189,0,0,0.60915189,-32.159487,-70.339778)">
      <g
         id="g2387">
        <g
           id="g2381"
           style="fill:#000000;fill-opacity:1">
          <path
             id="path2379"
             transform="translate(148.712,134.765)"
             d="M 6.328125,-5.765625 C 6.4375,-6.171875 6.609375,-6.46875 7.40625,-6.5 c 0.046875,0 0.171875,-0.015625 0.171875,-0.203125 0,0 0,-0.109375 -0.125,-0.109375 -0.328125,0 -0.6875,0.03125 -1.015625,0.03125 -0.34375,0 -0.71875,-0.03125 -1.046875,-0.03125 -0.0625,0 -0.171875,0 -0.171875,0.203125 C 5.21875,-6.5 5.3125,-6.5 5.390625,-6.5 c 0.578125,0.015625 0.6875,0.21875 0.6875,0.4375 0,0.03125 -0.03125,0.1875 -0.03125,0.203125 l -0.90625,3.5625 C 4.8125,-0.953125 3.65625,-0.09375 2.65625,-0.09375 c -0.671875,0 -1.203125,-0.4375 -1.203125,-1.296875 0,-0.015625 0,-0.328125 0.109375,-0.765625 L 2.515625,-6.046875 C 2.609375,-6.40625 2.625,-6.5 3.359375,-6.5 c 0.265625,0 0.34375,0 0.34375,-0.203125 0,-0.109375 -0.109375,-0.109375 -0.140625,-0.109375 -0.28125,0 -1,0.03125 -1.28125,0.03125 -0.28125,0 -1,-0.03125 -1.28125,-0.03125 -0.078125,0 -0.1875,0 -0.1875,0.203125 C 0.8125,-6.5 0.890625,-6.5 1.09375,-6.5 c 0.015625,0 0.203125,0 0.375,0.015625 0.171875,0.03125 0.265625,0.03125 0.265625,0.171875 0,0.046875 -0.109375,0.46875 -0.171875,0.703125 l -0.21875,0.875 C 1.25,-4.34375 0.78125,-2.46875 0.734375,-2.265625 0.671875,-2 0.671875,-1.84375 0.671875,-1.6875 c 0,1.203125 0.90625,1.90625 1.953125,1.90625 1.25,0 2.484375,-1.125 2.8125,-2.4375 z m 0,0"
             style="stroke:none;stroke-width:0"
             inkscape:connector-curvature="0" />
        </g>
        <g
           id="g2385"
           style="fill:#000000;fill-opacity:1">
          <path
             id="path2383"
             transform="translate(155.515,136.259)"
             d="M 2.84375,-2.75 H 3.515625 C 3.65625,-2.75 3.75,-2.75 3.75,-2.90625 3.75,-3 3.65625,-3 3.53125,-3 H 2.890625 c 0.15625,-0.890625 0.203125,-1.203125 0.265625,-1.40625 0.03125,-0.15625 0.1875,-0.296875 0.359375,-0.296875 0,0 0.1875,0 0.328125,0.078125 -0.296875,0.09375 -0.3125,0.34375 -0.3125,0.375 0,0.15625 0.125,0.265625 0.28125,0.265625 0.1875,0 0.390625,-0.15625 0.390625,-0.421875 0,-0.328125 -0.328125,-0.5 -0.6875,-0.5 -0.3125,0 -0.65625,0.171875 -0.84375,0.515625 C 2.53125,-4.125 2.484375,-3.8125 2.328125,-3 H 1.78125 c -0.140625,0 -0.234375,0 -0.234375,0.15625 0,0.09375 0.09375,0.09375 0.21875,0.09375 H 2.28125 c 0,0.046875 -0.4375,2.546875 -0.609375,3.296875 -0.03125,0.15625 -0.15625,0.671875 -0.484375,0.671875 -0.015625,0 -0.171875,0 -0.3125,-0.078125 0.28125,-0.09375 0.3125,-0.34375 0.3125,-0.375 C 1.1875,0.609375 1.0625,0.5 0.90625,0.5 c -0.1875,0 -0.390625,0.15625 -0.390625,0.421875 0,0.3125 0.328125,0.5 0.671875,0.5 0.4375,0 0.75,-0.453125 0.828125,-0.609375 0.25,-0.46875 0.421875,-1.328125 0.4375,-1.40625 z m 0,0"
             style="stroke:none;stroke-width:0"
             inkscape:connector-curvature="0" />
        </g>
      </g>
    </g>
    <path
       inkscape:connector-curvature="0"
       id="path2905"
       d="m 70.17043,4.8093833 h 4.403521"
       style="fill:none;stroke:#000000;stroke-width:0.3735;stroke-linecap:butt;stroke-linejoin:miter;stroke-miterlimit:10;stroke-dasharray:none;stroke-opacity:1"
       sodipodi:nodetypes="cc" />
    <path
       sodipodi:nodetypes="cc"
       style="fill:none;stroke:#000000;stroke-width:0.3735;stroke-linecap:butt;stroke-linejoin:miter;stroke-miterlimit:10;stroke-dasharray:none;stroke-opacity:1"
       d="m 70.17043,15.185173 h 4.403521"
       id="path2907"
       inkscape:connector-curvature="0" />
    <rect
       y="11.947406"
       x="42.025753"
       height="6.6302552"
       width="6.6302552"
       id="rect1051"
       style="fill:none;fill-opacity:1;stroke:#000000;stroke-width:0.323154;stroke-miterlimit:4;stroke-dasharray:none;stroke-dashoffset:0;stroke-opacity:1" />
    <text
       id="text1055"
       y="17.089869"
       x="42.915508"
       style="font-style:normal;font-variant:normal;font-weight:normal;font-stretch:normal;font-size:24px;line-height:1.25;font-family:'DSFTimes New Roman';-inkscape-font-specification:'DSFTimes New Roman, ';letter-spacing:0px;word-spacing:0px;fill:#000000;fill-opacity:1;stroke:none;stroke-width:0.75"
       xml:space="preserve"><tspan
         style="font-style:italic;font-variant:normal;font-weight:normal;font-stretch:normal;font-size:6px;font-family:'Times New Roman';-inkscape-font-specification:'Times New Roman, Italic';stroke-width:0.75"
         y="17.089869"
         x="42.915508"
         id="tspan1053"
         sodipodi:role="line">H</tspan></text>
    <g
       id="g4024"
       ns0:jacobian_sqrt="0.649762"
       inkscapeversion="0.92.4"
       ns0:alignment="middle center"
       ns0:scale="0.487321455001"
       ns0:preamble="C:\\Users\\Gonzalo\\AppData\\Roaming\\inkscape\\extensions\\textext\\default_packages.tex"
       ns0:text="$|1\\rangle$"
       ns0:pdfconverter="pdf2svg"
       ns0:texconverter="pdflatex"
       ns0:version="0.10.2"
       transform="matrix(0.60915189,0,0,0.60915189,-61.650259,-65.187478)">
      <g
         id="surface1">
        <g
           id="g4013"
           style="fill:#000000;fill-opacity:1">
          <path
             id="path4011"
             transform="translate(148.712,134.765)"
             d="m 1.578125,-7.125 c 0,-0.171875 0,-0.359375 -0.1875,-0.359375 -0.203125,0 -0.203125,0.1875 -0.203125,0.359375 v 9.265625 c 0,0.171875 0,0.359375 0.203125,0.359375 0.1875,0 0.1875,-0.1875 0.1875,-0.359375 z m 0,0"
             style="stroke:none;stroke-width:0"
             inkscape:connector-curvature="0" />
        </g>
        <g
           id="g4017"
           style="fill:#000000;fill-opacity:1">
          <path
             id="path4015"
             transform="translate(151.48,134.765)"
             d="m 2.9375,-6.375 c 0,-0.25 0,-0.265625 -0.234375,-0.265625 C 2.078125,-6 1.203125,-6 0.890625,-6 v 0.3125 c 0.203125,0 0.78125,0 1.296875,-0.265625 v 5.171875 c 0,0.359375 -0.03125,0.46875 -0.921875,0.46875 h -0.3125 V 0 c 0.34375,-0.03125 1.203125,-0.03125 1.609375,-0.03125 0.390625,0 1.265625,0 1.609375,0.03125 v -0.3125 h -0.3125 c -0.90625,0 -0.921875,-0.109375 -0.921875,-0.46875 z m 0,0"
             style="stroke:none;stroke-width:0"
             inkscape:connector-curvature="0" />
        </g>
        <g
           id="g4021"
           style="fill:#000000;fill-opacity:1">
          <path
             id="path4019"
             transform="translate(156.461,134.765)"
             d="M 2.71875,-2.328125 C 2.765625,-2.4375 2.765625,-2.46875 2.765625,-2.5 c 0,-0.015625 0,-0.046875 -0.046875,-0.15625 L 0.984375,-7.25 c -0.0625,-0.171875 -0.125,-0.234375 -0.234375,-0.234375 -0.109375,0 -0.203125,0.09375 -0.203125,0.203125 0,0.03125 0,0.046875 0.046875,0.15625 L 2.359375,-2.5 0.59375,2.109375 C 0.546875,2.21875 0.546875,2.25 0.546875,2.296875 0.546875,2.40625 0.640625,2.5 0.75,2.5 0.875,2.5 0.921875,2.390625 0.953125,2.296875 Z m 0,0"
             style="stroke:none;stroke-width:0"
             inkscape:connector-curvature="0" />
        </g>
      </g>
    </g>
    <path
       sodipodi:nodetypes="cc"
       style="fill:none;stroke:#000000;stroke-width:0.3735;stroke-linecap:butt;stroke-linejoin:miter;stroke-miterlimit:10;stroke-dasharray:none;stroke-opacity:1"
       d="m 37.701643,15.185173 h 4.365483"
       id="path885"
       inkscape:connector-curvature="0" />
    <g
       id="g2161"
       ns0:jacobian_sqrt="0.649762"
       inkscapeversion="0.92.4"
       ns0:alignment="middle center"
       ns0:scale="0.487321455001"
       ns0:preamble="C:\\Users\\Gonzalo\\AppData\\Roaming\\inkscape\\extensions\\textext\\default_packages.tex"
       ns0:text="$|0\\rangle$"
       ns0:pdfconverter="pdf2svg"
       ns0:texconverter="pdflatex"
       ns0:version="0.10.2"
       transform="matrix(0.60915189,0,0,0.60915189,-61.650259,-75.84384)">
      <g
         id="g2159">
        <g
           id="g2149"
           style="fill:#000000;fill-opacity:1">
          <path
             id="path2147"
             transform="translate(148.712,134.765)"
             d="m 1.578125,-7.125 c 0,-0.171875 0,-0.359375 -0.1875,-0.359375 -0.203125,0 -0.203125,0.1875 -0.203125,0.359375 v 9.265625 c 0,0.171875 0,0.359375 0.203125,0.359375 0.1875,0 0.1875,-0.1875 0.1875,-0.359375 z m 0,0"
             style="stroke:none;stroke-width:0"
             inkscape:connector-curvature="0" />
        </g>
        <g
           id="g2153"
           style="fill:#000000;fill-opacity:1">
          <path
             id="path2151"
             transform="translate(151.48,134.765)"
             d="m 4.578125,-3.1875 c 0,-0.796875 -0.046875,-1.59375 -0.390625,-2.328125 -0.453125,-0.96875 -1.28125,-1.125 -1.6875,-1.125 -0.609375,0 -1.328125,0.265625 -1.75,1.1875 -0.3125,0.6875 -0.359375,1.46875 -0.359375,2.265625 0,0.75 0.03125,1.640625 0.453125,2.40625 0.421875,0.796875 1.15625,1 1.640625,1 0.53125,0 1.296875,-0.203125 1.734375,-1.15625 0.3125,-0.6875 0.359375,-1.46875 0.359375,-2.25 z M 2.484375,0 C 2.09375,0 1.5,-0.25 1.328125,-1.203125 1.21875,-1.796875 1.21875,-2.71875 1.21875,-3.3125 c 0,-0.640625 0,-1.296875 0.078125,-1.828125 0.1875,-1.1875 0.9375,-1.28125 1.1875,-1.28125 0.328125,0 0.984375,0.1875 1.171875,1.171875 0.109375,0.5625 0.109375,1.3125 0.109375,1.9375 0,0.75 0,1.421875 -0.109375,2.0625 C 3.5,-0.296875 2.9375,0 2.484375,0 Z m 0,0"
             style="stroke:none;stroke-width:0"
             inkscape:connector-curvature="0" />
        </g>
        <g
           id="g2157"
           style="fill:#000000;fill-opacity:1">
          <path
             id="path2155"
             transform="translate(156.461,134.765)"
             d="M 2.71875,-2.328125 C 2.765625,-2.4375 2.765625,-2.46875 2.765625,-2.5 c 0,-0.015625 0,-0.046875 -0.046875,-0.15625 L 0.984375,-7.25 c -0.0625,-0.171875 -0.125,-0.234375 -0.234375,-0.234375 -0.109375,0 -0.203125,0.09375 -0.203125,0.203125 0,0.03125 0,0.046875 0.046875,0.15625 L 2.359375,-2.5 0.59375,2.109375 C 0.546875,2.21875 0.546875,2.25 0.546875,2.296875 0.546875,2.40625 0.640625,2.5 0.75,2.5 0.875,2.5 0.921875,2.390625 0.953125,2.296875 Z m 0,0"
             style="stroke:none;stroke-width:0"
             inkscape:connector-curvature="0" />
        </g>
      </g>
    </g>
    <path
       sodipodi:nodetypes="cc"
       style="fill:none;stroke:#000000;stroke-width:0.3735;stroke-linecap:butt;stroke-linejoin:miter;stroke-miterlimit:10;stroke-dasharray:none;stroke-opacity:1"
       d="m 48.70694,4.9039633 h 4.365483"
       id="path2173"
       inkscape:connector-curvature="0" />
    <rect
       style="fill:none;fill-opacity:1;stroke:#000000;stroke-width:0.323154;stroke-miterlimit:4;stroke-dasharray:none;stroke-dashoffset:0;stroke-opacity:1"
       id="rect2175"
       width="6.6302552"
       height="6.6302552"
       x="42.025753"
       y="1.6661932" />
    <text
       xml:space="preserve"
       style="font-style:normal;font-variant:normal;font-weight:normal;font-stretch:normal;font-size:24px;line-height:1.25;font-family:'DSFTimes New Roman';-inkscape-font-specification:'DSFTimes New Roman, ';letter-spacing:0px;word-spacing:0px;fill:#000000;fill-opacity:1;stroke:none;stroke-width:0.75"
       x="42.915508"
       y="6.8086615"
       id="text2179"><tspan
         sodipodi:role="line"
         id="tspan2177"
         x="42.915508"
         y="6.8086615"
         style="font-style:italic;font-variant:normal;font-weight:normal;font-stretch:normal;font-size:6px;font-family:'Times New Roman';-inkscape-font-specification:'Times New Roman, Italic';stroke-width:0.75">H</tspan></text>
    <path
       inkscape:connector-curvature="0"
       id="path2181"
       d="m 37.701643,4.9039633 h 4.365483"
       style="fill:none;stroke:#000000;stroke-width:0.3735;stroke-linecap:butt;stroke-linejoin:miter;stroke-miterlimit:10;stroke-dasharray:none;stroke-opacity:1"
       sodipodi:nodetypes="cc" />
    <g
       id="g1281"
       ns0:jacobian_sqrt="0.649762"
       inkscapeversion="0.92.4"
       ns0:alignment="middle center"
       ns0:scale="0.487321455001"
       ns0:preamble="C:\\Users\\Gonzalo\\AppData\\Roaming\\inkscape\\extensions\\textext\\default_packages.tex"
       ns0:text="$|x\\rangle$"
       ns0:pdfconverter="pdf2svg"
       ns0:texconverter="pdflatex"
       ns0:version="0.10.2"
       transform="matrix(0.60915188,0,0,0.60915188,-14.429742,-75.8248)">
      <g
         id="g1279">
        <g
           id="g1269"
           style="fill:#000000;fill-opacity:1">
          <path
             inkscape:connector-curvature="0"
             id="path1267"
             transform="translate(148.712,134.765)"
             d="m 1.578125,-7.125 c 0,-0.171875 0,-0.359375 -0.1875,-0.359375 -0.203125,0 -0.203125,0.1875 -0.203125,0.359375 v 9.265625 c 0,0.171875 0,0.359375 0.203125,0.359375 0.1875,0 0.1875,-0.1875 0.1875,-0.359375 z m 0,0"
             style="stroke:none;stroke-width:0" />
        </g>
        <g
           id="g1273"
           style="fill:#000000;fill-opacity:1">
          <path
             inkscape:connector-curvature="0"
             id="path1271"
             transform="translate(151.48,134.765)"
             d="M 3.328125,-3.015625 C 3.390625,-3.265625 3.625,-4.1875 4.3125,-4.1875 c 0.046875,0 0.296875,0 0.5,0.125 C 4.53125,-4 4.34375,-3.765625 4.34375,-3.515625 c 0,0.15625 0.109375,0.34375 0.375,0.34375 0.21875,0 0.53125,-0.171875 0.53125,-0.578125 0,-0.515625 -0.578125,-0.65625 -0.921875,-0.65625 -0.578125,0 -0.921875,0.53125 -1.046875,0.75 -0.25,-0.65625 -0.78125,-0.75 -1.078125,-0.75 -1.03125,0 -1.609375,1.28125 -1.609375,1.53125 0,0.109375 0.109375,0.109375 0.125,0.109375 0.078125,0 0.109375,-0.03125 0.125,-0.109375 0.34375,-1.0625 1,-1.3125 1.34375,-1.3125 0.1875,0 0.53125,0.09375 0.53125,0.671875 0,0.3125 -0.171875,0.96875 -0.53125,2.375 -0.15625,0.609375 -0.515625,1.03125 -0.953125,1.03125 -0.0625,0 -0.28125,0 -0.5,-0.125 0.25,-0.0625 0.46875,-0.265625 0.46875,-0.546875 0,-0.265625 -0.21875,-0.34375 -0.359375,-0.34375 -0.3125,0 -0.546875,0.25 -0.546875,0.578125 0,0.453125 0.484375,0.65625 0.921875,0.65625 0.671875,0 1.03125,-0.703125 1.046875,-0.75 0.125,0.359375 0.484375,0.75 1.078125,0.75 1.03125,0 1.59375,-1.28125 1.59375,-1.53125 0,-0.109375 -0.078125,-0.109375 -0.109375,-0.109375 -0.09375,0 -0.109375,0.046875 -0.140625,0.109375 -0.328125,1.078125 -1,1.3125 -1.3125,1.3125 -0.390625,0 -0.546875,-0.3125 -0.546875,-0.65625 0,-0.21875 0.046875,-0.4375 0.15625,-0.875 z m 0,0"
             style="stroke:none;stroke-width:0" />
        </g>
        <g
           id="g1277"
           style="fill:#000000;fill-opacity:1">
          <path
             inkscape:connector-curvature="0"
             id="path1275"
             transform="translate(157.174,134.765)"
             d="M 2.71875,-2.328125 C 2.765625,-2.4375 2.765625,-2.46875 2.765625,-2.5 c 0,-0.015625 0,-0.046875 -0.046875,-0.15625 L 0.984375,-7.25 c -0.0625,-0.171875 -0.125,-0.234375 -0.234375,-0.234375 -0.109375,0 -0.203125,0.09375 -0.203125,0.203125 0,0.03125 0,0.046875 0.046875,0.15625 L 2.359375,-2.5 0.59375,2.109375 C 0.546875,2.21875 0.546875,2.25 0.546875,2.296875 0.546875,2.40625 0.640625,2.5 0.75,2.5 0.875,2.5 0.921875,2.390625 0.953125,2.296875 Z m 0,0"
             style="stroke:none;stroke-width:0" />
        </g>
      </g>
    </g>
    <g
       id="g1377"
       ns0:jacobian_sqrt="0.649762"
       inkscapeversion="0.92.4"
       ns0:alignment="middle center"
       ns0:scale="0.487321455001"
       ns0:preamble="C:\\Users\\Gonzalo\\AppData\\Roaming\\inkscape\\extensions\\textext\\default_packages.tex"
       ns0:text="$|y\\rangle$"
       ns0:pdfconverter="pdf2svg"
       ns0:texconverter="pdflatex"
       ns0:version="0.10.2"
       transform="matrix(0.60915188,0,0,0.60915188,-13.95047,-65.168441)">
      <g
         id="g1375">
        <g
           id="g1365"
           style="fill:#000000;fill-opacity:1">
          <path
             id="path1363"
             transform="translate(148.712,134.765)"
             d="m 1.578125,-7.125 c 0,-0.171875 0,-0.359375 -0.1875,-0.359375 -0.203125,0 -0.203125,0.1875 -0.203125,0.359375 v 9.265625 c 0,0.171875 0,0.359375 0.203125,0.359375 0.1875,0 0.1875,-0.1875 0.1875,-0.359375 z m 0,0"
             style="stroke:none;stroke-width:0"
             inkscape:connector-curvature="0" />
        </g>
        <g
           id="g1369"
           style="fill:#000000;fill-opacity:1">
          <path
             id="path1367"
             transform="translate(151.48,134.765)"
             d="m 4.84375,-3.796875 c 0.046875,-0.140625 0.046875,-0.15625 0.046875,-0.234375 0,-0.171875 -0.140625,-0.265625 -0.296875,-0.265625 -0.09375,0 -0.25,0.0625 -0.34375,0.203125 -0.015625,0.0625 -0.109375,0.359375 -0.140625,0.546875 -0.078125,0.25 -0.140625,0.53125 -0.203125,0.796875 l -0.453125,1.796875 c -0.03125,0.140625 -0.46875,0.84375 -1.125,0.84375 -0.5,0 -0.609375,-0.4375 -0.609375,-0.8125 C 1.71875,-1.375 1.890625,-2 2.21875,-2.875 2.375,-3.28125 2.421875,-3.390625 2.421875,-3.59375 c 0,-0.4375 -0.3125,-0.8125 -0.8125,-0.8125 -0.953125,0 -1.3125,1.453125 -1.3125,1.53125 0,0.109375 0.09375,0.109375 0.109375,0.109375 0.109375,0 0.109375,-0.03125 0.15625,-0.1875 0.28125,-0.9375 0.671875,-1.234375 1.015625,-1.234375 0.078125,0 0.25,0 0.25,0.3125 0,0.25 -0.109375,0.515625 -0.171875,0.703125 -0.40625,1.0625 -0.578125,1.625 -0.578125,2.09375 0,0.890625 0.625,1.1875 1.21875,1.1875 0.390625,0 0.71875,-0.171875 1,-0.453125 -0.125,0.515625 -0.25,1.015625 -0.640625,1.546875 -0.265625,0.328125 -0.640625,0.625 -1.09375,0.625 -0.140625,0 -0.59375,-0.03125 -0.765625,-0.421875 0.15625,0 0.296875,0 0.421875,-0.125 C 1.328125,1.203125 1.421875,1.0625 1.421875,0.875 1.421875,0.5625 1.15625,0.53125 1.0625,0.53125 0.828125,0.53125 0.5,0.6875 0.5,1.171875 c 0,0.5 0.4375,0.875 1.0625,0.875 1.015625,0 2.046875,-0.90625 2.328125,-2.03125 z m 0,0"
             style="stroke:none;stroke-width:0"
             inkscape:connector-curvature="0" />
        </g>
        <g
           id="g1373"
           style="fill:#000000;fill-opacity:1">
          <path
             id="path1371"
             transform="translate(156.722,134.765)"
             d="M 2.71875,-2.328125 C 2.765625,-2.4375 2.765625,-2.46875 2.765625,-2.5 c 0,-0.015625 0,-0.046875 -0.046875,-0.15625 L 0.984375,-7.25 c -0.0625,-0.171875 -0.125,-0.234375 -0.234375,-0.234375 -0.109375,0 -0.203125,0.09375 -0.203125,0.203125 0,0.03125 0,0.046875 0.046875,0.15625 L 2.359375,-2.5 0.59375,2.109375 C 0.546875,2.21875 0.546875,2.25 0.546875,2.296875 0.546875,2.40625 0.640625,2.5 0.75,2.5 0.875,2.5 0.921875,2.390625 0.953125,2.296875 Z m 0,0"
             style="stroke:none;stroke-width:0"
             inkscape:connector-curvature="0" />
        </g>
      </g>
    </g>
  </g>
</svg>
