<?xml version="1.0" encoding="UTF-8" standalone="no"?>
<!-- Created with Inkscape (http://www.inkscape.org/) -->

<svg
   version="1.1"
   id="svg12498"
   width="153.19518"
   height="27.065935"
   viewBox="0 0 153.19518 27.065935"
   sodipodi:docname="deutsch-init.svg"
   inkscape:version="1.2.1 (9c6d41e410, 2022-07-14)"
   xmlns:inkscape="http://www.inkscape.org/namespaces/inkscape"
   xmlns:sodipodi="http://sodipodi.sourceforge.net/DTD/sodipodi-0.dtd"
   xmlns="http://www.w3.org/2000/svg"
   xmlns:svg="http://www.w3.org/2000/svg">
  <defs
     id="defs12502" />
  <sodipodi:namedview
     id="namedview12500"
     pagecolor="#ffffff"
     bordercolor="#000000"
     borderopacity="0.25"
     inkscape:showpageshadow="2"
     inkscape:pageopacity="0.0"
     inkscape:pagecheckerboard="0"
     inkscape:deskcolor="#d1d1d1"
     showgrid="false"
     inkscape:zoom="8.7194474"
     inkscape:cx="76.782389"
     inkscape:cy="13.647654"
     inkscape:window-width="3840"
     inkscape:window-height="2054"
     inkscape:window-x="2869"
     inkscape:window-y="-11"
     inkscape:window-maximized="1"
     inkscape:current-layer="g12506">
    <inkscape:page
       x="0"
       y="0"
       id="page12504"
       width="153.19518"
       height="27.065935" />
  </sodipodi:namedview>
  <g
     id="g12506"
     inkscape:groupmode="layer"
     inkscape:label="Page 1"
     transform="scale(1.3333333)">
    <g
       id="g12510">
      <path
         d="M 37.746,5.098 H 53.117"
         style="fill:none;stroke:#000000;stroke-width:0.3735;stroke-linecap:butt;stroke-linejoin:miter;stroke-miterlimit:10;stroke-dasharray:none;stroke-opacity:1"
         id="path12512" />
    </g>
    <g
       id="g12514">
      <path
         d="M 53.234,1.66 H 70.285 V 18.711 H 53.234 Z"
         style="fill:none;stroke:#000000;stroke-width:0.323154;stroke-linecap:butt;stroke-linejoin:miter;stroke-miterlimit:4;stroke-dasharray:none;stroke-opacity:1"
         id="path12516" />
    </g>
    <g
       id="g12518">
      <path
         d="m 48.754,15.379 h 4.363"
         style="fill:none;stroke:#000000;stroke-width:0.3735;stroke-linecap:butt;stroke-linejoin:miter;stroke-miterlimit:10;stroke-dasharray:none;stroke-opacity:1"
         id="path12520" />
    </g>
    <path
       d="m 62.328,8.434 c 0.067,-0.246 0.172,-0.426 0.656,-0.446 0.032,0 0.106,-0.011 0.106,-0.125 0,0 0,-0.066 -0.074,-0.066 -0.203,0 -0.422,0.019 -0.621,0.019 -0.207,0 -0.438,-0.019 -0.637,-0.019 -0.039,0 -0.106,0 -0.106,0.125 0,0.066 0.059,0.066 0.106,0.066 0.351,0.008 0.418,0.133 0.418,0.266 0,0.019 -0.02,0.113 -0.02,0.125 l -0.551,2.168 c -0.199,0.82 -0.902,1.344 -1.511,1.344 -0.41,0 -0.735,-0.266 -0.735,-0.789 0,-0.012 0,-0.204 0.067,-0.469 l 0.582,-2.367 c 0.055,-0.223 0.066,-0.278 0.512,-0.278 0.164,0 0.21,0 0.21,-0.125 0,-0.066 -0.066,-0.066 -0.085,-0.066 -0.172,0 -0.61,0.019 -0.782,0.019 -0.172,0 -0.609,-0.019 -0.781,-0.019 -0.047,0 -0.113,0 -0.113,0.125 0,0.066 0.047,0.066 0.172,0.066 0.007,0 0.125,0 0.226,0.008 0.106,0.02 0.164,0.02 0.164,0.106 0,0.027 -0.066,0.285 -0.105,0.429 l -0.133,0.532 c -0.059,0.238 -0.344,1.382 -0.371,1.503 -0.039,0.164 -0.039,0.258 -0.039,0.352 0,0.734 0.551,1.164 1.191,1.164 0.762,0 1.512,-0.687 1.711,-1.488 z"
       style="fill:#000000;fill-opacity:1;fill-rule:nonzero;stroke:none"
       id="path12522" />
    <path
       d="m 64.352,11.184 h 0.406 c 0.086,0 0.144,0 0.144,-0.098 0,-0.055 -0.058,-0.055 -0.132,-0.055 h -0.391 c 0.094,-0.543 0.125,-0.734 0.16,-0.859 0.02,-0.094 0.117,-0.18 0.219,-0.18 0,0 0.117,0 0.203,0.047 -0.184,0.059 -0.191,0.211 -0.191,0.231 0,0.093 0.074,0.16 0.171,0.16 0.114,0 0.239,-0.094 0.239,-0.258 0,-0.199 -0.203,-0.305 -0.422,-0.305 -0.188,0 -0.399,0.106 -0.512,0.317 -0.086,0.16 -0.113,0.351 -0.211,0.847 h -0.332 c -0.086,0 -0.144,0 -0.144,0.094 0,0.059 0.058,0.059 0.136,0.059 h 0.313 c 0,0.027 -0.266,1.55 -0.371,2.007 -0.02,0.094 -0.094,0.411 -0.297,0.411 -0.008,0 -0.102,0 -0.188,-0.051 0.172,-0.055 0.188,-0.207 0.188,-0.227 0,-0.097 -0.074,-0.164 -0.168,-0.164 -0.117,0 -0.238,0.098 -0.238,0.258 0,0.191 0.199,0.305 0.406,0.305 0.269,0 0.457,-0.274 0.508,-0.371 0.152,-0.286 0.254,-0.809 0.265,-0.856 z"
       style="fill:#000000;fill-opacity:1;fill-rule:nonzero;stroke:none"
       id="path12524" />
    <g
       id="g12526">
      <path
         d="m 70.215,5.004 h 4.406"
         style="fill:none;stroke:#000000;stroke-width:0.3735;stroke-linecap:butt;stroke-linejoin:miter;stroke-miterlimit:10;stroke-dasharray:none;stroke-opacity:1"
         id="path12528" />
    </g>
    <g
       id="g12530">
      <path
         d="m 70.215,15.379 h 4.406"
         style="fill:none;stroke:#000000;stroke-width:0.3735;stroke-linecap:butt;stroke-linejoin:miter;stroke-miterlimit:10;stroke-dasharray:none;stroke-opacity:1"
         id="path12532" />
    </g>
    <g
       id="g12534">
      <path
         d="m 42.07,12.141 h 6.633 v 6.633 H 42.07 Z"
         style="fill:none;stroke:#000000;stroke-width:0.323154;stroke-linecap:butt;stroke-linejoin:miter;stroke-miterlimit:4;stroke-dasharray:none;stroke-opacity:1"
         id="path12536" />
    </g>
    <path
       d="m 44.445,15.082 h 1.828 l 0.297,-0.984 c 0.051,-0.188 0.078,-0.332 0.078,-0.438 0,-0.051 -0.015,-0.094 -0.046,-0.125 -0.024,-0.039 -0.059,-0.066 -0.11,-0.078 -0.054,-0.019 -0.152,-0.031 -0.297,-0.031 l 0.032,-0.11 h 1.593 l -0.031,0.11 c -0.137,-0.008 -0.234,0 -0.297,0.031 -0.094,0.043 -0.164,0.094 -0.203,0.156 -0.074,0.094 -0.141,0.258 -0.203,0.485 l -0.703,2.406 c -0.055,0.199 -0.078,0.34 -0.078,0.422 0,0.074 0.023,0.133 0.078,0.172 0.051,0.043 0.172,0.07 0.359,0.078 l -0.031,0.109 h -1.547 l 0.047,-0.109 c 0.144,0 0.242,-0.016 0.297,-0.047 0.082,-0.031 0.14,-0.07 0.172,-0.125 0.05,-0.082 0.113,-0.25 0.187,-0.5 l 0.36,-1.219 h -1.844 l -0.36,1.219 c -0.054,0.199 -0.078,0.34 -0.078,0.422 0,0.074 0.02,0.133 0.063,0.172 0.051,0.043 0.176,0.07 0.375,0.078 l -0.016,0.109 h -1.562 l 0.031,-0.109 c 0.156,0 0.258,-0.016 0.312,-0.047 0.082,-0.031 0.141,-0.07 0.172,-0.125 0.051,-0.082 0.114,-0.25 0.188,-0.5 l 0.703,-2.406 c 0.062,-0.188 0.094,-0.332 0.094,-0.438 0,-0.051 -0.016,-0.094 -0.047,-0.125 -0.024,-0.039 -0.059,-0.066 -0.11,-0.078 -0.054,-0.019 -0.156,-0.031 -0.312,-0.031 l 0.047,-0.11 h 1.562 l -0.031,0.11 c -0.137,-0.008 -0.234,0 -0.297,0.031 -0.086,0.043 -0.152,0.094 -0.203,0.156 -0.055,0.086 -0.117,0.246 -0.187,0.485 z"
       style="fill:#000000;fill-opacity:1;fill-rule:nonzero;stroke:none"
       id="path12538" />
    <path
       d="m 29.945,12.758 c 0,-0.102 0,-0.219 -0.113,-0.219 -0.125,0 -0.125,0.117 -0.125,0.219 v 5.644 c 0,0.106 0,0.219 0.125,0.219 0.113,0 0.113,-0.113 0.113,-0.219 z"
       style="fill:#000000;fill-opacity:1;fill-rule:nonzero;stroke:none"
       id="path12540" />
    <path
       d="m 32.457,13.215 c 0,-0.152 0,-0.16 -0.141,-0.16 -0.382,0.39 -0.914,0.39 -1.105,0.39 v 0.192 c 0.125,0 0.477,0 0.789,-0.164 v 3.152 c 0,0.219 -0.016,0.285 -0.559,0.285 H 31.25 v 0.188 c 0.211,-0.016 0.734,-0.016 0.98,-0.016 0.239,0 0.77,0 0.981,0.016 V 16.91 H 33.02 c -0.551,0 -0.563,-0.066 -0.563,-0.285 z"
       style="fill:#000000;fill-opacity:1;fill-rule:nonzero;stroke:none"
       id="path12542" />
    <path
       d="m 35.359,15.68 c 0.028,-0.067 0.028,-0.086 0.028,-0.102 0,-0.012 0,-0.031 -0.028,-0.098 l -1.054,-2.796 c -0.039,-0.106 -0.078,-0.145 -0.145,-0.145 -0.066,0 -0.125,0.059 -0.125,0.125 0,0.02 0,0.027 0.031,0.094 l 1.075,2.82 -1.075,2.805 c -0.031,0.066 -0.031,0.086 -0.031,0.117 0,0.066 0.059,0.121 0.125,0.121 0.078,0 0.106,-0.066 0.125,-0.121 z"
       style="fill:#000000;fill-opacity:1;fill-rule:nonzero;stroke:none"
       id="path12544" />
    <path
       d="m 29.859,2.102 c 0,-0.102 0,-0.219 -0.117,-0.219 -0.121,0 -0.121,0.117 -0.121,0.219 v 5.644 c 0,0.106 0,0.219 0.121,0.219 0.117,0 0.117,-0.113 0.117,-0.219 z"
       style="fill:#000000;fill-opacity:1;fill-rule:nonzero;stroke:none"
       id="path12546" />
    <path
       d="m 32.848,4.148 c -0.114,-0.226 -0.285,-0.39 -0.563,-0.39 -0.703,0 -1.457,0.894 -1.457,1.781 0,0.57 0.336,0.973 0.801,0.973 0.125,0 0.43,-0.032 0.789,-0.457 0.051,0.254 0.27,0.457 0.555,0.457 0.218,0 0.351,-0.145 0.457,-0.336 0.093,-0.219 0.179,-0.59 0.179,-0.598 0,-0.066 -0.058,-0.066 -0.078,-0.066 -0.054,0 -0.066,0.027 -0.082,0.113 -0.105,0.391 -0.211,0.75 -0.457,0.75 -0.172,0 -0.183,-0.16 -0.183,-0.273 0,-0.133 0.011,-0.192 0.078,-0.457 0.066,-0.25 0.074,-0.317 0.133,-0.543 l 0.218,-0.848 c 0.039,-0.172 0.039,-0.18 0.039,-0.211 0,-0.102 -0.066,-0.16 -0.172,-0.16 -0.152,0 -0.238,0.133 -0.257,0.265 z m -0.391,1.571 c -0.039,0.117 -0.039,0.125 -0.125,0.23 -0.266,0.332 -0.512,0.426 -0.684,0.426 -0.304,0 -0.39,-0.332 -0.39,-0.57 0,-0.305 0.191,-1.047 0.332,-1.332 0.191,-0.352 0.457,-0.582 0.707,-0.582 0.391,0 0.476,0.496 0.476,0.535 0,0.039 -0.011,0.074 -0.019,0.105 z"
       style="fill:#000000;fill-opacity:1;fill-rule:nonzero;stroke:none"
       id="path12548" />
    <path
       d="m 35.445,5.023 c 0.032,-0.066 0.032,-0.085 0.032,-0.101 0,-0.012 0,-0.031 -0.032,-0.098 L 34.391,2.027 C 34.352,1.922 34.313,1.883 34.246,1.883 c -0.066,0 -0.121,0.058 -0.121,0.125 0,0.019 0,0.027 0.027,0.094 l 1.075,2.82 -1.075,2.805 c -0.027,0.066 -0.027,0.086 -0.027,0.117 0,0.066 0.055,0.121 0.121,0.121 0.078,0 0.106,-0.067 0.125,-0.121 z"
       style="fill:#000000;fill-opacity:1;fill-rule:nonzero;stroke:none"
       id="path12550" />
    <path
       d="m 76.797,2.102 c 0,-0.102 0,-0.219 -0.113,-0.219 -0.125,0 -0.125,0.117 -0.125,0.219 v 5.644 c 0,0.106 0,0.219 0.125,0.219 0.113,0 0.113,-0.113 0.113,-0.219 z"
       style="fill:#000000;fill-opacity:1;fill-rule:nonzero;stroke:none"
       id="path12552" />
    <path
       d="m 79.551,4.605 c 0.035,-0.152 0.179,-0.714 0.597,-0.714 0.032,0 0.184,0 0.305,0.078 -0.172,0.039 -0.285,0.179 -0.285,0.332 0,0.097 0.066,0.211 0.23,0.211 0.133,0 0.321,-0.106 0.321,-0.352 0,-0.316 -0.352,-0.402 -0.559,-0.402 -0.351,0 -0.562,0.324 -0.64,0.457 -0.153,-0.399 -0.473,-0.457 -0.657,-0.457 -0.629,0 -0.98,0.781 -0.98,0.933 0,0.067 0.066,0.067 0.078,0.067 0.047,0 0.066,-0.02 0.074,-0.067 0.211,-0.648 0.61,-0.8 0.82,-0.8 0.114,0 0.325,0.058 0.325,0.41 0,0.191 -0.106,0.59 -0.325,1.449 -0.097,0.371 -0.316,0.625 -0.582,0.625 -0.039,0 -0.171,0 -0.304,-0.074 0.152,-0.039 0.285,-0.164 0.285,-0.332 0,-0.164 -0.133,-0.211 -0.219,-0.211 -0.187,0 -0.332,0.152 -0.332,0.351 0,0.278 0.297,0.403 0.563,0.403 0.41,0 0.629,-0.43 0.636,-0.457 0.078,0.218 0.297,0.457 0.657,0.457 0.629,0 0.972,-0.782 0.972,-0.934 0,-0.066 -0.047,-0.066 -0.066,-0.066 -0.059,0 -0.067,0.027 -0.086,0.066 -0.199,0.656 -0.609,0.797 -0.801,0.797 -0.238,0 -0.332,-0.187 -0.332,-0.398 0,-0.133 0.027,-0.266 0.094,-0.532 z"
       style="fill:#000000;fill-opacity:1;fill-rule:nonzero;stroke:none"
       id="path12554" />
    <path
       d="m 82.648,5.023 c 0.028,-0.066 0.028,-0.085 0.028,-0.101 0,-0.012 0,-0.031 -0.028,-0.098 L 81.59,2.027 C 81.551,1.922 81.516,1.883 81.449,1.883 c -0.066,0 -0.125,0.058 -0.125,0.125 0,0.019 0,0.027 0.028,0.094 l 1.078,2.82 -1.078,2.805 c -0.028,0.066 -0.028,0.086 -0.028,0.117 0,0.066 0.059,0.121 0.125,0.121 0.074,0 0.102,-0.067 0.121,-0.121 z"
       style="fill:#000000;fill-opacity:1;fill-rule:nonzero;stroke:none"
       id="path12556" />
    <path
       d="m 77.277,12.758 c 0,-0.102 0,-0.219 -0.113,-0.219 -0.125,0 -0.125,0.117 -0.125,0.219 v 5.644 c 0,0.106 0,0.219 0.125,0.219 0.113,0 0.113,-0.113 0.113,-0.219 z"
       style="fill:#000000;fill-opacity:1;fill-rule:nonzero;stroke:none"
       id="path12558" />
    <path
       d="m 80.953,14.785 c 0.027,-0.086 0.027,-0.094 0.027,-0.14 0,-0.106 -0.085,-0.165 -0.179,-0.165 -0.059,0 -0.153,0.04 -0.211,0.125 -0.008,0.04 -0.067,0.219 -0.086,0.333 -0.047,0.152 -0.086,0.324 -0.121,0.488 l -0.278,1.094 c -0.019,0.085 -0.285,0.511 -0.687,0.511 -0.301,0 -0.371,-0.265 -0.371,-0.492 0,-0.277 0.105,-0.656 0.305,-1.191 0.097,-0.246 0.125,-0.313 0.125,-0.438 0,-0.265 -0.192,-0.496 -0.497,-0.496 -0.578,0 -0.796,0.887 -0.796,0.934 0,0.066 0.054,0.066 0.066,0.066 0.066,0 0.066,-0.019 0.094,-0.113 0.172,-0.571 0.41,-0.754 0.621,-0.754 0.047,0 0.152,0 0.152,0.191 0,0.153 -0.07,0.317 -0.105,0.43 -0.25,0.648 -0.352,0.988 -0.352,1.273 0,0.543 0.379,0.727 0.742,0.727 0.239,0 0.438,-0.105 0.61,-0.277 -0.078,0.312 -0.153,0.617 -0.391,0.941 -0.164,0.199 -0.391,0.383 -0.668,0.383 -0.086,0 -0.363,-0.02 -0.465,-0.258 0.094,0 0.18,0 0.254,-0.078 0.071,-0.047 0.125,-0.133 0.125,-0.246 0,-0.192 -0.16,-0.211 -0.219,-0.211 -0.14,0 -0.343,0.098 -0.343,0.391 0,0.304 0.269,0.535 0.648,0.535 0.617,0 1.246,-0.555 1.418,-1.239 z"
       style="fill:#000000;fill-opacity:1;fill-rule:nonzero;stroke:none"
       id="path12560" />
    <path
       d="m 82.852,15.68 c 0.027,-0.067 0.027,-0.086 0.027,-0.102 0,-0.012 0,-0.031 -0.027,-0.098 l -1.059,-2.796 c -0.035,-0.106 -0.074,-0.145 -0.141,-0.145 -0.066,0 -0.125,0.059 -0.125,0.125 0,0.02 0,0.027 0.028,0.094 l 1.078,2.82 -1.078,2.805 c -0.028,0.066 -0.028,0.086 -0.028,0.117 0,0.066 0.059,0.121 0.125,0.121 0.075,0 0.106,-0.066 0.125,-0.121 z"
       style="fill:#000000;fill-opacity:1;fill-rule:nonzero;stroke:none"
       id="path12562" />
    <g
       id="g12564">
      <path
         d="m 37.746,15.379 h 4.367"
         style="fill:none;stroke:#000000;stroke-width:0.3735;stroke-linecap:butt;stroke-linejoin:miter;stroke-miterlimit:10;stroke-dasharray:none;stroke-opacity:1"
         id="path12566" />
    </g>
  </g>
</svg>
