<?xml version="1.0" encoding="UTF-8" standalone="no"?>
<!-- Created with Inkscape (http://www.inkscape.org/) -->

<svg
   xmlns:ns1="http://www.iki.fi/pav/software/textext/"
   xmlns:dc="http://purl.org/dc/elements/1.1/"
   xmlns:cc="http://creativecommons.org/ns#"
   xmlns:rdf="http://www.w3.org/1999/02/22-rdf-syntax-ns#"
   xmlns:svg="http://www.w3.org/2000/svg"
   xmlns="http://www.w3.org/2000/svg"
   xmlns:sodipodi="http://sodipodi.sourceforge.net/DTD/sodipodi-0.dtd"
   xmlns:inkscape="http://www.inkscape.org/namespaces/inkscape"
   width="124.98775mm"
   height="37.099121mm"
   viewBox="0 0 124.98775 37.099121"
   version="1.1"
   id="svg5543"
   inkscape:version="0.92.4 (5da689c313, 2019-01-14)"
   sodipodi:docname="experimento-polarizacion-4.svg">
  <defs
     id="defs5537" />
  <sodipodi:namedview
     id="base"
     pagecolor="#ffffff"
     bordercolor="#666666"
     borderopacity="1.0"
     inkscape:pageopacity="0.0"
     inkscape:pageshadow="2"
     inkscape:zoom="1.8175696"
     inkscape:cx="47.597933"
     inkscape:cy="66.302067"
     inkscape:document-units="mm"
     inkscape:current-layer="layer1"
     showgrid="true"
     fit-margin-top="0"
     fit-margin-left="0"
     fit-margin-right="0"
     fit-margin-bottom="0"
     inkscape:window-width="1920"
     inkscape:window-height="1001"
     inkscape:window-x="1911"
     inkscape:window-y="-9"
     inkscape:window-maximized="1" />
  <metadata
     id="metadata5540">
    <rdf:RDF>
      <cc:Work
         rdf:about="">
        <dc:format>image/svg+xml</dc:format>
        <dc:type
           rdf:resource="http://purl.org/dc/dcmitype/StillImage" />
        <dc:title></dc:title>
      </cc:Work>
    </rdf:RDF>
  </metadata>
  <g
     inkscape:label="Capa 1"
     inkscape:groupmode="layer"
     id="layer1"
     transform="translate(-7.5539227,-1.2839301)">
    <path
       style="fill:#333333;stroke:none;stroke-width:0.26458332px;stroke-linecap:butt;stroke-linejoin:miter;stroke-opacity:1"
       d="m 38.364583,17.864583 v 3.96875 l 92.604167,13.229167 4e-5,-30.4270833 z"
       id="path10462"
       inkscape:connector-curvature="0"
       sodipodi:nodetypes="ccccc" />
    <path
       sodipodi:nodetypes="ccccc"
       inkscape:connector-curvature="0"
       id="path10568"
       d="m 64.396006,25.552108 66.572744,9.510392 4e-5,-30.4270833 -66.449631,9.4928003 z"
       style="fill:#4d4d4d;stroke:none;stroke-width:0.26458332px;stroke-linecap:butt;stroke-linejoin:miter;stroke-opacity:1" />
    <path
       style="fill:#808080;stroke:none;stroke-width:0.26458332px;stroke-linecap:butt;stroke-linejoin:miter;stroke-opacity:1"
       d="m 87.116349,28.797871 43.852401,6.264629 4e-5,-30.4270833 -43.866364,6.2666203 z"
       id="path10570"
       inkscape:connector-curvature="0"
       sodipodi:nodetypes="ccccc" />
    <path
       sodipodi:nodetypes="ccccc"
       inkscape:connector-curvature="0"
       id="path10624"
       d="m 107.4807,31.707064 23.48805,3.355436 4e-5,-30.4270833 -23.35637,3.3366227 z"
       style="fill:#b3b3b3;stroke:none;stroke-width:0.26458332px;stroke-linecap:butt;stroke-linejoin:miter;stroke-opacity:1" />
    <rect
       style="fill:none;stroke:#000000;stroke-width:0.5;stroke-miterlimit:4;stroke-dasharray:none;stroke-dashoffset:0"
       id="rect6088"
       width="27.914827"
       height="9.3509703"
       x="7.8039227"
       y="15.128197" />
    <text
       xml:space="preserve"
       style="font-style:normal;font-weight:normal;font-size:10.58333302px;line-height:1.25;font-family:sans-serif;letter-spacing:0px;word-spacing:0px;fill:#000000;fill-opacity:1;stroke:none;stroke-width:0.26458332"
       x="10.936134"
       y="21.353012"
       id="text3603-3"><tspan
         sodipodi:role="line"
         id="tspan3601-7"
         x="10.936134"
         y="21.353012"
         style="font-size:4.93888903px;stroke-width:0.26458332">Lámpara</tspan></text>
    <rect
       style="fill:none;stroke:#000000;stroke-width:0.5;stroke-miterlimit:4;stroke-dasharray:none;stroke-dashoffset:0"
       id="rect6757"
       width="2.6458333"
       height="6.614584"
       x="35.71875"
       y="16.541666" />
    <rect
       style="fill:none;stroke:#000000;stroke-width:0.5;stroke-miterlimit:4;stroke-dasharray:none;stroke-dashoffset:0"
       id="rect10464"
       width="1.3229166"
       height="33.072918"
       x="130.96875"
       y="3.3125" />
    <rect
       y="7.2812486"
       x="64.029167"
       height="25.135418"
       width="0.79374737"
       id="rect10478"
       style="fill:#ffffff;stroke:#000000;stroke-width:0.5;stroke-miterlimit:4;stroke-dasharray:none;stroke-dashoffset:0"
       ry="0.44356471" />
    <text
       id="text10482"
       y="38.318974"
       x="52.201996"
       style="font-style:normal;font-weight:normal;font-size:10.58333302px;line-height:1.25;font-family:sans-serif;letter-spacing:0px;word-spacing:0px;fill:#000000;fill-opacity:1;stroke:none;stroke-width:0.26458332"
       xml:space="preserve"><tspan
         style="font-size:4.23333311px;stroke-width:0.26458332"
         y="38.318974"
         x="52.201996"
         id="tspan10480"
         sodipodi:role="line">Polarizador</tspan></text>
    <rect
       ry="0.44356471"
       style="fill:#ffffff;stroke:#000000;stroke-width:0.5;stroke-miterlimit:4;stroke-dasharray:none;stroke-dashoffset:0"
       id="rect10513"
       width="0.79374737"
       height="25.135418"
       x="107.15625"
       y="7.2812486" />
    <text
       xml:space="preserve"
       style="font-style:normal;font-weight:normal;font-size:10.58333302px;line-height:1.25;font-family:sans-serif;letter-spacing:0px;word-spacing:0px;fill:#000000;fill-opacity:1;stroke:none;stroke-width:0.26458332"
       x="95.888916"
       y="38.318974"
       id="text10566"><tspan
         sodipodi:role="line"
         id="tspan10564"
         x="95.888916"
         y="38.318974"
         style="font-size:4.23333311px;stroke-width:0.26458332">Polarizador</tspan></text>
    <rect
       ry="0.44356471"
       style="fill:#ffffff;stroke:#000000;stroke-width:0.5;stroke-miterlimit:4;stroke-dasharray:none;stroke-dashoffset:0"
       id="rect10572"
       width="0.79374737"
       height="25.135418"
       x="86.671181"
       y="7.2812486" />
    <g
       id="g14278"
       ns1:jacobian_sqrt="0.505601"
       inkscapeversion="0.92.4"
       ns1:alignment="middle center"
       ns1:scale="1.43320087135"
       ns1:preamble="C:\\Users\\Gonzalo\\AppData\\Roaming\\inkscape\\extensions\\textext\\default_packages.tex"
       ns1:text="$\\updownarrow$"
       ns1:pdfconverter="pdf2svg"
       ns1:texconverter="pdflatex"
       ns1:version="0.10.2"
       transform="matrix(0.505601,0,0,0.505601,-12.188069,-62.966581)">
      <g
         id="surface1">
        <g
           id="g14275"
           style="fill:#000000;fill-opacity:1">
          <path
             id="path14273"
             transform="translate(148.712,134.765)"
             d="m 2.6875,-6.3125 c 0.25,0.375 0.515625,0.65625 0.765625,0.84375 C 4.0625,-5 4.6875,-4.90625 4.6875,-4.90625 c 0.125,0 0.125,-0.109375 0.125,-0.1875 0,-0.15625 0,-0.171875 -0.234375,-0.234375 C 4.078125,-5.46875 3.640625,-5.75 3.28125,-6.125 2.765625,-6.703125 2.65625,-7.265625 2.609375,-7.59375 2.59375,-7.640625 2.546875,-7.6875 2.5,-7.6875 c -0.09375,0 -0.109375,0.0625 -0.125,0.1875 -0.1875,0.859375 -0.609375,1.296875 -0.703125,1.40625 -0.5625,0.5625 -1.03125,0.703125 -1.40625,0.796875 -0.09375,0.03125 -0.09375,0.109375 -0.09375,0.203125 0,0.078125 0,0.1875 0.125,0.1875 0.015625,0 0.609375,-0.109375 1.171875,-0.515625 0.328125,-0.25 0.609375,-0.546875 0.828125,-0.890625 v 7.640625 c -0.25,-0.375 -0.515625,-0.65625 -0.765625,-0.84375 -0.609375,-0.46875 -1.234375,-0.5625 -1.234375,-0.5625 -0.125,0 -0.125,0.109375 -0.125,0.1875 0,0.15625 0,0.171875 0.234375,0.234375 0.5,0.140625 0.921875,0.40625 1.28125,0.796875 0.515625,0.546875 0.640625,1.15625 0.6875,1.46875 0.015625,0.046875 0.046875,0.09375 0.125,0.09375 0.078125,0 0.09375,-0.078125 0.109375,-0.15625 0.21875,-1.125 0.953125,-1.90625 2.03125,-2.21875 C 4.796875,0.28125 4.8125,0.28125 4.8125,0.109375 c 0,-0.078125 0,-0.1875 -0.125,-0.1875 -0.015625,0 -0.609375,0.109375 -1.171875,0.515625 C 3.1875,0.6875 2.90625,0.984375 2.6875,1.328125 Z m 0,0"
             style="stroke:none;stroke-width:0"
             inkscape:connector-curvature="0" />
        </g>
      </g>
    </g>
    <g
       id="g14319"
       ns1:jacobian_sqrt="0.514481"
       inkscapeversion="0.92.4"
       ns1:alignment="middle center"
       ns1:scale="1.45837091205"
       ns1:preamble="C:\\Users\\Gonzalo\\AppData\\Roaming\\inkscape\\extensions\\textext\\default_packages.tex"
       ns1:text="$\\leftrightarrow$"
       ns1:pdfconverter="pdf2svg"
       ns1:texconverter="pdflatex"
       ns1:version="0.10.2"
       transform="matrix(0.514481,0,0,0.514481,28.588643,-64.157099)">
      <g
         id="g14317">
        <g
           id="g14315"
           style="fill:#000000;fill-opacity:1">
          <path
             id="path14313"
             transform="translate(148.712,134.765)"
             d="m 1.640625,-2.6875 c 0.546875,-0.421875 0.828125,-0.828125 0.90625,-0.96875 0.4375,-0.6875 0.53125,-1.3125 0.53125,-1.3125 0,-0.125 -0.125,-0.125 -0.203125,-0.125 -0.171875,0 -0.1875,0.015625 -0.21875,0.203125 C 2.421875,-3.921875 1.828125,-3.09375 0.703125,-2.625 0.59375,-2.578125 0.5625,-2.5625 0.5625,-2.5 c 0,0.078125 0.046875,0.09375 0.140625,0.140625 1.046875,0.421875 1.703125,1.203125 1.953125,2.3125 0.03125,0.125 0.046875,0.15625 0.21875,0.15625 0.078125,0 0.203125,0 0.203125,-0.125 0,-0.015625 -0.09375,-0.640625 -0.515625,-1.3125 C 2.359375,-1.625 2.078125,-1.96875 1.640625,-2.296875 H 8.3125 C 7.765625,-1.875 7.5,-1.46875 7.421875,-1.328125 c -0.453125,0.6875 -0.53125,1.3125 -0.53125,1.3125 0,0.125 0.125,0.125 0.203125,0.125 C 7.25,0.109375 7.265625,0.09375 7.3125,-0.09375 7.53125,-1.0625 8.125,-1.90625 9.25,-2.359375 9.375,-2.40625 9.40625,-2.421875 9.40625,-2.5 c 0,-0.0625 -0.0625,-0.09375 -0.078125,-0.109375 C 8.875,-2.765625 7.671875,-3.265625 7.296875,-4.9375 7.265625,-5.0625 7.25,-5.09375 7.09375,-5.09375 c -0.078125,0 -0.203125,0 -0.203125,0.125 0,0.015625 0.09375,0.640625 0.5,1.3125 0.203125,0.296875 0.5,0.640625 0.921875,0.96875 z m 0,0"
             style="stroke:none;stroke-width:0"
             inkscape:connector-curvature="0" />
        </g>
      </g>
    </g>
    <g
       transform="matrix(0.3575139,0.3575139,-0.3575139,0.3575139,80.201588,-97.436281)"
       ns1:version="0.10.2"
       ns1:texconverter="pdflatex"
       ns1:pdfconverter="pdf2svg"
       ns1:text="$\\updownarrow$"
       ns1:preamble="C:\\Users\\Gonzalo\\AppData\\Roaming\\inkscape\\extensions\\textext\\default_packages.tex"
       ns1:scale="1.43320087135"
       ns1:alignment="middle center"
       inkscapeversion="0.92.4"
       ns1:jacobian_sqrt="0.505601"
       id="g14333">
      <g
         id="g14331">
        <g
           style="fill:#000000;fill-opacity:1"
           id="g14329">
          <path
             style="stroke:none;stroke-width:0"
             d="m 2.6875,-6.3125 c 0.25,0.375 0.515625,0.65625 0.765625,0.84375 C 4.0625,-5 4.6875,-4.90625 4.6875,-4.90625 c 0.125,0 0.125,-0.109375 0.125,-0.1875 0,-0.15625 0,-0.171875 -0.234375,-0.234375 C 4.078125,-5.46875 3.640625,-5.75 3.28125,-6.125 2.765625,-6.703125 2.65625,-7.265625 2.609375,-7.59375 2.59375,-7.640625 2.546875,-7.6875 2.5,-7.6875 c -0.09375,0 -0.109375,0.0625 -0.125,0.1875 -0.1875,0.859375 -0.609375,1.296875 -0.703125,1.40625 -0.5625,0.5625 -1.03125,0.703125 -1.40625,0.796875 -0.09375,0.03125 -0.09375,0.109375 -0.09375,0.203125 0,0.078125 0,0.1875 0.125,0.1875 0.015625,0 0.609375,-0.109375 1.171875,-0.515625 0.328125,-0.25 0.609375,-0.546875 0.828125,-0.890625 v 7.640625 c -0.25,-0.375 -0.515625,-0.65625 -0.765625,-0.84375 -0.609375,-0.46875 -1.234375,-0.5625 -1.234375,-0.5625 -0.125,0 -0.125,0.109375 -0.125,0.1875 0,0.15625 0,0.171875 0.234375,0.234375 0.5,0.140625 0.921875,0.40625 1.28125,0.796875 0.515625,0.546875 0.640625,1.15625 0.6875,1.46875 0.015625,0.046875 0.046875,0.09375 0.125,0.09375 0.078125,0 0.09375,-0.078125 0.109375,-0.15625 0.21875,-1.125 0.953125,-1.90625 2.03125,-2.21875 C 4.796875,0.28125 4.8125,0.28125 4.8125,0.109375 c 0,-0.078125 0,-0.1875 -0.125,-0.1875 -0.015625,0 -0.609375,0.109375 -1.171875,0.515625 C 3.1875,0.6875 2.90625,0.984375 2.6875,1.328125 Z m 0,0"
             transform="translate(148.712,134.765)"
             id="path14327"
             inkscape:connector-curvature="0" />
        </g>
      </g>
    </g>
  </g>
</svg>
