<?xml version="1.0" encoding="UTF-8" standalone="no"?>
<!-- Created with Inkscape (http://www.inkscape.org/) -->

<svg
   xmlns:ns0="http://www.iki.fi/pav/software/textext/"
   xmlns:dc="http://purl.org/dc/elements/1.1/"
   xmlns:cc="http://creativecommons.org/ns#"
   xmlns:rdf="http://www.w3.org/1999/02/22-rdf-syntax-ns#"
   xmlns:svg="http://www.w3.org/2000/svg"
   xmlns="http://www.w3.org/2000/svg"
   xmlns:sodipodi="http://sodipodi.sourceforge.net/DTD/sodipodi-0.dtd"
   xmlns:inkscape="http://www.inkscape.org/namespaces/inkscape"
   inkscape:output_extension="org.inkscape.output.svg.inkscape"
   sodipodi:docname="protocol-teleportation.svg"
   inkscape:version="0.92.4 (5da689c313, 2019-01-14)"
   sodipodi:version="0.32"
   id="svg2"
   height="84.114143"
   width="250.49452"
   version="1.0">
  <sodipodi:namedview
     inkscape:window-height="1001"
     inkscape:window-width="1920"
     inkscape:pageshadow="2"
     inkscape:pageopacity="0.0"
     guidetolerance="1"
     gridtolerance="1"
     objecttolerance="1"
     borderopacity="1.0"
     bordercolor="#666666"
     pagecolor="#ffffff"
     id="base"
     showgrid="true"
     inkscape:zoom="3.0363401"
     inkscape:cx="133.26461"
     inkscape:cy="69.507228"
     inkscape:window-x="-9"
     inkscape:window-y="-9"
     inkscape:current-layer="svg2"
     inkscape:window-maximized="1"
     fit-margin-top="0"
     fit-margin-left="0"
     fit-margin-right="0"
     fit-margin-bottom="0"
     showguides="true"
     inkscape:guide-bbox="true">
    <inkscape:grid
       enabled="true"
       visible="true"
       id="grid2499"
       type="xygrid"
       empspacing="5"
       snapvisiblegridlinesonly="true"
       originx="-99.205392"
       originy="-32.107857"
       spacingx="1"
       spacingy="1" />
    <sodipodi:guide
       position="181.70067,1.1861461"
       orientation="0,1"
       id="guide8583"
       inkscape:locked="false" />
  </sodipodi:namedview>
  <metadata
     id="metadata2435">
    <rdf:RDF>
      <cc:Work
         rdf:about="">
        <dc:format>image/svg+xml</dc:format>
        <dc:type
           rdf:resource="http://purl.org/dc/dcmitype/StillImage" />
        <dc:title></dc:title>
      </cc:Work>
    </rdf:RDF>
  </metadata>
  <defs
     id="defs4">
    <marker
       inkscape:stockid="Arrow2Mend"
       orient="auto"
       refY="0"
       refX="0"
       id="marker4593"
       style="overflow:visible"
       inkscape:isstock="true">
      <path
         id="path4591"
         style="fill:#000000;fill-opacity:1;fill-rule:evenodd;stroke:#000000;stroke-width:0.625;stroke-linejoin:round;stroke-opacity:1"
         d="M 8.7185878,4.0337352 -2.2072895,0.01601326 8.7185884,-4.0017078 c -1.7454984,2.3720609 -1.7354408,5.6174519 -6e-7,8.035443 z"
         transform="scale(-0.6)"
         inkscape:connector-curvature="0" />
    </marker>
    <marker
       inkscape:isstock="true"
       style="overflow:visible"
       id="marker4463"
       refX="0"
       refY="0"
       orient="auto"
       inkscape:stockid="Arrow2Mend">
      <path
         inkscape:connector-curvature="0"
         transform="scale(-0.6)"
         d="M 8.7185878,4.0337352 -2.2072895,0.01601326 8.7185884,-4.0017078 c -1.7454984,2.3720609 -1.7354408,5.6174519 -6e-7,8.035443 z"
         style="fill:#000000;fill-opacity:1;fill-rule:evenodd;stroke:#000000;stroke-width:0.625;stroke-linejoin:round;stroke-opacity:1"
         id="path4461" />
    </marker>
    <marker
       inkscape:isstock="true"
       style="overflow:visible"
       id="marker4339"
       refX="0"
       refY="0"
       orient="auto"
       inkscape:stockid="Arrow2Mend"
       inkscape:collect="always">
      <path
         inkscape:connector-curvature="0"
         transform="scale(-0.6)"
         d="M 8.7185878,4.0337352 -2.2072895,0.01601326 8.7185884,-4.0017078 c -1.7454984,2.3720609 -1.7354408,5.6174519 -6e-7,8.035443 z"
         style="fill:#000000;fill-opacity:1;fill-rule:evenodd;stroke:#000000;stroke-width:0.625;stroke-linejoin:round;stroke-opacity:1"
         id="path4337" />
    </marker>
    <marker
       inkscape:isstock="true"
       style="overflow:visible"
       id="marker2930"
       refX="0"
       refY="0"
       orient="auto"
       inkscape:stockid="Arrow2Mend">
      <path
         inkscape:connector-curvature="0"
         transform="scale(-0.6)"
         d="M 8.7185878,4.0337352 -2.2072895,0.01601326 8.7185884,-4.0017078 c -1.7454984,2.3720609 -1.7354408,5.6174519 -6e-7,8.035443 z"
         style="fill:#000000;fill-opacity:1;fill-rule:evenodd;stroke:#000000;stroke-width:0.625;stroke-linejoin:round;stroke-opacity:1"
         id="path2928" />
    </marker>
    <marker
       inkscape:stockid="Arrow2Mend"
       orient="auto"
       refY="0"
       refX="0"
       id="marker2720"
       style="overflow:visible"
       inkscape:isstock="true"
       inkscape:collect="always">
      <path
         id="path2718"
         style="fill:#000000;fill-opacity:1;fill-rule:evenodd;stroke:#000000;stroke-width:0.625;stroke-linejoin:round;stroke-opacity:1"
         d="M 8.7185878,4.0337352 -2.2072895,0.01601326 8.7185884,-4.0017078 c -1.7454984,2.3720609 -1.7354408,5.6174519 -6e-7,8.035443 z"
         transform="scale(-0.6)"
         inkscape:connector-curvature="0" />
    </marker>
    <marker
       inkscape:isstock="true"
       style="overflow:visible"
       id="marker1304"
       refX="0"
       refY="0"
       orient="auto"
       inkscape:stockid="Arrow2Mend"
       inkscape:collect="always">
      <path
         inkscape:connector-curvature="0"
         transform="scale(-0.6)"
         d="M 8.7185878,4.0337352 -2.2072895,0.01601326 8.7185884,-4.0017078 c -1.7454984,2.3720609 -1.7354408,5.6174519 -6e-7,8.035443 z"
         style="fill:#000000;fill-opacity:1;fill-rule:evenodd;stroke:#000000;stroke-width:0.625;stroke-linejoin:round;stroke-opacity:1"
         id="path1302" />
    </marker>
    <inkscape:perspective
       id="perspective2437"
       inkscape:persp3d-origin="140.26631 : 20.333336 : 1"
       inkscape:vp_z="280.53262 : 30.500004 : 1"
       inkscape:vp_y="0 : 1000 : 0"
       inkscape:vp_x="0 : 30.500004 : 1"
       sodipodi:type="inkscape:persp3d" />
    <marker
       style="overflow:visible"
       id="TriangleOutM"
       orient="auto"
       refY="0"
       refX="0">
      <path
         style="fill-rule:evenodd;stroke:#000000;stroke-width:1.00000003pt;marker-start:none"
         id="path3312"
         transform="scale(0.4)"
         d="M 5.77,0 -2.88,5 V -5 Z"
         inkscape:connector-curvature="0" />
    </marker>
    <marker
       style="overflow:visible"
       id="EmptyTriangleOutM"
       orient="auto"
       refY="0"
       refX="0">
      <path
         style="fill:#ffffff;fill-rule:evenodd;stroke:#000000;stroke-width:1.00000003pt;marker-start:none"
         id="path3330"
         transform="matrix(0.4,0,0,0.4,-1.8,0)"
         d="M 5.77,0 -2.88,5 V -5 Z"
         inkscape:connector-curvature="0" />
    </marker>
    <marker
       style="overflow:visible"
       id="TriangleOutL"
       orient="auto"
       refY="0"
       refX="0">
      <path
         style="fill-rule:evenodd;stroke:#000000;stroke-width:1.00000003pt;marker-start:none"
         id="path3309"
         transform="scale(0.8)"
         d="M 5.77,0 -2.88,5 V -5 Z"
         inkscape:connector-curvature="0" />
    </marker>
    <marker
       style="overflow:visible"
       id="Arrow1Mend"
       orient="auto"
       refY="0"
       refX="0">
      <path
         style="fill-rule:evenodd;stroke:#000000;stroke-width:1.00000003pt;marker-start:none"
         id="path3175"
         transform="matrix(-0.4,0,0,-0.4,-4,0)"
         d="M 0,0 5,-5 -12.5,0 5,5 Z"
         inkscape:connector-curvature="0" />
    </marker>
    <marker
       style="overflow:visible"
       id="TriangleOutM-4"
       orient="auto"
       refY="0"
       refX="0">
      <path
         style="fill-rule:evenodd;stroke:#000000;stroke-width:1.00000003pt;marker-start:none"
         id="path3312-5"
         transform="scale(0.4)"
         d="M 5.77,0 -2.88,5 V -5 Z"
         inkscape:connector-curvature="0" />
    </marker>
    <marker
       style="overflow:visible"
       id="marker5458"
       orient="auto"
       refY="0"
       refX="0">
      <path
         style="fill-rule:evenodd;stroke:#000000;stroke-width:1.00000003pt;marker-start:none"
         id="path5460"
         transform="scale(0.4)"
         d="M 5.77,0 -2.88,5 V -5 Z"
         inkscape:connector-curvature="0" />
    </marker>
    <marker
       style="overflow:visible"
       id="marker5462"
       orient="auto"
       refY="0"
       refX="0">
      <path
         style="fill-rule:evenodd;stroke:#000000;stroke-width:1.00000003pt;marker-start:none"
         id="path5464"
         transform="scale(0.4)"
         d="M 5.77,0 -2.88,5 V -5 Z"
         inkscape:connector-curvature="0" />
    </marker>
    <marker
       style="overflow:visible"
       id="marker5466"
       orient="auto"
       refY="0"
       refX="0">
      <path
         style="fill-rule:evenodd;stroke:#000000;stroke-width:1.00000003pt;marker-start:none"
         id="path5468"
         transform="scale(0.4)"
         d="M 5.77,0 -2.88,5 V -5 Z"
         inkscape:connector-curvature="0" />
    </marker>
    <marker
       style="overflow:visible"
       id="TriangleOutM-7"
       orient="auto"
       refY="0"
       refX="0">
      <path
         style="fill-rule:evenodd;stroke:#000000;stroke-width:1.00000003pt;marker-start:none"
         id="path3312-6"
         transform="scale(0.4)"
         d="M 5.77,0 -2.88,5 V -5 Z"
         inkscape:connector-curvature="0" />
    </marker>
    <marker
       style="overflow:visible"
       id="marker5621"
       orient="auto"
       refY="0"
       refX="0">
      <path
         style="fill-rule:evenodd;stroke:#000000;stroke-width:1.00000003pt;marker-start:none"
         id="path5623"
         transform="scale(0.4)"
         d="M 5.77,0 -2.88,5 V -5 Z"
         inkscape:connector-curvature="0" />
    </marker>
    <marker
       style="overflow:visible"
       id="TriangleOutM-5"
       orient="auto"
       refY="0"
       refX="0">
      <path
         style="fill-rule:evenodd;stroke:#000000;stroke-width:1.00000003pt;marker-start:none"
         id="path3312-4"
         transform="scale(0.4)"
         d="M 5.77,0 -2.88,5 V -5 Z"
         inkscape:connector-curvature="0" />
    </marker>
    <marker
       style="overflow:visible"
       id="TriangleOutM-1"
       orient="auto"
       refY="0"
       refX="0">
      <path
         style="fill-rule:evenodd;stroke:#000000;stroke-width:1.00000003pt;marker-start:none"
         id="path3312-7"
         transform="scale(0.4)"
         d="M 5.77,0 -2.88,5 V -5 Z"
         inkscape:connector-curvature="0" />
    </marker>
    <marker
       inkscape:stockid="Arrow2Mend"
       orient="auto"
       refY="0"
       refX="0"
       id="marker883"
       style="overflow:visible"
       inkscape:isstock="true">
      <path
         id="path881"
         style="fill:#000000;fill-opacity:1;fill-rule:evenodd;stroke:#000000;stroke-width:0.625;stroke-linejoin:round;stroke-opacity:1"
         d="M 8.7185878,4.0337352 -2.2072895,0.01601326 8.7185884,-4.0017078 c -1.7454984,2.3720609 -1.7354408,5.6174519 -6e-7,8.035443 z"
         transform="scale(-0.6)"
         inkscape:connector-curvature="0" />
    </marker>
  </defs>
  <path
     sodipodi:nodetypes="ccc"
     inkscape:connector-curvature="0"
     id="path2716"
     d="m 71.956495,29.864272 -30.87502,1e-6 -0.286867,6.357729"
     style="fill:none;stroke:#000000;stroke-width:0.68015772;stroke-linecap:butt;stroke-linejoin:miter;stroke-miterlimit:4;stroke-dasharray:none;stroke-opacity:1;marker-end:url(#marker2720)" />
  <g
     style="font-style:normal;font-variant:normal;font-weight:normal;font-stretch:normal;letter-spacing:normal;word-spacing:normal;text-anchor:start;fill:none;stroke:#000000;stroke-linecap:butt;stroke-linejoin:miter;stroke-miterlimit:10.43299961;stroke-dasharray:none;stroke-dashoffset:0;stroke-opacity:1"
     id="g4030"
     transform="matrix(1,0,0,-1,-219.65868,776.04735)"
     xml:space="preserve"
     stroke-miterlimit="10.433"
     font-style="normal"
     font-variant="normal"
     font-weight="normal"
     font-stretch="normal"
     font-size-adjust="none"
     letter-spacing="normal"
     word-spacing="normal"
     ns0:text="$\\boldmath{v}\\in\\mathcal{A}_0^k$"
     ns0:preamble="" />  <rect
     width="36.342392"
     height="22.001049"
     ry="2.9327073"
     x="91.761276"
     y="61.719601"
     id="rect5562-4"
     style="fill:none;stroke:#000000;stroke-width:0.78699183;stroke-miterlimit:4;stroke-dasharray:none;stroke-dashoffset:0;stroke-opacity:1" />
  <text
     x="109.89867"
     y="71.797714"
     xml:space="preserve"
     style="font-style:normal;font-variant:normal;font-weight:normal;font-stretch:normal;line-height:0%;font-family:'Times New Roman';-inkscape-font-specification:'Times New Roman,';text-align:center;writing-mode:lr-tb;text-anchor:middle;fill:#000000;fill-opacity:1;stroke:none"
     id="text3956-0"><tspan
       sodipodi:role="line"
       id="tspan3963-4"
       x="109.89867"
       y="71.797714"
       style="font-style:normal;font-variant:normal;font-weight:normal;font-stretch:normal;font-size:8.66666698px;line-height:1;font-family:sans-serif;-inkscape-font-specification:sans-serif">Canal</tspan><tspan
       sodipodi:role="line"
       x="109.89867"
       y="80.464378"
       style="font-style:normal;font-variant:normal;font-weight:normal;font-stretch:normal;font-size:8.66666698px;line-height:1;font-family:sans-serif;-inkscape-font-specification:sans-serif"
       id="tspan1138">clásico</tspan></text>
  <path
     inkscape:connector-curvature="0"
     style="fill:none;stroke:#000000;stroke-width:0.68000001;stroke-linecap:butt;stroke-linejoin:miter;stroke-miterlimit:4;stroke-dasharray:none;stroke-opacity:1;marker-end:url(#marker4463)"
     id="path4673-1"
     d="m 128.04672,72.84105 h 67.3775 l 0.052,-29.173842"
     sodipodi:nodetypes="ccc" />
  <path
     style="fill:none;stroke:#000000;stroke-width:0.35640264;stroke-linecap:butt;stroke-linejoin:miter;stroke-miterlimit:4;stroke-dasharray:0.35640264, 0.35640264;stroke-dashoffset:0;stroke-opacity:1"
     d="m 118.33379,30.063166 h 37.83213"
     id="path13420"
     inkscape:connector-curvature="0"
     sodipodi:nodetypes="cc" />
  <path
     sodipodi:nodetypes="cscsc"
     inkscape:connector-curvature="0"
     id="path3617"
     d="m 128.85444,30.063167 c 0,0 0.5875,-4.614317 2.30716,-4.614317 1.71965,-1e-6 2.30715,4.614317 2.30715,4.614317 0,0 0.58751,4.614317 2.30717,4.614317 1.71965,0 2.30715,-4.614318 2.30715,-4.614318"
     style="fill:none;stroke:#000000;stroke-width:0.68015772;stroke-linecap:butt;stroke-linejoin:miter;stroke-miterlimit:4;stroke-dasharray:none;stroke-opacity:1" />
  <path
     style="fill:none;stroke:#000000;stroke-width:0.68015772;stroke-linecap:butt;stroke-linejoin:miter;stroke-miterlimit:4;stroke-dasharray:none;stroke-opacity:1"
     d="m 138.08307,30.063166 c 0,0 0.58751,-4.614316 2.30716,-4.614319 1.71966,0 2.30716,4.614317 2.30716,4.614317 0,0 0.58751,4.61432 2.30716,4.61432 1.71966,0 2.30716,-4.614317 2.30716,-4.614317"
     id="path3619"
     inkscape:connector-curvature="0"
     sodipodi:nodetypes="cscsc" />
  <path
     style="fill:none;stroke:#000000;stroke-width:0.68015772;stroke-linecap:butt;stroke-linejoin:miter;stroke-miterlimit:4;stroke-dasharray:none;stroke-opacity:1;marker-end:url(#marker1304)"
     d="m 146.94432,30.063174 19.79175,-1e-6"
     id="path3625"
     inkscape:connector-curvature="0"
     sodipodi:nodetypes="cc" />
  <path
     style="fill:none;stroke:#000000;stroke-width:0.68015772;stroke-linecap:butt;stroke-linejoin:miter;stroke-miterlimit:4;stroke-dasharray:none;stroke-opacity:1"
     d="m 121.93296,30.063166 6.92148,1e-6"
     id="path3627"
     inkscape:connector-curvature="0" />
  <circle
     r="8.2402878"
     cy="29.783545"
     cx="109.62965"
     style="fill:none;stroke:#000000;stroke-width:0.65286291;stroke-miterlimit:4;stroke-dasharray:none;stroke-dashoffset:0;stroke-opacity:1"
     id="path3583" />
  <path
     sodipodi:nodetypes="cc"
     inkscape:connector-curvature="0"
     id="path996"
     d="M 100.54877,30.063166 H 62.716637"
     style="fill:none;stroke:#000000;stroke-width:0.35640264;stroke-linecap:butt;stroke-linejoin:miter;stroke-miterlimit:4;stroke-dasharray:0.35640264, 0.35640264;stroke-dashoffset:0;stroke-opacity:1" />
  <path
     style="fill:none;stroke:#000000;stroke-width:0.68015772;stroke-linecap:butt;stroke-linejoin:miter;stroke-miterlimit:4;stroke-dasharray:none;stroke-opacity:1"
     d="m 90.028121,30.063167 c 0,0 -0.5875,-4.614317 -2.30716,-4.614317 -1.71965,-1e-6 -2.30715,4.614317 -2.30715,4.614317 0,0 -0.58751,4.614317 -2.30717,4.614317 -1.71965,0 -2.30715,-4.614318 -2.30715,-4.614318"
     id="path1002"
     inkscape:connector-curvature="0"
     sodipodi:nodetypes="cscsc" />
  <path
     sodipodi:nodetypes="cscsc"
     inkscape:connector-curvature="0"
     id="path1004"
     d="m 80.799491,30.063166 c 0,0 -0.58751,-4.614316 -2.30716,-4.614319 -1.71966,0 -2.30716,4.614317 -2.30716,4.614317 0,0 -0.5875,4.61432 -2.30716,4.61432 -1.719664,0 -2.307164,-4.614317 -2.307164,-4.614317"
     style="fill:none;stroke:#000000;stroke-width:0.68015772;stroke-linecap:butt;stroke-linejoin:miter;stroke-miterlimit:4;stroke-dasharray:none;stroke-opacity:1" />
  <path
     inkscape:connector-curvature="0"
     id="path1008"
     d="m 96.716091,30.063166 -6.92148,1e-6"
     style="fill:none;stroke:#000000;stroke-width:0.68015772;stroke-linecap:butt;stroke-linejoin:miter;stroke-miterlimit:4;stroke-dasharray:none;stroke-opacity:1" />
  <g
     id="g1871"
     style="stroke:#000000;stroke-opacity:1"
     ns0:jacobian_sqrt="1.0"
     inkscapeversion="0.92.4"
     ns0:alignment="middle center"
     ns0:scale="0.750000000002"
     ns0:preamble="C:\\Users\\Gonzalo\\AppData\\Roaming\\inkscape\\extensions\\textext\\default_packages.tex"
     ns0:text="$\\rho_A$"
     ns0:pdfconverter="pdf2svg"
     ns0:texconverter="pdflatex"
     ns0:version="0.10.2"
     transform="translate(-73.524421,-114.38957)">
    <g
       style="stroke:#000000;stroke-opacity:1"
       id="g1869">
      <g
         id="g1863"
         style="fill:#000000;fill-opacity:1;stroke:#000000;stroke-opacity:1">
        <path
           id="path1861"
           transform="translate(148.712,134.765)"
           d="m 0.328125,1.71875 c -0.03125,0.125 -0.03125,0.140625 -0.03125,0.171875 0,0.140625 0.109375,0.265625 0.28125,0.265625 0.203125,0 0.328125,-0.1875 0.34375,-0.21875 0.0625,-0.078125 0.375,-1.421875 0.640625,-2.5 0.203125,0.40625 0.515625,0.671875 0.984375,0.671875 C 3.71875,0.109375 5,-1.296875 5,-2.78125 c 0,-1.0625 -0.65625,-1.625 -1.375,-1.625 -0.96875,0 -2.015625,1 -2.3125,2.21875 z m 2.21875,-1.828125 C 1.84375,-0.109375 1.6875,-0.90625 1.6875,-1 c 0,-0.03125 0.046875,-0.234375 0.078125,-0.359375 0.28125,-1.125 0.375,-1.484375 0.59375,-1.875 0.4375,-0.734375 0.9375,-0.953125 1.234375,-0.953125 0.375,0 0.6875,0.296875 0.6875,0.984375 0,0.546875 -0.28125,1.65625 -0.546875,2.140625 -0.328125,0.640625 -0.8125,0.953125 -1.1875,0.953125 z m 0,0"
           style="stroke:#000000;stroke-width:0;stroke-opacity:1"
           inkscape:connector-curvature="0" />
      </g>
      <g
         id="g1867"
         style="fill:#000000;fill-opacity:1;stroke:#000000;stroke-opacity:1">
        <path
           id="path1865"
           transform="translate(153.863,136.259)"
           d="m 1.4375,-0.84375 c -0.25,0.390625 -0.46875,0.5625 -0.875,0.59375 -0.078125,0 -0.171875,0 -0.171875,0.140625 C 0.390625,-0.03125 0.453125,0 0.5,0 0.671875,0 0.90625,-0.03125 1.09375,-0.03125 1.3125,-0.03125 1.609375,0 1.8125,0 1.84375,0 1.953125,0 1.953125,-0.15625 1.953125,-0.25 1.859375,-0.25 1.828125,-0.25 1.78125,-0.265625 1.53125,-0.265625 1.53125,-0.453125 c 0,-0.09375 0.0625,-0.203125 0.09375,-0.265625 l 0.5625,-0.875 h 2 L 4.34375,-0.4375 C 4.328125,-0.359375 4.28125,-0.25 3.875,-0.25 c -0.09375,0 -0.1875,0 -0.1875,0.15625 C 3.6875,-0.0625 3.703125,0 3.796875,0 4,0 4.5,-0.03125 4.703125,-0.03125 c 0.125,0 0.28125,0.015625 0.40625,0.015625 C 5.234375,-0.015625 5.375,0 5.5,0 5.59375,0 5.640625,-0.0625 5.640625,-0.140625 5.640625,-0.25 5.5625,-0.25 5.453125,-0.25 c -0.40625,0 -0.421875,-0.0625 -0.4375,-0.21875 l -0.625,-4.3125 C 4.375,-4.921875 4.359375,-4.96875 4.234375,-4.96875 4.09375,-4.96875 4.0625,-4.90625 4,-4.8125 Z m 0.921875,-1 L 3.8125,-4.125 4.140625,-1.84375 Z m 0,0"
           style="stroke:#000000;stroke-width:0;stroke-opacity:1"
           inkscape:connector-curvature="0" />
      </g>
    </g>
  </g>
  <rect
     style="fill:none;stroke:#000000;stroke-width:0.60000002;stroke-miterlimit:4;stroke-dasharray:0.6, 0.6;stroke-dashoffset:0;stroke-opacity:1"
     id="rect1881"
     y="10.487315"
     x="0.30000001"
     ry="2.9327073"
     height="72.440681"
     width="63.024624" />
  <text
     id="text1887"
     style="font-style:normal;font-variant:normal;font-weight:normal;font-stretch:normal;font-size:10.02797413px;line-height:0%;font-family:'Times New Roman';-inkscape-font-specification:'Times New Roman,';text-align:center;writing-mode:lr-tb;text-anchor:middle;fill:#000000;fill-opacity:1;stroke:none;stroke-width:0.83566451"
     xml:space="preserve"
     y="6.5846357"
     x="18.546505"><tspan
       style="font-style:normal;font-variant:normal;font-weight:normal;font-stretch:normal;font-size:8.66666698px;line-height:1.25;font-family:sans-serif;-inkscape-font-specification:sans-serif;stroke-width:0.83566451"
       y="6.5846357"
       x="18.546505"
       id="tspan1885"
       sodipodi:role="line">Alice</tspan></text>
  <text
     x="195.37471"
     y="6.5846357"
     xml:space="preserve"
     style="font-style:normal;font-variant:normal;font-weight:normal;font-stretch:normal;font-size:10.02797413px;line-height:0%;font-family:'Times New Roman';-inkscape-font-specification:'Times New Roman,';text-align:center;writing-mode:lr-tb;text-anchor:middle;fill:#000000;fill-opacity:1;stroke:none;stroke-width:0.83566451"
     id="text1891"><tspan
       sodipodi:role="line"
       id="tspan1889"
       x="195.37471"
       y="6.5846357"
       style="font-style:normal;font-variant:normal;font-weight:normal;font-stretch:normal;font-size:8.66666698px;line-height:1.25;font-family:sans-serif;-inkscape-font-specification:sans-serif;stroke-width:0.83566451">Bob</tspan></text>
  <g
     id="g2190"
     style="stroke:#000000;stroke-opacity:1"
     ns0:jacobian_sqrt="1.0"
     inkscapeversion="0.92.4"
     ns0:alignment="middle center"
     ns0:scale="0.750000000002"
     ns0:preamble="C:\\Users\\Gonzalo\\AppData\\Roaming\\inkscape\\extensions\\textext\\default_packages.tex"
     ns0:text="$\\sigma_B$"
     ns0:pdfconverter="pdf2svg"
     ns0:texconverter="pdflatex"
     ns0:version="0.10.2"
     transform="translate(-14.266642,-114.11313)">
    <g
       style="stroke:#000000;stroke-opacity:1"
       id="g2188">
      <g
         id="g2182"
         style="fill:#000000;fill-opacity:1;stroke:#000000;stroke-opacity:1">
        <path
           id="path2180"
           transform="translate(148.712,134.765)"
           d="m 5.15625,-3.71875 c 0.140625,0 0.5,0 0.5,-0.34375 0,-0.234375 -0.21875,-0.234375 -0.390625,-0.234375 h -2.28125 c -1.5,0 -2.609375,1.640625 -2.609375,2.828125 0,0.875 0.59375,1.578125 1.5,1.578125 1.171875,0 2.5,-1.203125 2.5,-2.734375 0,-0.171875 0,-0.65625 -0.3125,-1.09375 z M 1.890625,-0.109375 C 1.390625,-0.109375 1,-0.46875 1,-1.1875 c 0,-0.296875 0.109375,-1.109375 0.46875,-1.703125 0.421875,-0.6875 1.015625,-0.828125 1.359375,-0.828125 0.828125,0 0.90625,0.65625 0.90625,0.96875 0,0.46875 -0.203125,1.28125 -0.53125,1.796875 -0.390625,0.578125 -0.9375,0.84375 -1.3125,0.84375 z m 0,0"
           style="stroke:#000000;stroke-width:0;stroke-opacity:1"
           inkscape:connector-curvature="0" />
      </g>
      <g
         id="g2186"
         style="fill:#000000;fill-opacity:1;stroke:#000000;stroke-opacity:1">
        <path
           id="path2184"
           transform="translate(154.405,136.259)"
           d="M 1.328125,-0.546875 C 1.265625,-0.3125 1.25,-0.25 0.703125,-0.25 0.59375,-0.25 0.5,-0.25 0.5,-0.109375 0.5,0 0.578125,0 0.703125,0 H 3.40625 c 1.171875,0 2.078125,-0.796875 2.078125,-1.484375 0,-0.5 -0.453125,-0.921875 -1.203125,-1 0.84375,-0.15625 1.546875,-0.6875 1.546875,-1.28125 0,-0.53125 -0.53125,-1 -1.4375,-1 h -2.53125 c -0.140625,0 -0.234375,0 -0.234375,0.15625 0,0.09375 0.09375,0.09375 0.234375,0.09375 0,0 0.140625,0 0.265625,0.015625 0.140625,0.015625 0.15625,0.03125 0.15625,0.109375 0,0 0,0.046875 -0.03125,0.140625 z m 1.109375,-2.03125 0.421875,-1.6875 c 0.0625,-0.21875 0.0625,-0.25 0.359375,-0.25 h 1.0625 c 0.703125,0 0.875,0.46875 0.875,0.734375 0,0.5625 -0.640625,1.203125 -1.578125,1.203125 z M 2.109375,-0.25 C 1.890625,-0.25 1.875,-0.265625 1.875,-0.328125 c 0,0 0,-0.03125 0.03125,-0.140625 L 2.390625,-2.375 H 3.875 c 0.640625,0 0.90625,0.4375 0.90625,0.828125 0,0.703125 -0.71875,1.296875 -1.5625,1.296875 z m 0,0"
           style="stroke:#000000;stroke-width:0;stroke-opacity:1"
           inkscape:connector-curvature="0" />
      </g>
    </g>
  </g>
  <path
     sodipodi:nodetypes="ccc"
     d="m 30.868756,69.043461 -0.07415,4.129277 h 60.637065"
     id="path2200"
     style="fill:none;stroke:#000000;stroke-width:0.68000001;stroke-linecap:butt;stroke-linejoin:miter;stroke-miterlimit:4;stroke-dasharray:none;stroke-opacity:1;marker-end:url(#marker4339)"
     inkscape:connector-curvature="0" />
  <rect
     width="51.52454"
     height="25.664549"
     ry="2.9327073"
     x="168.14206"
     y="16.983274"
     id="rect5562-4-6"
     style="fill:none;stroke:#000000;stroke-width:0.78699183;stroke-miterlimit:4;stroke-dasharray:none;stroke-dashoffset:0;stroke-opacity:1" />
  <path
     sodipodi:nodetypes="cc"
     d="m 20.408223,29.5911 v 6.630902"
     id="path2264"
     style="fill:none;stroke:#000000;stroke-width:0.68000001;stroke-linecap:butt;stroke-linejoin:miter;stroke-miterlimit:4;stroke-dasharray:none;stroke-dashoffset:0;stroke-opacity:1;marker-end:url(#marker2930)"
     inkscape:connector-curvature="0"
     inkscape:transform-center-x="0.28764648"
     inkscape:transform-center-y="0.89153868" />
  <g
     id="g2406"
     style="stroke:#000000;stroke-opacity:1"
     ns0:jacobian_sqrt="1.0"
     inkscapeversion="0.92.4"
     ns0:alignment="middle center"
     ns0:scale="0.750000000002"
     ns0:preamble="C:\\Users\\Gonzalo\\AppData\\Roaming\\inkscape\\extensions\\textext\\default_packages.tex"
     ns0:text="$\\{I,X,Y,Z\\}$"
     ns0:pdfconverter="pdf2svg"
     ns0:texconverter="pdflatex"
     ns0:version="0.10.2"
     transform="translate(20.156856,-97.871123)">
    <g
       style="stroke:#000000;stroke-opacity:1"
       id="g2404">
      <g
         id="g2370"
         style="fill:#000000;fill-opacity:1;stroke:#000000;stroke-opacity:1">
        <path
           id="path2368"
           transform="translate(148.712,134.765)"
           d="m 2.828125,-6.15625 c 0,-0.390625 0.25,-1.03125 1.34375,-1.09375 C 4.21875,-7.265625 4.25,-7.3125 4.25,-7.359375 c 0,-0.125 -0.078125,-0.125 -0.1875,-0.125 -0.984375,0 -1.90625,0.515625 -1.90625,1.25 v 2.28125 c 0,0.390625 0,0.703125 -0.40625,1.03125 -0.34375,0.296875 -0.71875,0.3125 -0.9375,0.3125 C 0.75,-2.59375 0.71875,-2.546875 0.71875,-2.5 c 0,0.109375 0.0625,0.109375 0.15625,0.125 0.65625,0.03125 1.140625,0.390625 1.25,0.875 0.03125,0.109375 0.03125,0.140625 0.03125,0.5 v 1.96875 c 0,0.421875 0,0.734375 0.46875,1.109375 C 3.015625,2.375 3.671875,2.5 4.0625,2.5 4.171875,2.5 4.25,2.5 4.25,2.375 4.25,2.28125 4.203125,2.28125 4.09375,2.265625 3.46875,2.234375 2.984375,1.90625 2.84375,1.40625 2.828125,1.3125 2.828125,1.296875 2.828125,0.9375 v -2.09375 c 0,-0.453125 -0.09375,-0.625 -0.40625,-0.953125 C 2.21875,-2.3125 1.921875,-2.40625 1.640625,-2.5 c 0.828125,-0.21875 1.1875,-0.6875 1.1875,-1.265625 z m 0,0"
           style="stroke:#000000;stroke-width:0;stroke-opacity:1"
           inkscape:connector-curvature="0" />
      </g>
      <g
         id="g2374"
         style="fill:#000000;fill-opacity:1;stroke:#000000;stroke-opacity:1">
        <path
           id="path2372"
           transform="translate(153.694,134.765)"
           d="M 3.734375,-6.046875 C 3.8125,-6.40625 3.84375,-6.5 4.640625,-6.5 c 0.234375,0 0.3125,0 0.3125,-0.1875 0,-0.125 -0.109375,-0.125 -0.140625,-0.125 -0.296875,0 -1.03125,0.03125 -1.328125,0.03125 -0.296875,0 -1.015625,-0.03125 -1.328125,-0.03125 -0.0625,0 -0.1875,0 -0.1875,0.203125 C 1.96875,-6.5 2.046875,-6.5 2.25,-6.5 c 0.40625,0 0.6875,0 0.6875,0.1875 0,0.046875 0,0.078125 -0.03125,0.15625 l -1.34375,5.375 c -0.09375,0.375 -0.109375,0.46875 -0.90625,0.46875 -0.234375,0 -0.3125,0 -0.3125,0.203125 C 0.34375,0 0.453125,0 0.484375,0 0.78125,0 1.5,-0.03125 1.796875,-0.03125 2.09375,-0.03125 2.828125,0 3.125,0 c 0.078125,0 0.203125,0 0.203125,-0.1875 0,-0.125 -0.078125,-0.125 -0.296875,-0.125 -0.1875,0 -0.234375,0 -0.421875,-0.015625 -0.21875,-0.015625 -0.25,-0.0625 -0.25,-0.171875 0,-0.078125 0.015625,-0.15625 0.03125,-0.234375 z m 0,0"
           style="stroke:#000000;stroke-width:0;stroke-opacity:1"
           inkscape:connector-curvature="0" />
      </g>
      <g
         id="g2378"
         style="fill:#000000;fill-opacity:1;stroke:#000000;stroke-opacity:1">
        <path
           id="path2376"
           transform="translate(158.85064,134.765)"
           d="m 2.03125,-0.015625 c 0,-0.65625 -0.25,-1.046875 -0.640625,-1.046875 -0.328125,0 -0.53125,0.25 -0.53125,0.53125 C 0.859375,-0.265625 1.0625,0 1.390625,0 1.5,0 1.640625,-0.046875 1.734375,-0.125 1.765625,-0.15625 1.78125,-0.15625 1.78125,-0.15625 c 0.015625,0 0.015625,0 0.015625,0.140625 0,0.75 -0.34375,1.34375 -0.671875,1.671875 -0.109375,0.109375 -0.109375,0.125 -0.109375,0.15625 0,0.078125 0.046875,0.109375 0.09375,0.109375 0.109375,0 0.921875,-0.765625 0.921875,-1.9375 z m 0,0"
           style="stroke:#000000;stroke-width:0;stroke-opacity:1"
           inkscape:connector-curvature="0" />
      </g>
      <g
         id="g2382"
         style="fill:#000000;fill-opacity:1;stroke:#000000;stroke-opacity:1">
        <path
           id="path2380"
           transform="translate(163.28201,134.765)"
           d="M 4.828125,-4.09375 4,-6.078125 c -0.03125,-0.078125 -0.046875,-0.125 -0.046875,-0.125 0,-0.0625 0.15625,-0.25 0.578125,-0.296875 0.109375,-0.015625 0.203125,-0.015625 0.203125,-0.1875 0,-0.125 -0.125,-0.125 -0.15625,-0.125 -0.40625,0 -0.828125,0.03125 -1.25,0.03125 -0.25,0 -0.859375,-0.03125 -1.109375,-0.03125 -0.0625,0 -0.1875,0 -0.1875,0.203125 C 2.03125,-6.5 2.140625,-6.5 2.265625,-6.5 c 0.59375,0 0.65625,0.09375 0.75,0.3125 l 1.171875,2.78125 -2.109375,2.265625 -0.125,0.109375 C 1.46875,-0.5 1,-0.34375 0.484375,-0.3125 c -0.125,0.015625 -0.21875,0.015625 -0.21875,0.203125 0,0.015625 0,0.109375 0.140625,0.109375 0.296875,0 0.625,-0.03125 0.921875,-0.03125 C 1.703125,-0.03125 2.09375,0 2.453125,0 2.515625,0 2.625,0 2.625,-0.203125 2.625,-0.296875 2.53125,-0.3125 2.515625,-0.3125 c -0.09375,0 -0.40625,-0.03125 -0.40625,-0.3125 0,-0.15625 0.15625,-0.3125 0.265625,-0.4375 L 3.40625,-2.140625 4.296875,-3.125 l 1,2.390625 c 0.046875,0.109375 0.0625,0.109375 0.0625,0.140625 0,0.078125 -0.203125,0.25 -0.578125,0.28125 C 4.671875,-0.296875 4.578125,-0.296875 4.578125,-0.125 4.578125,0 4.6875,0 4.71875,0 5,0 5.703125,-0.03125 5.984375,-0.03125 6.234375,-0.03125 6.84375,0 7.09375,0 c 0.0625,0 0.1875,0 0.1875,-0.1875 0,-0.125 -0.109375,-0.125 -0.1875,-0.125 -0.65625,0 -0.6875,-0.03125 -0.859375,-0.4375 C 5.859375,-1.671875 5.1875,-3.234375 4.953125,-3.828125 5.625,-4.53125 6.671875,-5.71875 7,-5.984375 7.28125,-6.234375 7.671875,-6.46875 8.265625,-6.5 c 0.125,-0.015625 0.21875,-0.015625 0.21875,-0.203125 0,0 0,-0.109375 -0.125,-0.109375 -0.296875,0 -0.640625,0.03125 -0.9375,0.03125 -0.375,0 -0.75,-0.03125 -1.109375,-0.03125 -0.0625,0 -0.1875,0 -0.1875,0.203125 0,0.0625 0.046875,0.09375 0.109375,0.109375 0.09375,0.015625 0.40625,0.03125 0.40625,0.3125 0,0.140625 -0.109375,0.265625 -0.1875,0.359375 z m 0,0"
           style="stroke:#000000;stroke-width:0;stroke-opacity:1"
           inkscape:connector-curvature="0" />
      </g>
      <g
         id="g2386"
         style="fill:#000000;fill-opacity:1;stroke:#000000;stroke-opacity:1">
        <path
           id="path2384"
           transform="translate(171.76516,134.765)"
           d="m 2.03125,-0.015625 c 0,-0.65625 -0.25,-1.046875 -0.640625,-1.046875 -0.328125,0 -0.53125,0.25 -0.53125,0.53125 C 0.859375,-0.265625 1.0625,0 1.390625,0 1.5,0 1.640625,-0.046875 1.734375,-0.125 1.765625,-0.15625 1.78125,-0.15625 1.78125,-0.15625 c 0.015625,0 0.015625,0 0.015625,0.140625 0,0.75 -0.34375,1.34375 -0.671875,1.671875 -0.109375,0.109375 -0.109375,0.125 -0.109375,0.15625 0,0.078125 0.046875,0.109375 0.09375,0.109375 0.109375,0 0.921875,-0.765625 0.921875,-1.9375 z m 0,0"
           style="stroke:#000000;stroke-width:0;stroke-opacity:1"
           inkscape:connector-curvature="0" />
      </g>
      <g
         id="g2390"
         style="fill:#000000;fill-opacity:1;stroke:#000000;stroke-opacity:1">
        <path
           id="path2388"
           transform="translate(176.19652,134.765)"
           d="M 5.953125,-5.671875 6.09375,-5.8125 C 6.390625,-6.109375 6.71875,-6.453125 7.390625,-6.5 7.5,-6.515625 7.59375,-6.515625 7.59375,-6.6875 c 0,-0.078125 -0.046875,-0.125 -0.125,-0.125 -0.265625,0 -0.546875,0.03125 -0.8125,0.03125 -0.34375,0 -0.6875,-0.03125 -1,-0.03125 -0.0625,0 -0.1875,0 -0.1875,0.1875 0,0.109375 0.09375,0.125 0.140625,0.125 0.078125,0 0.359375,0.015625 0.359375,0.234375 0,0.171875 -0.234375,0.421875 -0.265625,0.46875 L 3.390625,-3.125 2.296875,-6.09375 C 2.234375,-6.234375 2.234375,-6.25 2.234375,-6.265625 2.234375,-6.5 2.71875,-6.5 2.828125,-6.5 c 0.125,0 0.234375,0 0.234375,-0.203125 0,-0.109375 -0.125,-0.109375 -0.15625,-0.109375 -0.28125,0 -0.96875,0.03125 -1.25,0.03125 -0.25,0 -0.875,-0.03125 -1.125,-0.03125 -0.046875,0 -0.1875,0 -0.1875,0.203125 C 0.34375,-6.5 0.453125,-6.5 0.578125,-6.5 c 0.59375,0 0.640625,0.09375 0.734375,0.34375 L 2.53125,-2.875 c 0.015625,0.03125 0.046875,0.140625 0.046875,0.15625 0,0.03125 -0.40625,1.640625 -0.453125,1.828125 C 2,-0.34375 1.984375,-0.3125 1.1875,-0.3125 c -0.1875,0 -0.265625,0 -0.265625,0.203125 C 0.921875,0 1.03125,0 1.0625,0 c 0.265625,0 0.96875,-0.03125 1.25,-0.03125 0.28125,0 1,0.03125 1.28125,0.03125 0.0625,0 0.1875,0 0.1875,-0.203125 C 3.78125,-0.3125 3.6875,-0.3125 3.5,-0.3125 c -0.015625,0 -0.203125,0 -0.375,-0.015625 C 2.90625,-0.34375 2.84375,-0.375 2.84375,-0.484375 c 0,-0.078125 0.09375,-0.421875 0.140625,-0.625 l 0.359375,-1.40625 c 0.046875,-0.203125 0.0625,-0.21875 0.140625,-0.3125 z m 0,0"
           style="stroke:#000000;stroke-width:0;stroke-opacity:1"
           inkscape:connector-curvature="0" />
      </g>
      <g
         id="g2394"
         style="fill:#000000;fill-opacity:1;stroke:#000000;stroke-opacity:1">
        <path
           id="path2392"
           transform="translate(182.52875,134.765)"
           d="m 2.03125,-0.015625 c 0,-0.65625 -0.25,-1.046875 -0.640625,-1.046875 -0.328125,0 -0.53125,0.25 -0.53125,0.53125 C 0.859375,-0.265625 1.0625,0 1.390625,0 1.5,0 1.640625,-0.046875 1.734375,-0.125 1.765625,-0.15625 1.78125,-0.15625 1.78125,-0.15625 c 0.015625,0 0.015625,0 0.015625,0.140625 0,0.75 -0.34375,1.34375 -0.671875,1.671875 -0.109375,0.109375 -0.109375,0.125 -0.109375,0.15625 0,0.078125 0.046875,0.109375 0.09375,0.109375 0.109375,0 0.921875,-0.765625 0.921875,-1.9375 z m 0,0"
           style="stroke:#000000;stroke-width:0;stroke-opacity:1"
           inkscape:connector-curvature="0" />
      </g>
      <g
         id="g2398"
         style="fill:#000000;fill-opacity:1;stroke:#000000;stroke-opacity:1">
        <path
           id="path2396"
           transform="translate(186.96012,134.765)"
           d="m 7.171875,-6.5625 c 0.015625,-0.046875 0.03125,-0.09375 0.03125,-0.15625 0,-0.09375 -0.046875,-0.09375 -0.25,-0.09375 H 2.75 c -0.234375,0 -0.25,0.015625 -0.3125,0.203125 L 1.890625,-4.8125 c -0.015625,0.046875 -0.03125,0.125 -0.03125,0.140625 0,0 0,0.109375 0.125,0.109375 0.09375,0 0.109375,-0.078125 0.125,-0.109375 C 2.5,-5.84375 3.015625,-6.5 4.5625,-6.5 h 1.625 L 0.625,-0.265625 c 0,0 -0.046875,0.140625 -0.046875,0.171875 C 0.578125,0 0.640625,0 0.828125,0 H 5.15625 c 0.25,0 0.25,-0.015625 0.3125,-0.203125 L 6.1875,-2.40625 c 0,-0.03125 0.03125,-0.109375 0.03125,-0.140625 0,-0.0625 -0.03125,-0.109375 -0.125,-0.109375 -0.09375,0 -0.109375,0.03125 -0.171875,0.25 C 5.484375,-1.0625 5,-0.34375 3.3125,-0.34375 H 1.609375 Z m 0,0"
           style="stroke:#000000;stroke-width:0;stroke-opacity:1"
           inkscape:connector-curvature="0" />
      </g>
      <g
         id="g2402"
         style="fill:#000000;fill-opacity:1;stroke:#000000;stroke-opacity:1">
        <path
           id="path2400"
           transform="translate(194.471,134.765)"
           d="m 2.15625,1.171875 c 0,0.390625 -0.265625,1.03125 -1.34375,1.09375 C 0.75,2.28125 0.71875,2.328125 0.71875,2.375 0.71875,2.5 0.828125,2.5 0.921875,2.5 1.890625,2.5 2.8125,2 2.828125,1.25 v -2.28125 c 0,-0.390625 0,-0.703125 0.390625,-1.03125 C 3.5625,-2.359375 3.953125,-2.375 4.171875,-2.375 4.21875,-2.390625 4.25,-2.4375 4.25,-2.5 4.25,-2.59375 4.203125,-2.59375 4.09375,-2.609375 3.4375,-2.640625 2.953125,-3 2.84375,-3.484375 2.828125,-3.59375 2.828125,-3.625 2.828125,-3.984375 v -1.96875 c 0,-0.421875 0,-0.734375 -0.484375,-1.109375 C 1.9375,-7.375 1.25,-7.484375 0.921875,-7.484375 c -0.09375,0 -0.203125,0 -0.203125,0.125 0,0.09375 0.0625,0.09375 0.15625,0.109375 0.625,0.03125 1.125,0.359375 1.25,0.859375 0.03125,0.09375 0.03125,0.109375 0.03125,0.46875 v 2.09375 c 0,0.453125 0.078125,0.625 0.390625,0.953125 0.21875,0.203125 0.5,0.296875 0.78125,0.375 -0.8125,0.234375 -1.171875,0.703125 -1.171875,1.28125 z m 0,0"
           style="stroke:#000000;stroke-width:0;stroke-opacity:1"
           inkscape:connector-curvature="0" />
      </g>
    </g>
  </g>
  <text
     x="192.83844"
     y="26.998091"
     xml:space="preserve"
     style="font-style:normal;font-variant:normal;font-weight:normal;font-stretch:normal;font-size:10.02797413px;line-height:0%;font-family:'Times New Roman';-inkscape-font-specification:'Times New Roman,';text-align:center;writing-mode:lr-tb;text-anchor:middle;fill:#000000;fill-opacity:1;stroke:none;stroke-width:0.83566451"
     id="text2432"><tspan
       sodipodi:role="line"
       id="tspan2430"
       x="192.83844"
       y="26.998091"
       style="font-style:normal;font-variant:normal;font-weight:normal;font-stretch:normal;font-size:8.66666698px;line-height:1.25;font-family:sans-serif;-inkscape-font-specification:sans-serif;stroke-width:0.83566451">Pauli</tspan></text>
  <path
     inkscape:connector-curvature="0"
     style="fill:none;stroke:#000000;stroke-width:0.68000001;stroke-linecap:butt;stroke-linejoin:miter;stroke-miterlimit:4;stroke-dasharray:none;stroke-opacity:1;marker-end:url(#marker4593)"
     id="path4155"
     d="m 219.79461,30.280511 h 8.48345"
     sodipodi:nodetypes="cc" />
  <rect
     width="94.39991"
     height="72.734688"
     ry="2.9327073"
     x="155.79462"
     y="10.487315"
     id="rect5652"
     style="fill:none;stroke:#000000;stroke-width:0.60000002;stroke-miterlimit:4;stroke-dasharray:0.6, 0.6;stroke-dashoffset:0;stroke-opacity:1" />
  <text
     id="text5718"
     style="font-style:normal;font-variant:normal;font-weight:normal;font-stretch:normal;line-height:0%;font-family:'Times New Roman';-inkscape-font-specification:'Times New Roman,';text-align:center;writing-mode:lr-tb;text-anchor:middle;fill:#000000;fill-opacity:1;stroke:none"
     xml:space="preserve"
     y="14.773151"
     x="109.53979"><tspan
       id="tspan5716"
       style="font-style:normal;font-variant:normal;font-weight:normal;font-stretch:normal;font-size:8.66666698px;line-height:1;font-family:sans-serif;-inkscape-font-specification:sans-serif"
       y="14.773151"
       x="109.53979"
       sodipodi:role="line">Fuente</tspan></text>
  <g
     id="g6102"
     style="stroke:#000000;stroke-opacity:1"
     ns0:jacobian_sqrt="1.00920612364"
     inkscapeversion="0.92.4"
     ns0:alignment="middle center"
     ns0:scale="0.756904629893"
     ns0:preamble="C:\\Users\\Gonzalo\\AppData\\Roaming\\inkscape\\extensions\\textext\\default_packages.tex"
     ns0:text="$\\mu_B$"
     ns0:pdfconverter="pdf2svg"
     ns0:texconverter="pdflatex"
     ns0:version="0.10.2"
     transform="matrix(1.018497,0,0,1,80.151031,-102.95575)">
    <g
       style="stroke:#000000;stroke-opacity:1"
       id="g6100">
      <g
         id="g6094"
         style="fill:#000000;fill-opacity:1;stroke:#000000;stroke-opacity:1">
        <path
           id="path6092"
           transform="translate(148.712,134.765)"
           d="m 2.296875,-3.5 c 0.0625,-0.203125 0.15625,-0.59375 0.15625,-0.640625 0,-0.171875 -0.125,-0.265625 -0.296875,-0.265625 -0.015625,0 -0.296875,0.015625 -0.390625,0.359375 l -1.4375,5.765625 c -0.03125,0.125 -0.03125,0.140625 -0.03125,0.171875 0,0.140625 0.109375,0.265625 0.28125,0.265625 0.203125,0 0.328125,-0.1875 0.34375,-0.21875 C 0.96875,1.859375 1.09375,1.328125 1.46875,-0.203125 1.796875,0.0625 2.25,0.109375 2.4375,0.109375 c 0.703125,0 1.09375,-0.453125 1.328125,-0.734375 0.09375,0.453125 0.46875,0.734375 0.90625,0.734375 0.34375,0 0.578125,-0.234375 0.734375,-0.546875 0.171875,-0.359375 0.296875,-0.96875 0.296875,-0.984375 0,-0.109375 -0.09375,-0.109375 -0.125,-0.109375 -0.09375,0 -0.109375,0.046875 -0.140625,0.1875 -0.15625,0.640625 -0.34375,1.234375 -0.75,1.234375 -0.265625,0 -0.296875,-0.265625 -0.296875,-0.453125 0,-0.21875 0.109375,-0.6875 0.1875,-1.046875 L 4.859375,-2.6875 C 4.890625,-2.828125 5,-3.203125 5.03125,-3.359375 5.078125,-3.59375 5.1875,-3.96875 5.1875,-4.03125 c 0,-0.171875 -0.140625,-0.265625 -0.296875,-0.265625 -0.046875,0 -0.3125,0.015625 -0.390625,0.34375 l -0.46875,1.875 c -0.109375,0.5 -0.21875,0.90625 -0.25,1.015625 -0.015625,0.046875 -0.484375,0.953125 -1.296875,0.953125 -0.5,0 -0.734375,-0.328125 -0.734375,-0.875 0,-0.28125 0.0625,-0.5625 0.140625,-0.84375 z m 0,0"
           style="stroke:#000000;stroke-width:0;stroke-opacity:1"
           inkscape:connector-curvature="0" />
      </g>
      <g
         id="g6098"
         style="fill:#000000;fill-opacity:1;stroke:#000000;stroke-opacity:1">
        <path
           id="path6096"
           transform="translate(154.715,136.259)"
           d="M 1.328125,-0.546875 C 1.265625,-0.3125 1.25,-0.25 0.703125,-0.25 0.59375,-0.25 0.5,-0.25 0.5,-0.109375 0.5,0 0.578125,0 0.703125,0 H 3.40625 c 1.171875,0 2.078125,-0.796875 2.078125,-1.484375 0,-0.5 -0.453125,-0.921875 -1.203125,-1 0.84375,-0.15625 1.546875,-0.6875 1.546875,-1.28125 0,-0.53125 -0.53125,-1 -1.4375,-1 h -2.53125 c -0.140625,0 -0.234375,0 -0.234375,0.15625 0,0.09375 0.09375,0.09375 0.234375,0.09375 0,0 0.140625,0 0.265625,0.015625 0.140625,0.015625 0.15625,0.03125 0.15625,0.109375 0,0 0,0.046875 -0.03125,0.140625 z m 1.109375,-2.03125 0.421875,-1.6875 c 0.0625,-0.21875 0.0625,-0.25 0.359375,-0.25 h 1.0625 c 0.703125,0 0.875,0.46875 0.875,0.734375 0,0.5625 -0.640625,1.203125 -1.578125,1.203125 z M 2.109375,-0.25 C 1.890625,-0.25 1.875,-0.265625 1.875,-0.328125 c 0,0 0,-0.03125 0.03125,-0.140625 L 2.390625,-2.375 H 3.875 c 0.640625,0 0.90625,0.4375 0.90625,0.828125 0,0.703125 -0.71875,1.296875 -1.5625,1.296875 z m 0,0"
           style="stroke:#000000;stroke-width:0;stroke-opacity:1"
           inkscape:connector-curvature="0" />
      </g>
    </g>
  </g>
  <rect
     style="fill:none;stroke:#000000;stroke-width:0.78699183;stroke-miterlimit:4;stroke-dasharray:none;stroke-dashoffset:0;stroke-opacity:1"
     id="rect6118"
     y="37.580448"
     x="11.036736"
     ry="2.9327073"
     height="31.54215"
     width="39.466255" />
  <text
     id="text6122"
     style="font-style:normal;font-variant:normal;font-weight:normal;font-stretch:normal;font-size:10.02797413px;line-height:0%;font-family:'Times New Roman';-inkscape-font-specification:'Times New Roman,';text-align:center;writing-mode:lr-tb;text-anchor:middle;fill:#000000;fill-opacity:1;stroke:none;stroke-width:0.83566451"
     xml:space="preserve"
     y="50.924149"
     x="30.767021"><tspan
       style="font-style:normal;font-variant:normal;font-weight:normal;font-stretch:normal;font-size:8.66666698px;line-height:1.25;font-family:sans-serif;-inkscape-font-specification:sans-serif;stroke-width:0.83566451"
       y="50.924149"
       x="30.767021"
       id="tspan6120"
       sodipodi:role="line">POVM</tspan></text>
  <g
     transform="translate(-130.04002,-74.599498)"
     ns0:version="0.10.2"
     ns0:texconverter="pdflatex"
     ns0:pdfconverter="pdf2svg"
     ns0:text="$\\{\\Pi_m\\}$"
     ns0:preamble="C:\\Users\\Gonzalo\\AppData\\Roaming\\inkscape\\extensions\\textext\\default_packages.tex"
     ns0:scale="0.750000000002"
     ns0:alignment="middle center"
     inkscapeversion="0.92.4"
     ns0:jacobian_sqrt="1.0"
     style="stroke:#000000;stroke-opacity:1"
     id="g6142">
    <g
       id="g6140"
       style="stroke:#000000;stroke-opacity:1">
      <g
         style="fill:#000000;fill-opacity:1;stroke:#000000;stroke-opacity:1"
         id="g6126">
        <path
           inkscape:connector-curvature="0"
           style="stroke:#000000;stroke-width:0;stroke-opacity:1"
           d="m 2.828125,-6.15625 c 0,-0.390625 0.25,-1.03125 1.34375,-1.09375 C 4.21875,-7.265625 4.25,-7.3125 4.25,-7.359375 c 0,-0.125 -0.078125,-0.125 -0.1875,-0.125 -0.984375,0 -1.90625,0.515625 -1.90625,1.25 v 2.28125 c 0,0.390625 0,0.703125 -0.40625,1.03125 -0.34375,0.296875 -0.71875,0.3125 -0.9375,0.3125 C 0.75,-2.59375 0.71875,-2.546875 0.71875,-2.5 c 0,0.109375 0.0625,0.109375 0.15625,0.125 0.65625,0.03125 1.140625,0.390625 1.25,0.875 0.03125,0.109375 0.03125,0.140625 0.03125,0.5 v 1.96875 c 0,0.421875 0,0.734375 0.46875,1.109375 C 3.015625,2.375 3.671875,2.5 4.0625,2.5 4.171875,2.5 4.25,2.5 4.25,2.375 4.25,2.28125 4.203125,2.28125 4.09375,2.265625 3.46875,2.234375 2.984375,1.90625 2.84375,1.40625 2.828125,1.3125 2.828125,1.296875 2.828125,0.9375 v -2.09375 c 0,-0.453125 -0.09375,-0.625 -0.40625,-0.953125 C 2.21875,-2.3125 1.921875,-2.40625 1.640625,-2.5 c 0.828125,-0.21875 1.1875,-0.6875 1.1875,-1.265625 z m 0,0"
           transform="translate(148.712,134.765)"
           id="path6124" />
      </g>
      <g
         style="fill:#000000;fill-opacity:1;stroke:#000000;stroke-opacity:1"
         id="g6130">
        <path
           inkscape:connector-curvature="0"
           style="stroke:#000000;stroke-width:0;stroke-opacity:1"
           d="m 6.109375,-6 c 0,-0.359375 0.015625,-0.46875 0.78125,-0.46875 h 0.25 v -0.3125 h -6.8125 v 0.3125 H 0.5625 c 0.765625,0 0.796875,0.109375 0.796875,0.46875 v 5.21875 c 0,0.359375 -0.03125,0.46875 -0.796875,0.46875 H 0.328125 V 0 c 0.34375,-0.03125 1.09375,-0.03125 1.46875,-0.03125 0.375,0 1.125,0 1.46875,0.03125 V -0.3125 H 3.03125 C 2.265625,-0.3125 2.25,-0.421875 2.25,-0.78125 v -5.6875 h 2.96875 v 5.6875 c 0,0.359375 -0.015625,0.46875 -0.78125,0.46875 H 4.203125 V 0 c 0.34375,-0.03125 1.078125,-0.03125 1.453125,-0.03125 0.390625,0 1.125,0 1.484375,0.03125 v -0.3125 h -0.25 c -0.765625,0 -0.78125,-0.109375 -0.78125,-0.46875 z m 0,0"
           transform="translate(153.694,134.765)"
           id="path6128" />
      </g>
      <g
         style="fill:#000000;fill-opacity:1;stroke:#000000;stroke-opacity:1"
         id="g6134">
        <path
           inkscape:connector-curvature="0"
           style="stroke:#000000;stroke-width:0;stroke-opacity:1"
           d="m 3.03125,-0.5625 c -0.046875,0.140625 -0.109375,0.375 -0.109375,0.40625 0,0.15625 0.125,0.21875 0.234375,0.21875 0.140625,0 0.25,-0.078125 0.28125,-0.140625 0.03125,-0.0625 0.09375,-0.296875 0.125,-0.4375 0.03125,-0.125 0.109375,-0.453125 0.15625,-0.625 0.03125,-0.15625 0.078125,-0.3125 0.109375,-0.46875 0.078125,-0.296875 0.078125,-0.3125 0.21875,-0.53125 C 4.265625,-2.484375 4.625,-2.875 5.15625,-2.875 c 0.390625,0 0.421875,0.3125 0.421875,0.484375 0,0.421875 -0.296875,1.1875 -0.421875,1.484375 -0.0625,0.203125 -0.09375,0.265625 -0.09375,0.375 0,0.375 0.296875,0.59375 0.65625,0.59375 0.703125,0 1,-0.953125 1,-1.0625 0,-0.09375 -0.078125,-0.09375 -0.109375,-0.09375 -0.09375,0 -0.09375,0.046875 -0.125,0.125 C 6.328125,-0.40625 6.015625,-0.125 5.75,-0.125 c -0.15625,0 -0.1875,-0.09375 -0.1875,-0.25 0,-0.15625 0.046875,-0.25 0.171875,-0.5625 0.078125,-0.21875 0.359375,-0.953125 0.359375,-1.34375 0,-0.109375 0,-0.40625 -0.25,-0.609375 -0.125,-0.078125 -0.328125,-0.1875 -0.65625,-0.1875 -0.625,0 -1,0.421875 -1.234375,0.703125 C 3.90625,-2.96875 3.40625,-3.078125 3.046875,-3.078125 2.46875,-3.078125 2.078125,-2.71875 1.875,-2.4375 1.828125,-2.921875 1.421875,-3.078125 1.125,-3.078125 c -0.296875,0 -0.453125,0.21875 -0.546875,0.375 -0.15625,0.265625 -0.25,0.65625 -0.25,0.703125 0,0.078125 0.09375,0.078125 0.125,0.078125 0.09375,0 0.09375,-0.015625 0.140625,-0.203125 0.109375,-0.40625 0.25,-0.75 0.515625,-0.75 0.1875,0 0.234375,0.15625 0.234375,0.34375 0,0.125 -0.0625,0.390625 -0.125,0.578125 -0.046875,0.1875 -0.109375,0.46875 -0.140625,0.625 L 0.84375,-0.4375 c -0.015625,0.09375 -0.0625,0.265625 -0.0625,0.28125 0,0.15625 0.125,0.21875 0.234375,0.21875 0.125,0 0.234375,-0.078125 0.28125,-0.140625 0.03125,-0.0625 0.078125,-0.296875 0.125,-0.4375 0.03125,-0.125 0.109375,-0.453125 0.140625,-0.625 0.046875,-0.15625 0.09375,-0.3125 0.125,-0.46875 0.078125,-0.28125 0.09375,-0.34375 0.296875,-0.625 C 2.171875,-2.515625 2.5,-2.875 3.03125,-2.875 c 0.390625,0 0.40625,0.359375 0.40625,0.484375 0,0.171875 -0.015625,0.265625 -0.125,0.65625 z m 0,0"
           transform="translate(161.166,136.259)"
           id="path6132" />
      </g>
      <g
         style="fill:#000000;fill-opacity:1;stroke:#000000;stroke-opacity:1"
         id="g6138">
        <path
           inkscape:connector-curvature="0"
           style="stroke:#000000;stroke-width:0;stroke-opacity:1"
           d="m 2.15625,1.171875 c 0,0.390625 -0.265625,1.03125 -1.34375,1.09375 C 0.75,2.28125 0.71875,2.328125 0.71875,2.375 0.71875,2.5 0.828125,2.5 0.921875,2.5 1.890625,2.5 2.8125,2 2.828125,1.25 v -2.28125 c 0,-0.390625 0,-0.703125 0.390625,-1.03125 C 3.5625,-2.359375 3.953125,-2.375 4.171875,-2.375 4.21875,-2.390625 4.25,-2.4375 4.25,-2.5 4.25,-2.59375 4.203125,-2.59375 4.09375,-2.609375 3.4375,-2.640625 2.953125,-3 2.84375,-3.484375 2.828125,-3.59375 2.828125,-3.625 2.828125,-3.984375 v -1.96875 c 0,-0.421875 0,-0.734375 -0.484375,-1.109375 C 1.9375,-7.375 1.25,-7.484375 0.921875,-7.484375 c -0.09375,0 -0.203125,0 -0.203125,0.125 0,0.09375 0.0625,0.09375 0.15625,0.109375 0.625,0.03125 1.125,0.359375 1.25,0.859375 0.03125,0.09375 0.03125,0.109375 0.03125,0.46875 v 2.09375 c 0,0.453125 0.078125,0.625 0.390625,0.953125 0.21875,0.203125 0.5,0.296875 0.78125,0.375 -0.8125,0.234375 -1.171875,0.703125 -1.171875,1.28125 z m 0,0"
           transform="translate(168.733,134.765)"
           id="path6136" />
      </g>
    </g>
  </g>
  <g
     id="g8402"
     style="stroke:#000000;stroke-opacity:1"
     ns0:jacobian_sqrt="1.0"
     inkscapeversion="0.92.4"
     ns0:alignment="middle center"
     ns0:scale="0.750000000002"
     ns0:preamble="C:\\Users\\Gonzalo\\AppData\\Roaming\\inkscape\\extensions\\textext\\default_packages.tex"
     ns0:text="$m$"
     ns0:pdfconverter="pdf2svg"
     ns0:texconverter="pdflatex"
     ns0:version="0.10.2"
     transform="translate(50.920542,-81.074248)">
    <g
       style="stroke:#000000;stroke-opacity:1"
       id="surface1">
      <g
         id="g8399"
         style="fill:#000000;fill-opacity:1;stroke:#000000;stroke-opacity:1">
        <path
           id="path8397"
           transform="translate(148.712,134.765)"
           d="m 0.875,-0.59375 c -0.03125,0.15625 -0.09375,0.390625 -0.09375,0.4375 0,0.171875 0.140625,0.265625 0.296875,0.265625 0.125,0 0.296875,-0.078125 0.375,-0.28125 0,-0.015625 0.125,-0.484375 0.1875,-0.734375 l 0.21875,-0.890625 C 1.90625,-2.03125 1.96875,-2.25 2.03125,-2.46875 c 0.03125,-0.171875 0.109375,-0.46875 0.125,-0.5 0.140625,-0.3125 0.671875,-1.21875 1.625,-1.21875 0.453125,0 0.53125,0.375 0.53125,0.703125 0,0.25 -0.0625,0.53125 -0.140625,0.828125 L 3.890625,-1.5 3.6875,-0.75 c -0.03125,0.203125 -0.125,0.546875 -0.125,0.59375 0,0.171875 0.140625,0.265625 0.28125,0.265625 0.3125,0 0.375,-0.25 0.453125,-0.5625 0.140625,-0.5625 0.515625,-2.015625 0.59375,-2.40625 0.03125,-0.125 0.5625,-1.328125 1.65625,-1.328125 0.421875,0 0.53125,0.34375 0.53125,0.703125 0,0.5625 -0.421875,1.703125 -0.625,2.234375 -0.078125,0.234375 -0.125,0.34375 -0.125,0.546875 0,0.46875 0.34375,0.8125 0.8125,0.8125 0.9375,0 1.3125,-1.453125 1.3125,-1.53125 0,-0.109375 -0.09375,-0.109375 -0.125,-0.109375 -0.09375,0 -0.09375,0.03125 -0.140625,0.1875 -0.15625,0.53125 -0.46875,1.234375 -1.015625,1.234375 -0.171875,0 -0.25,-0.09375 -0.25,-0.328125 0,-0.25 0.09375,-0.484375 0.1875,-0.703125 0.1875,-0.53125 0.609375,-1.625 0.609375,-2.203125 0,-0.640625 -0.40625,-1.0625 -1.15625,-1.0625 -0.734375,0 -1.25,0.4375 -1.625,0.96875 0,-0.125 -0.03125,-0.46875 -0.3125,-0.703125 -0.25,-0.21875 -0.5625,-0.265625 -0.8125,-0.265625 -0.90625,0 -1.390625,0.640625 -1.5625,0.875 -0.046875,-0.578125 -0.46875,-0.875 -0.921875,-0.875 -0.453125,0 -0.640625,0.390625 -0.734375,0.5625 -0.171875,0.359375 -0.296875,0.9375 -0.296875,0.96875 0,0.109375 0.09375,0.109375 0.109375,0.109375 0.109375,0 0.109375,-0.015625 0.171875,-0.234375 0.171875,-0.703125 0.375,-1.1875 0.734375,-1.1875 0.15625,0 0.296875,0.078125 0.296875,0.453125 0,0.21875 -0.03125,0.328125 -0.15625,0.84375 z m 0,0"
           style="stroke:#000000;stroke-width:0;stroke-opacity:1"
           inkscape:connector-curvature="0" />
      </g>
    </g>
  </g>
  <g
     id="g8573"
     style="stroke:#000000;stroke-opacity:1"
     ns0:jacobian_sqrt="1.0"
     inkscapeversion="0.92.4"
     ns0:alignment="middle center"
     ns0:scale="0.750000000002"
     ns0:preamble="C:\\Users\\Gonzalo\\AppData\\Roaming\\inkscape\\extensions\\textext\\default_packages.tex"
     ns0:text="$\\mu_A$"
     ns0:pdfconverter="pdf2svg"
     ns0:texconverter="pdflatex"
     ns0:version="0.10.2"
     transform="translate(-134.21017,-107.6845)">
    <g
       style="stroke:#000000;stroke-opacity:1"
       id="g8571">
      <g
         id="g8565"
         style="fill:#000000;fill-opacity:1;stroke:#000000;stroke-opacity:1">
        <path
           id="path8563"
           transform="translate(148.712,134.765)"
           d="m 2.296875,-3.5 c 0.0625,-0.203125 0.15625,-0.59375 0.15625,-0.640625 0,-0.171875 -0.125,-0.265625 -0.296875,-0.265625 -0.015625,0 -0.296875,0.015625 -0.390625,0.359375 l -1.4375,5.765625 c -0.03125,0.125 -0.03125,0.140625 -0.03125,0.171875 0,0.140625 0.109375,0.265625 0.28125,0.265625 0.203125,0 0.328125,-0.1875 0.34375,-0.21875 C 0.96875,1.859375 1.09375,1.328125 1.46875,-0.203125 1.796875,0.0625 2.25,0.109375 2.4375,0.109375 c 0.703125,0 1.09375,-0.453125 1.328125,-0.734375 0.09375,0.453125 0.46875,0.734375 0.90625,0.734375 0.34375,0 0.578125,-0.234375 0.734375,-0.546875 0.171875,-0.359375 0.296875,-0.96875 0.296875,-0.984375 0,-0.109375 -0.09375,-0.109375 -0.125,-0.109375 -0.09375,0 -0.109375,0.046875 -0.140625,0.1875 -0.15625,0.640625 -0.34375,1.234375 -0.75,1.234375 -0.265625,0 -0.296875,-0.265625 -0.296875,-0.453125 0,-0.21875 0.109375,-0.6875 0.1875,-1.046875 L 4.859375,-2.6875 C 4.890625,-2.828125 5,-3.203125 5.03125,-3.359375 5.078125,-3.59375 5.1875,-3.96875 5.1875,-4.03125 c 0,-0.171875 -0.140625,-0.265625 -0.296875,-0.265625 -0.046875,0 -0.3125,0.015625 -0.390625,0.34375 l -0.46875,1.875 c -0.109375,0.5 -0.21875,0.90625 -0.25,1.015625 -0.015625,0.046875 -0.484375,0.953125 -1.296875,0.953125 -0.5,0 -0.734375,-0.328125 -0.734375,-0.875 0,-0.28125 0.0625,-0.5625 0.140625,-0.84375 z m 0,0"
           style="stroke:#000000;stroke-width:0;stroke-opacity:1"
           inkscape:connector-curvature="0" />
      </g>
      <g
         id="g8569"
         style="fill:#000000;fill-opacity:1;stroke:#000000;stroke-opacity:1">
        <path
           id="path8567"
           transform="translate(154.715,136.259)"
           d="m 1.4375,-0.84375 c -0.25,0.390625 -0.46875,0.5625 -0.875,0.59375 -0.078125,0 -0.171875,0 -0.171875,0.140625 C 0.390625,-0.03125 0.453125,0 0.5,0 0.671875,0 0.90625,-0.03125 1.09375,-0.03125 1.3125,-0.03125 1.609375,0 1.8125,0 1.84375,0 1.953125,0 1.953125,-0.15625 1.953125,-0.25 1.859375,-0.25 1.828125,-0.25 1.78125,-0.265625 1.53125,-0.265625 1.53125,-0.453125 c 0,-0.09375 0.0625,-0.203125 0.09375,-0.265625 l 0.5625,-0.875 h 2 L 4.34375,-0.4375 C 4.328125,-0.359375 4.28125,-0.25 3.875,-0.25 c -0.09375,0 -0.1875,0 -0.1875,0.15625 C 3.6875,-0.0625 3.703125,0 3.796875,0 4,0 4.5,-0.03125 4.703125,-0.03125 c 0.125,0 0.28125,0.015625 0.40625,0.015625 C 5.234375,-0.015625 5.375,0 5.5,0 5.59375,0 5.640625,-0.0625 5.640625,-0.140625 5.640625,-0.25 5.5625,-0.25 5.453125,-0.25 c -0.40625,0 -0.421875,-0.0625 -0.4375,-0.21875 l -0.625,-4.3125 C 4.375,-4.921875 4.359375,-4.96875 4.234375,-4.96875 4.09375,-4.96875 4.0625,-4.90625 4,-4.8125 Z m 0.921875,-1 L 3.8125,-4.125 4.140625,-1.84375 Z m 0,0"
           style="stroke:#000000;stroke-width:0;stroke-opacity:1"
           inkscape:connector-curvature="0" />
      </g>
    </g>
  </g>
  <g
     transform="translate(-122.402,-54.368962)"
     ns0:version="0.10.2"
     ns0:texconverter="pdflatex"
     ns0:pdfconverter="pdf2svg"
     ns0:text="$m$"
     ns0:preamble="C:\\Users\\Gonzalo\\AppData\\Roaming\\inkscape\\extensions\\textext\\default_packages.tex"
     ns0:scale="0.750000000002"
     ns0:alignment="middle center"
     inkscapeversion="0.92.4"
     ns0:jacobian_sqrt="1.0"
     style="stroke:#000000;stroke-opacity:1"
     id="g8591">
    <g
       id="g8589"
       style="stroke:#000000;stroke-opacity:1">
      <g
         style="fill:#000000;fill-opacity:1;stroke:#000000;stroke-opacity:1"
         id="g8587">
        <path
           inkscape:connector-curvature="0"
           style="stroke:#000000;stroke-width:0;stroke-opacity:1"
           d="m 0.875,-0.59375 c -0.03125,0.15625 -0.09375,0.390625 -0.09375,0.4375 0,0.171875 0.140625,0.265625 0.296875,0.265625 0.125,0 0.296875,-0.078125 0.375,-0.28125 0,-0.015625 0.125,-0.484375 0.1875,-0.734375 l 0.21875,-0.890625 C 1.90625,-2.03125 1.96875,-2.25 2.03125,-2.46875 c 0.03125,-0.171875 0.109375,-0.46875 0.125,-0.5 0.140625,-0.3125 0.671875,-1.21875 1.625,-1.21875 0.453125,0 0.53125,0.375 0.53125,0.703125 0,0.25 -0.0625,0.53125 -0.140625,0.828125 L 3.890625,-1.5 3.6875,-0.75 c -0.03125,0.203125 -0.125,0.546875 -0.125,0.59375 0,0.171875 0.140625,0.265625 0.28125,0.265625 0.3125,0 0.375,-0.25 0.453125,-0.5625 0.140625,-0.5625 0.515625,-2.015625 0.59375,-2.40625 0.03125,-0.125 0.5625,-1.328125 1.65625,-1.328125 0.421875,0 0.53125,0.34375 0.53125,0.703125 0,0.5625 -0.421875,1.703125 -0.625,2.234375 -0.078125,0.234375 -0.125,0.34375 -0.125,0.546875 0,0.46875 0.34375,0.8125 0.8125,0.8125 0.9375,0 1.3125,-1.453125 1.3125,-1.53125 0,-0.109375 -0.09375,-0.109375 -0.125,-0.109375 -0.09375,0 -0.09375,0.03125 -0.140625,0.1875 -0.15625,0.53125 -0.46875,1.234375 -1.015625,1.234375 -0.171875,0 -0.25,-0.09375 -0.25,-0.328125 0,-0.25 0.09375,-0.484375 0.1875,-0.703125 0.1875,-0.53125 0.609375,-1.625 0.609375,-2.203125 0,-0.640625 -0.40625,-1.0625 -1.15625,-1.0625 -0.734375,0 -1.25,0.4375 -1.625,0.96875 0,-0.125 -0.03125,-0.46875 -0.3125,-0.703125 -0.25,-0.21875 -0.5625,-0.265625 -0.8125,-0.265625 -0.90625,0 -1.390625,0.640625 -1.5625,0.875 -0.046875,-0.578125 -0.46875,-0.875 -0.921875,-0.875 -0.453125,0 -0.640625,0.390625 -0.734375,0.5625 -0.171875,0.359375 -0.296875,0.9375 -0.296875,0.96875 0,0.109375 0.09375,0.109375 0.109375,0.109375 0.109375,0 0.109375,-0.015625 0.171875,-0.234375 0.171875,-0.703125 0.375,-1.1875 0.734375,-1.1875 0.15625,0 0.296875,0.078125 0.296875,0.453125 0,0.21875 -0.03125,0.328125 -0.15625,0.84375 z m 0,0"
           transform="translate(148.712,134.765)"
           id="path8585" />
      </g>
    </g>
  </g>
</svg>
