<?xml version="1.0" encoding="UTF-8" standalone="no"?>
<svg
   xmlns:dc="http://purl.org/dc/elements/1.1/"
   xmlns:cc="http://creativecommons.org/ns#"
   xmlns:rdf="http://www.w3.org/1999/02/22-rdf-syntax-ns#"
   xmlns:svg="http://www.w3.org/2000/svg"
   xmlns="http://www.w3.org/2000/svg"
   xmlns:sodipodi="http://sodipodi.sourceforge.net/DTD/sodipodi-0.dtd"
   xmlns:inkscape="http://www.inkscape.org/namespaces/inkscape"
   id="circuit-k2x5gtpo"
   viewBox="0 0 365.09076 130.68164"
   width="365.09076"
   height="130.68164"
   data-v-037aa524=""
   version="1.1"
   sodipodi:docname="qc-circuit-entanglement.svg"
   inkscape:version="0.92.4 (5da689c313, 2019-01-14)">
  <metadata
     id="metadata146">
    <rdf:RDF>
      <cc:Work
         rdf:about="">
        <dc:format>image/svg+xml</dc:format>
        <dc:type
           rdf:resource="http://purl.org/dc/dcmitype/StillImage" />
        <dc:title></dc:title>
      </cc:Work>
    </rdf:RDF>
  </metadata>
  <sodipodi:namedview
     pagecolor="#ffffff"
     bordercolor="#666666"
     borderopacity="1"
     objecttolerance="10"
     gridtolerance="10"
     guidetolerance="10"
     inkscape:pageopacity="0"
     inkscape:pageshadow="2"
     inkscape:window-width="1920"
     inkscape:window-height="1001"
     id="namedview144"
     showgrid="false"
     fit-margin-top="0"
     fit-margin-left="0"
     fit-margin-right="0"
     fit-margin-bottom="0"
     inkscape:zoom="2.0572507"
     inkscape:cx="172.49572"
     inkscape:cy="42.68513"
     inkscape:window-x="1911"
     inkscape:window-y="-9"
     inkscape:window-maximized="1"
     inkscape:current-layer="circuit-k2x5gtpo" />
  <defs
     data-v-037aa524=""
     id="defs15">
    <style
       type="text/css"
       data-v-037aa524=""
       id="style2">
        @font-face {
          font-family: 'IBM Plex Mono';
          src: url('https://fonts.googleapis.com/css?family=IBM+Plex+Mono');
        }
      </style>
    <filter
       id="dropshadow"
       width="1.4"
       height="1.4"
       data-v-037aa524="">
      <feGaussianBlur
         in="SourceAlpha"
         stdDeviation="1"
         data-v-037aa524=""
         id="feGaussianBlur4" />
      <feOffset
         result="offsetblur"
         dx="1"
         dy="2"
         data-v-037aa524=""
         id="feOffset6" />
      <feMerge
         data-v-037aa524=""
         id="feMerge12">
        <feMergeNode
           data-v-037aa524=""
           id="feMergeNode8" />
        <feMergeNode
           in="SourceGraphic"
           data-v-037aa524=""
           id="feMergeNode10" />
      </feMerge>
    </filter>
  </defs>
  <g
     data-v-037aa524=""
     id="g45"
     transform="translate(-25.669922,-23.5)">
    <g
       transform="translate(100,40)"
       data-v-037aa524=""
       id="g29">
      <g
         transform="matrix(0.85,0,0,0.85,-34,-13)"
         data-v-037aa524=""
         id="g25">
        <g
           transform="matrix(0.8,0,0,0.8,7,7.5)"
           data-v-037aa524=""
           id="g23">
          <path
             d="m 9.5,17.4304 h 2 c 1.6569,0 3,-1.3431 3,-3 V 6.43042 c 0,-1.65685 -1.3431,-3 -3,-3 h -2 c -1.65685,0 -3,1.34315 -3,3 v 7.99998 c 0,1.6569 1.34315,3 3,3 z M 8.5,6.43042 c 0,-0.55228 0.44772,-1 1,-1 h 2 c 0.5523,0 1,0.44772 1,1 v 7.99998 c 0,0.5523 -0.4477,1 -1,1 h -2 c -0.55228,0 -1,-0.4477 -1,-1 z"
             data-v-037aa524=""
             id="path17"
             inkscape:connector-curvature="0"
             style="clip-rule:evenodd;fill:#202529;fill-rule:evenodd" />
          <path
             d="m 19.3454,20.4304 -1.8454,-0.9 4.6907,-9.1 -4.6907,-9.09998 1.8454,-0.9 5.1546,9.99998 z"
             data-v-037aa524=""
             id="path19"
             inkscape:connector-curvature="0"
             style="fill:#202529" />
          <rect
             x="0.5"
             y="0.43042001"
             width="2"
             height="20"
             data-v-037aa524=""
             id="rect21"
             style="fill:#202529" />
        </g>
      </g>
      <line
         style="fill:none;stroke:#979797;stroke-width:1.5;stroke-linecap:round"
         x1="0"
         y1="0"
         x2="290"
         y2="0"
         data-v-037aa524=""
         id="line27" />
    </g>
    <g
       transform="translate(100,80)"
       data-v-037aa524=""
       id="g43">
      <g
         transform="matrix(0.85,0,0,0.85,-34,-13)"
         data-v-037aa524=""
         id="g39">
        <g
           transform="matrix(0.8,0,0,0.8,7,7.5)"
           data-v-037aa524=""
           id="g37">
          <path
             d="m 9.5,17.4304 h 2 c 1.6569,0 3,-1.3431 3,-3 V 6.43042 c 0,-1.65685 -1.3431,-3 -3,-3 h -2 c -1.65685,0 -3,1.34315 -3,3 v 7.99998 c 0,1.6569 1.34315,3 3,3 z M 8.5,6.43042 c 0,-0.55228 0.44772,-1 1,-1 h 2 c 0.5523,0 1,0.44772 1,1 v 7.99998 c 0,0.5523 -0.4477,1 -1,1 h -2 c -0.55228,0 -1,-0.4477 -1,-1 z"
             data-v-037aa524=""
             id="path31"
             inkscape:connector-curvature="0"
             style="clip-rule:evenodd;fill:#202529;fill-rule:evenodd" />
          <path
             d="m 19.3454,20.4304 -1.8454,-0.9 4.6907,-9.1 -4.6907,-9.09998 1.8454,-0.9 5.1546,9.99998 z"
             data-v-037aa524=""
             id="path33"
             inkscape:connector-curvature="0"
             style="fill:#202529" />
          <rect
             x="0.5"
             y="0.43042001"
             width="2"
             height="20"
             data-v-037aa524=""
             id="rect35"
             style="fill:#202529" />
        </g>
      </g>
      <line
         style="fill:none;stroke:#979797;stroke-width:1.5;stroke-linecap:round"
         x1="0"
         y1="0"
         x2="290"
         y2="0"
         data-v-037aa524=""
         id="line41" />
    </g>
  </g>
  <g
     transform="translate(74.330078,116.5)"
     data-v-037aa524=""
     id="g49">
    <line
       style="fill:none;stroke:#979797;stroke-width:1;stroke-linecap:round"
       x1="0"
       y1="0"
       x2="290"
       y2="0"
       data-v-037aa524=""
       id="line47" />
  </g>
  <g
     style="font-family:'IBM Plex Mono'"
     id="g61"
     data-v-078b64b1=""
     class="svgGate"
     transform="translate(-25.669922,-23.5)">
    <!---->
    <!---->
    <g
       id="g59"
       transform="translate(111,24)">
      <rect
         y="0"
         x="0"
         id="rect51"
         height="32"
         width="32"
         style="fill:#b3b3b3;stroke:#333333" />
      <!---->
      <text
         id="text55"
         y="22"
         x="16"
         dominant-baseline="alphabetical"
         style="font-style:normal;font-weight:normal;font-size:19.5px;fill:#000000">
        <tspan
           style="text-anchor:middle;fill:#000000"
           id="tspan53">H</tspan>
      </text>
      <text
         id="text57"
         y="28"
         x="16"
         style="font-style:normal;font-weight:bold;font-size:8.5px;fill:#002749">
        <!---->
      </text>
      <!---->
    </g>
    <!---->
  </g>
  <g
     style="font-family:'IBM Plex Mono'"
     id="g77"
     data-v-078b64b1=""
     class="svgGate"
     transform="translate(-25.669922,-23.5)">
    <!---->
    <g
       id="g69"
       style="fill:#999999;stroke:#333333">
      <g
         id="g67"
         style="fill:#999999;stroke:#333333">
        <line
           id="line63"
           y2="80"
           x2="177"
           y1="40"
           x1="177"
           style="fill:#999999;stroke:#333333;stroke-width:4" />
        <circle
           id="circle65"
           r="6"
           cy="40"
           cx="177"
           style="fill:#999999;stroke:#333333" />
      </g>
    </g>
    <g
       id="g75"
       transform="translate(161,64)">
      <!---->
      <circle
         style="fill:#999999;stroke:#333333"
         id="circle71"
         r="16"
         cy="16"
         cx="16" />
      <!---->
      <!---->
      <path
         style="fill:#000000"
         inkscape:connector-curvature="0"
         id="path73"
         slot="label"
         d="m 1.1,-1.2 v -9.4 h -2.2 v 9.4 h -8.8 v 2.4 h 8.8 v 9.4 H 1.1 V 1.2 h 8.8 v -2.4 z"
         transform="matrix(0.8,0,0,0.8,16,16)" />
    </g>
    <!---->
  </g>
  <g
     style="font-family:'IBM Plex Mono'"
     id="g101"
     data-v-078b64b1=""
     class="svgGate"
     transform="translate(-25.669922,-23.5)">
    <g
       id="g87">
      <line
         id="line79"
         y2="140"
         x2="227"
         y1="40"
         x1="227"
         style="stroke:#979797;stroke-width:1.5" />
      <path
         style="fill:#979797"
         inkscape:connector-curvature="0"
         id="path81"
         d="M 0,0 H 8 L 4,8 Z"
         transform="translate(223,132)" />
      <text
         id="text85"
         y="154"
         x="227"
         dominant-baseline="alphabetical"
         style="fill:#000000">
        <tspan
           style="text-anchor:middle"
           id="tspan83">0</tspan>
      </text>
    </g>
    <g
       id="g99">
      <!---->
      <!---->
      <g
         id="g97"
         transform="translate(211,24)">
        <rect
           y="0"
           x="0"
           id="rect89"
           height="32"
           width="32"
           style="fill:#333333" />
        <!---->
        <!---->
        <!---->
        <g
           id="g95"
           transform="matrix(0.9,0,0,0.9,3.6,4.5)">
          <path
             style="fill:#f2f4f8"
             inkscape:connector-curvature="0"
             id="path91"
             d="m 28.5,0.43042 h -6 v 2 h 3.38 l -3.38,4 v 2 h 6 v -2 h -3.38 l 3.38,-4 z" />
          <path
             style="fill:#f2f4f8"
             inkscape:connector-curvature="0"
             id="path93"
             d="m 18.5,14.0504 2.08,-3.62 -1.73,-0.99998 -2.18,3.76998 C 12.9909,11.8369 8.87757,12.3582 5.65489,14.5964 2.4322,16.8345 0.507243,20.5068 0.5,24.4304 h 2 c 0.00244,-3.2127 1.54826,-6.2285 4.155,-8.1064 2.60674,-1.8778 5.9569,-2.3888 9.005,-1.3736 l -3.16,5.48 c -0.9054,-9e-4 -1.6985,0.6065 -1.9335,1.4809 -0.235,0.8743 0.1467,1.7975 0.9306,2.2506 0.7838,0.4531 1.7743,0.3231 2.4147,-0.3169 0.6404,-0.6401 0.7709,-1.6305 0.3182,-2.4146 l 3.27,-5.65 c 3.0908,1.7845 4.9963,5.081 5,8.65 h 2 c -0.0044,-4.2828 -2.291,-8.2386 -6,-10.38 z" />
        </g>
      </g>
      <!---->
    </g>
  </g>
  <g
     style="font-family:'IBM Plex Mono'"
     id="g125"
     data-v-078b64b1=""
     class="svgGate"
     transform="translate(-25.669922,-23.5)">
    <g
       id="g111">
      <line
         id="line103"
         y2="140"
         x2="277"
         y1="80"
         x1="277"
         style="stroke:#979797;stroke-width:1.5" />
      <path
         style="fill:#979797"
         inkscape:connector-curvature="0"
         id="path105"
         d="M 0,0 H 8 L 4,8 Z"
         transform="translate(273,132)" />
      <text
         id="text109"
         y="154"
         x="277"
         dominant-baseline="alphabetical"
         style="fill:#000000">
        <tspan
           style="text-anchor:middle"
           id="tspan107">1</tspan>
      </text>
    </g>
    <g
       id="g123">
      <!---->
      <!---->
      <g
         id="g121"
         transform="translate(261,64)">
        <rect
           y="0"
           x="0"
           id="rect113"
           height="32"
           width="32"
           style="fill:#333333" />
        <!---->
        <!---->
        <!---->
        <g
           id="g119"
           transform="matrix(0.9,0,0,0.9,3.6,4.5)">
          <path
             style="fill:#f2f4f8"
             inkscape:connector-curvature="0"
             id="path115"
             d="m 28.5,0.43042 h -6 v 2 h 3.38 l -3.38,4 v 2 h 6 v -2 h -3.38 l 3.38,-4 z" />
          <path
             style="fill:#f2f4f8"
             inkscape:connector-curvature="0"
             id="path117"
             d="m 18.5,14.0504 2.08,-3.62 -1.73,-0.99998 -2.18,3.76998 C 12.9909,11.8369 8.87757,12.3582 5.65489,14.5964 2.4322,16.8345 0.507243,20.5068 0.5,24.4304 h 2 c 0.00244,-3.2127 1.54826,-6.2285 4.155,-8.1064 2.60674,-1.8778 5.9569,-2.3888 9.005,-1.3736 l -3.16,5.48 c -0.9054,-9e-4 -1.6985,0.6065 -1.9335,1.4809 -0.235,0.8743 0.1467,1.7975 0.9306,2.2506 0.7838,0.4531 1.7743,0.3231 2.4147,-0.3169 0.6404,-0.6401 0.7709,-1.6305 0.3182,-2.4146 l 3.27,-5.65 c 3.0908,1.7845 4.9963,5.081 5,8.65 h 2 c -0.0044,-4.2828 -2.291,-8.2386 -6,-10.38 z" />
        </g>
      </g>
      <!---->
    </g>
  </g>
  <g
     id="g135"
     data-v-037aa524=""
     transform="translate(-30.669922,-23.5)">
    <text
       style="color:#565656;font-weight:bold;font-size:14px;font-family:'IBM Plex Mono';text-anchor:end"
       id="text131"
       data-v-037aa524=""
       y="45"
       x="65"
       font-weight="bold"
       font-size="14px"
       class="small">q[0]</text>
    <text
       style="color:#565656;font-weight:bold;font-size:14px;font-family:'IBM Plex Mono';text-anchor:end"
       id="text133"
       data-v-037aa524=""
       y="85"
       x="65"
       font-weight="bold"
       font-size="14px"
       class="small">q[1]</text>
  </g>
  <g
     id="g139"
     data-v-037aa524=""
     transform="translate(-30.669922,-23.5)">
    <text
       style="color:#565656;font-weight:bold;font-size:14px;font-family:'IBM Plex Mono';text-anchor:end"
       id="text137"
       data-v-037aa524=""
       y="145"
       x="65"
       font-weight="bold"
       font-size="14px"
       class="small">c2</text>
  </g>
</svg>
