<?xml version="1.0" encoding="UTF-8" standalone="no"?>
<!-- Created with Inkscape (http://www.inkscape.org/) -->

<svg
   width="345.59497"
   height="263.29785"
   id="svg2"
   sodipodi:version="0.32"
   inkscape:version="1.2.1 (9c6d41e410, 2022-07-14)"
   sodipodi:docname="transmission-fiber.svg"
   version="1.0"
   xmlns:inkscape="http://www.inkscape.org/namespaces/inkscape"
   xmlns:sodipodi="http://sodipodi.sourceforge.net/DTD/sodipodi-0.dtd"
   xmlns="http://www.w3.org/2000/svg"
   xmlns:svg="http://www.w3.org/2000/svg"
   xmlns:rdf="http://www.w3.org/1999/02/22-rdf-syntax-ns#"
   xmlns:cc="http://creativecommons.org/ns#"
   xmlns:dc="http://purl.org/dc/elements/1.1/"
   xmlns:ns1="http://www.iki.fi/pav/software/textext/">
  <defs
     id="defs4">
    <marker
       style="overflow:visible"
       id="Arrow1L"
       refX="4"
       refY="0"
       orient="auto-start-reverse"
       inkscape:stockid="Arrow1L"
       markerWidth="8.75"
       markerHeight="5"
       viewBox="0 0 8.75 5"
       inkscape:isstock="true"
       inkscape:collect="always"
       preserveAspectRatio="xMidYMid">
      <path
         style="fill:context-stroke;fill-rule:evenodd;stroke:none"
         d="M 0,0 5,-5 -12.5,0 5,5 Z"
         id="arrow1L"
         transform="scale(-0.5)" />
    </marker>
    <marker
       style="overflow:visible"
       id="marker1637"
       refX="4"
       refY="0"
       orient="auto-start-reverse"
       inkscape:stockid="Arrow1L"
       markerWidth="8.75"
       markerHeight="5"
       viewBox="0 0 8.75 5"
       inkscape:isstock="true"
       inkscape:collect="always"
       preserveAspectRatio="xMidYMid"
       markerUnits="strokeWidth">
      <path
         style="fill:context-stroke;fill-rule:evenodd;stroke:none"
         d="M 0,0 5,-5 -12.5,0 5,5 Z"
         id="path1635"
         transform="scale(-0.5)" />
    </marker>
    <g
       id="id-35b44754-5c34-4126-87fd-8530ecfac3e1">
      <g
         id="id-7276bedd-fc6c-41fb-90e0-959cd8777fd2" />
      <g
         id="id-ed363e48-4eb8-4b84-8fca-598e9b7dfd04">
        <path
           d="m 4.75,-2.359375 c 0,-1.5625 -0.921875,-2.046875 -1.65625,-2.046875 -1.375,0 -2.6875,1.421875 -2.6875,2.828125 0,0.9375 0.59375,1.6875 1.625,1.6875 0.625,0 1.34375,-0.234375 2.09375,-0.84375 0.125,0.53125 0.453125,0.84375 0.90625,0.84375 0.53125,0 0.84375,-0.546875 0.84375,-0.703125 0,-0.078125 -0.0625,-0.109375 -0.125,-0.109375 -0.0625,0 -0.09375,0.03125 -0.125,0.109375 -0.1875,0.484375 -0.546875,0.484375 -0.5625,0.484375 -0.3125,0 -0.3125,-0.78125 -0.3125,-1.015625 0,-0.203125 0,-0.234375 0.109375,-0.34375 C 5.796875,-2.65625 6,-3.8125 6,-3.8125 6,-3.84375 5.984375,-3.921875 5.875,-3.921875 c -0.09375,0 -0.09375,0.03125 -0.140625,0.21875 -0.1875,0.625 -0.515625,1.375 -0.984375,1.96875 z m -0.65625,1.375 c -0.890625,0.765625 -1.65625,0.875 -2.046875,0.875 -0.59375,0 -0.90625,-0.453125 -0.90625,-1.09375 0,-0.484375 0.265625,-1.5625 0.578125,-2.0625 C 2.1875,-4 2.734375,-4.1875 3.078125,-4.1875 c 0.984375,0 0.984375,1.3125 0.984375,2.078125 0,0.375 0,0.953125 0.03125,1.125 z m 0,0"
           id="id-506363c7-74c5-425c-9411-6a24b7da9d1d" />
      </g>
    </g>
    <g
       id="id-7f7155a7-3865-4eb6-8aea-3944c5db73ea">
      <g
         id="id-2d712176-0ae3-40eb-9925-fad66b6ce5f4" />
      <g
         id="id-b8676e96-9124-4333-b7f2-f845da602ef9">
        <path
           d="m 5.140625,-6.8125 c 0,0 0,-0.109375 -0.125,-0.109375 -0.15625,0 -1.09375,0.09375 -1.265625,0.109375 -0.078125,0.015625 -0.140625,0.0625 -0.140625,0.1875 0,0.125 0.09375,0.125 0.234375,0.125 0.484375,0 0.5,0.0625 0.5,0.171875 L 4.3125,-6.125 3.71875,-3.765625 C 3.53125,-4.140625 3.25,-4.40625 2.796875,-4.40625 c -1.15625,0 -2.390625,1.46875 -2.390625,2.921875 0,0.9375 0.546875,1.59375 1.3125,1.59375 0.203125,0 0.703125,-0.046875 1.296875,-0.75 0.078125,0.421875 0.4375,0.75 0.90625,0.75 0.359375,0 0.578125,-0.234375 0.75,-0.546875 0.15625,-0.359375 0.296875,-0.96875 0.296875,-0.984375 0,-0.109375 -0.09375,-0.109375 -0.125,-0.109375 -0.09375,0 -0.109375,0.046875 -0.140625,0.1875 -0.171875,0.640625 -0.34375,1.234375 -0.75,1.234375 -0.28125,0 -0.296875,-0.265625 -0.296875,-0.453125 0,-0.25 0.015625,-0.3125 0.046875,-0.484375 z m -2.0625,5.625 C 3.015625,-1 3.015625,-0.984375 2.875,-0.8125 2.4375,-0.265625 2.03125,-0.109375 1.75,-0.109375 c -0.5,0 -0.640625,-0.546875 -0.640625,-0.9375 0,-0.5 0.3125,-1.71875 0.546875,-2.1875 0.3125,-0.578125 0.75,-0.953125 1.15625,-0.953125 0.640625,0 0.78125,0.8125 0.78125,0.875 0,0.0625 -0.015625,0.125 -0.03125,0.171875 z m 0,0"
           id="id-f6dcea00-041e-44b6-8293-c0624ceb3504" />
      </g>
    </g>
  </defs>
  <sodipodi:namedview
     id="base"
     pagecolor="#ffffff"
     bordercolor="#666666"
     borderopacity="1.0"
     gridtolerance="10000"
     guidetolerance="10"
     objecttolerance="10"
     inkscape:pageopacity="0.0"
     inkscape:pageshadow="2"
     inkscape:zoom="2.3474033"
     inkscape:cx="221.73438"
     inkscape:cy="177.4301"
     inkscape:document-units="px"
     inkscape:current-layer="layer1"
     inkscape:window-width="1729"
     inkscape:window-height="1231"
     inkscape:window-x="3716"
     inkscape:window-y="537"
     showgrid="false"
     inkscape:window-maximized="0"
     fit-margin-top="0"
     fit-margin-left="0"
     fit-margin-right="0"
     fit-margin-bottom="0"
     inkscape:showpageshadow="2"
     inkscape:pagecheckerboard="0"
     inkscape:deskcolor="#d1d1d1" />
  <metadata
     id="metadata7">
    <rdf:RDF>
      <cc:Work
         rdf:about="">
        <dc:format>image/svg+xml</dc:format>
        <dc:type
           rdf:resource="http://purl.org/dc/dcmitype/StillImage" />
      </cc:Work>
    </rdf:RDF>
  </metadata>
  <g
     inkscape:groupmode="layer"
     id="layer1"
     inkscape:label="todo"
     transform="translate(-0.15957994,-1.3939041)">
    <path
       id="path2819"
       style="display:inline;fill:#333333;fill-opacity:0.392157;stroke:#000000;stroke-width:0.977588"
       transform="matrix(0.64189264,-0.76679452,0.60589366,0.79554564,0,0)"
       d="M -34.531623,247.40205 A 31.524498,49.386288 0 0 1 -42.27327,178.62036 31.524498,49.386288 0 0 1 1.6317957,166.4923" />
    <path
       style="display:inline;fill:#666666;fill-opacity:0.396154;fill-rule:evenodd;stroke:#000000;stroke-width:1px;stroke-linecap:butt;stroke-linejoin:miter;stroke-opacity:1"
       d="m 48.250761,243.41232 c 49.48505,-25.63996 94.061369,-56.18864 139.142989,-86.23203 41.38844,-26.68107 82.51977,-52.93361 121.21064,-75.118705 L 324.02006,41.63826 C 278.8966,67.648935 232.18157,92.068035 185.25679,116.27738 138.68457,138.13136 92.995991,162.63633 48.250761,189.97131 Z"
       id="path2841"
       sodipodi:nodetypes="ccccccc"
       inkscape:connector-curvature="0" />
    <path
       style="display:inline;fill:none;fill-opacity:0.75;fill-rule:evenodd;stroke:#000000;stroke-width:1.9;stroke-linecap:butt;stroke-linejoin:miter;stroke-miterlimit:4;stroke-dasharray:none;stroke-opacity:1"
       d="m 48.422041,216.52053 c 0,0 7.87913,-64.57455 16.78596,-9.42069 8.90684,55.15387 16.44338,-9.42069 16.44338,-9.42069 0,0 8.54706,-63.12619 16.78596,-10.27711 8.330779,53.43838 20.147849,-10.84471 20.147849,-10.84471 0,0 14.0471,-64.75563 21.98834,-12.45009 6.95407,45.80358 22.26708,-13.01769 22.26708,-13.18897 0,-0.17129 19.05172,-59.450055 18.32752,-11.30483 -0.70224,45.71615 17.12854,-9.42069 17.12854,-9.42069 0,0 20.33447,-55.030771 14.73053,-8.56426 -5.25611,43.58245 13.18896,-7.53656 13.18896,-7.53656 0,0 21.58195,-51.214294 11.6474,-7.36526 -10.03526,44.29354 10.79098,-5.65242 10.79098,-5.65242 0,0 24.33094,-53.097013 16.78595,-10.105825 -7.11638,40.549005 17.4711,-10.4484 17.4711,-10.4484 0,0 23.80866,-48.131171 16.44339,-8.73555 -7.36527,39.395605 15.92953,-8.73555 15.92953,-8.73555"
       id="path2907"
       sodipodi:nodetypes="cscscssscscscscsc"
       inkscape:connector-curvature="0" />
    <path
       style="display:inline;fill:none;fill-opacity:0.75;fill-rule:evenodd;stroke:#000000;stroke-width:1;stroke-linecap:butt;stroke-linejoin:miter;stroke-miterlimit:4;stroke-dasharray:4, 4;stroke-dashoffset:0;stroke-opacity:1"
       d="M 39.801251,220.72993 340.80602,47.80453"
       id="path2843"
       inkscape:connector-curvature="0"
       sodipodi:nodetypes="cc" />
    <path
       style="display:inline;fill:#000000;fill-opacity:0.75;fill-rule:evenodd;stroke:#000000;stroke-width:1px;stroke-linecap:butt;stroke-linejoin:miter;stroke-opacity:1"
       d="M 47.706581,248.87845 V 184.81776"
       id="path2923"
       inkscape:connector-curvature="0" />
    <path
       id="path2823"
       style="display:inline;fill:none;stroke:#000000;stroke-width:0.972323"
       transform="matrix(0.64619027,-0.76317634,0.61026336,0.79219861,0,0)"
       d="m 134.09754,309.18339 a 31.362768,49.1077 0 0 1 -25.1576,-33.53758 31.362768,49.1077 0 0 1 7.9834,-50.20172 31.362768,49.1077 0 0 1 32.26404,-11.14958" />
    <path
       id="rect2788"
       style="display:inline;fill:none;stroke:#000000;stroke-width:0.869791"
       transform="matrix(0.8745801,0.48488106,0,1,0,0)"
       d="m 24.021931,158.60887 h 62.692241 v 63.39107 H 24.021931 Z" />
    <path
       id="rect2790"
       style="display:inline;fill:none;stroke:#000000;stroke-width:0.86979"
       transform="matrix(0.8745801,0.48488106,0,1,0,0)"
       d="m 332.21066,-145.04042 h 62.69223 v 63.391071 h -62.69223 z" />
    <path
       style="display:inline;fill:#000000;fill-opacity:0.75;fill-rule:evenodd;stroke:#000000;stroke-width:1px;stroke-linecap:butt;stroke-linejoin:miter;stroke-opacity:1"
       d="M 317.24526,94.365565 V 29.722706"
       id="path2792"
       inkscape:connector-curvature="0" />
    <path
       style="display:inline;fill:none;fill-opacity:0.75;fill-rule:evenodd;stroke:#000000;stroke-width:1px;stroke-linecap:butt;stroke-linejoin:miter;stroke-opacity:1"
       d="M 289.74526,46.865563 345.2946,78.936985"
       id="path2794"
       inkscape:connector-curvature="0" />
    <path
       style="display:inline;fill:#000000;fill-opacity:0.75;fill-rule:evenodd;stroke:#000000;stroke-width:1.132px;stroke-linecap:butt;stroke-linejoin:miter;stroke-opacity:1"
       d="M 310.11069,80.121585 323.22223,44.076743"
       id="path2796"
       inkscape:connector-curvature="0"
       sodipodi:nodetypes="cc" />
    <path
       style="display:inline;fill:#000000;fill-opacity:1;stroke:#000000;stroke-width:0.182831;stroke-miterlimit:4;stroke-dashoffset:0;stroke-opacity:1"
       d="m 324.45805,48.810523 c -0.52055,-4.982868 -2.08999,-4.489256 -4.49869,-3.748112 l 5.0083,-4.534171 z"
       id="path2798"
       sodipodi:nodetypes="cccc"
       inkscape:connector-curvature="0" />
    <path
       style="display:inline;fill:#000000;fill-opacity:1;stroke:#000000;stroke-width:0.182831;stroke-miterlimit:4;stroke-dashoffset:0;stroke-opacity:1"
       d="m 308.79044,75.185622 c 0.52055,4.982868 2.08999,4.489256 4.49869,3.748112 l -5.0083,4.534171 z"
       id="path2801"
       sodipodi:nodetypes="cccc"
       inkscape:connector-curvature="0" />
    <path
       style="display:inline;fill:none;fill-opacity:0.75;fill-rule:evenodd;stroke:#000000;stroke-width:1;stroke-linecap:butt;stroke-linejoin:miter;stroke-miterlimit:4;stroke-dasharray:6, 1;stroke-dashoffset:0;stroke-opacity:1"
       d="m 324.97855,40.527541 8.89586,-22.429062"
       id="path2803"
       inkscape:connector-curvature="0"
       sodipodi:nodetypes="cc" />
    <path
       style="display:inline;fill:none;fill-opacity:0.75;fill-rule:evenodd;stroke:#000000;stroke-width:1;stroke-linecap:butt;stroke-linejoin:miter;stroke-miterlimit:4;stroke-dasharray:6, 2;stroke-dashoffset:0;stroke-opacity:1;marker-start:none"
       d="M 317.06942,30.729979 V 11.284542"
       id="path2805"
       inkscape:connector-curvature="0" />
    <path
       style="display:inline;fill:#999999;fill-opacity:0.461538;stroke:#000000;stroke-width:1;stroke-miterlimit:4;stroke-dashoffset:0;stroke-opacity:1"
       d="m 233.52205,54.762885 c -2.15591,0.08713 -4.25432,0.475282 -6.25,1.1875 -1.0201,0.590702 -140.614919,80.068795 -140.367229,79.480395 20.333409,-13.2501 40.315199,8.00627 50.495169,22.38635 15.87055,22.74594 18.60117,51.892 1.98438,63.49321 L 274.0533,143.51288 c 13.15074,-8.07036 14.61515,-30.73432 3.4375,-53.499995 -10.63753,-21.665635 -28.87737,-35.859924 -43.96875,-35.25 z"
       id="path2821"
       sodipodi:nodetypes="ccccccsc"
       inkscape:connector-curvature="0" />
    <g
       id="g2836"
       transform="matrix(1,0,0,1.178072,3.6396585,-80.471348)"
       style="display:inline;fill:#000000;stroke:#000000">
      <path
         id="path2830"
         d="M 44.319705,271.90001 44.091153,234.3325"
         style="display:inline;fill:#000000;fill-opacity:0.75;fill-rule:evenodd;stroke:#000000;stroke-width:1.132px;stroke-linecap:butt;stroke-linejoin:miter;stroke-opacity:1"
         inkscape:connector-curvature="0" />
      <path
         sodipodi:nodetypes="cccc"
         id="path2832"
         d="m 46.935744,237.80274 c -2.275997,-4.46316 -3.56331,-3.43865 -5.544915,-1.88161 l 3.044913,-6.03078 z"
         style="display:inline;fill:#000000;fill-opacity:1;stroke:#000000;stroke-width:0.182831;stroke-miterlimit:4;stroke-dashoffset:0;stroke-opacity:1"
         inkscape:connector-curvature="0" />
      <path
         sodipodi:nodetypes="cccc"
         id="path2834"
         d="m 41.790034,268.04578 c 2.275997,4.46316 3.56331,3.43865 5.544915,1.88161 l -3.044913,6.03078 z"
         style="display:inline;fill:#000000;fill-opacity:1;stroke:#000000;stroke-width:0.182831;stroke-miterlimit:4;stroke-dashoffset:0;stroke-opacity:1"
         inkscape:connector-curvature="0" />
    </g>
    <path
       style="display:inline;fill:none;fill-opacity:0.75;fill-rule:evenodd;stroke:#000000;stroke-width:1px;stroke-linecap:butt;stroke-linejoin:miter;stroke-opacity:1"
       d="M 150.44766,208.07719 186.075,228.63143"
       id="path2845"
       inkscape:connector-curvature="0" />
    <path
       style="display:inline;fill:none;fill-opacity:0.75;fill-rule:evenodd;stroke:#000000;stroke-width:1px;stroke-linecap:butt;stroke-linejoin:miter;stroke-opacity:1"
       d="m 284.05018,129.28596 35.62734,21.92452"
       id="path2847"
       inkscape:connector-curvature="0" />
    <path
       style="display:inline;fill:none;fill-opacity:0.75;fill-rule:evenodd;stroke:#000000;stroke-width:1px;stroke-linecap:butt;stroke-linejoin:miter;stroke-opacity:1"
       d="m 20.986071,201.26114 55.15387,31.68778"
       id="path2849"
       inkscape:connector-curvature="0" />
    <g
       style="display:inline"
       id="g2855"
       transform="matrix(0.85473,0,0,0.866499,125.56575,71.252225)">
      <path
         inkscape:transform-center-y="-8.7684834"
         inkscape:transform-center-x="-14.389091"
         id="path2857"
         d="M 146.28936,122.85179 207.24288,89.005451"
         style="fill:#000000;fill-opacity:0.75;fill-rule:evenodd;stroke:#000000;stroke-width:2.14834px;stroke-linecap:butt;stroke-linejoin:miter;stroke-opacity:1"
         inkscape:connector-curvature="0" />
      <path
         inkscape:transform-center-y="-20.039673"
         inkscape:transform-center-x="-34.282558"
         sodipodi:nodetypes="cccc"
         id="path2859"
         d="m 204.56309,94.733865 c 4.61542,-7.248221 0.18706,-5.14182 -6.75738,-5.201695 l 15.6551,-5.239037 z"
         style="fill:#000000;fill-opacity:1;stroke:#000000;stroke-width:0.282056;stroke-miterlimit:4;stroke-dashoffset:0;stroke-opacity:1"
         inkscape:connector-curvature="0" />
    </g>
    <g
       style="display:inline"
       id="g2861"
       transform="matrix(-0.822169,0,0,-0.819128,350.10815,290.38663)">
      <path
         inkscape:transform-center-y="-8.7684834"
         inkscape:transform-center-x="-14.389091"
         id="path2863"
         d="M 146.28936,122.85179 207.24288,89.005451"
         style="fill:#000000;fill-opacity:0.75;fill-rule:evenodd;stroke:#000000;stroke-width:2.14834px;stroke-linecap:butt;stroke-linejoin:miter;stroke-opacity:1"
         inkscape:connector-curvature="0" />
      <path
         inkscape:transform-center-y="-20.039673"
         inkscape:transform-center-x="-34.282558"
         sodipodi:nodetypes="cccc"
         id="path2865"
         d="m 204.56309,94.733865 c 4.61542,-7.248221 0.18706,-5.14182 -6.75738,-5.201695 l 15.6551,-5.239037 z"
         style="fill:#000000;fill-opacity:1;stroke:#000000;stroke-width:0.282056;stroke-miterlimit:4;stroke-dashoffset:0;stroke-opacity:1"
         inkscape:connector-curvature="0" />
    </g>
    <path
       id="path2915"
       style="display:inline;fill:#333333;fill-opacity:0.392157;stroke:#000000;stroke-width:0.977588"
       transform="matrix(0.64189264,-0.76679452,0.60589366,0.79554564,0,0)"
       d="m 1.5917261,166.48227 a 31.524498,49.386288 0 0 1 13.3228289,44.75918 31.524498,49.386288 0 0 1 -18.0817096,40.45488 31.524498,49.386288 0 0 1 -31.4045384,-4.3043" />
    <g
       style="display:inline"
       id="g2917"
       transform="matrix(0.546608,0,0,0.537139,-79.518317,177.68273)">
      <path
         inkscape:transform-center-y="-8.7684834"
         inkscape:transform-center-x="-14.389091"
         id="path2919"
         d="M 146.28936,122.85179 207.24288,89.005451"
         style="fill:#000000;fill-opacity:0.75;fill-rule:evenodd;stroke:#000000;stroke-width:2.14834px;stroke-linecap:butt;stroke-linejoin:miter;stroke-opacity:1"
         inkscape:connector-curvature="0" />
      <path
         inkscape:transform-center-y="-39.228632"
         inkscape:transform-center-x="-61.927079"
         sodipodi:nodetypes="cccc"
         id="path2921"
         d="M 202.93509,101.03519 C 208.02992,85.291484 203.6585,89.608478 191.05702,90.346202 L 219.17281,80.292597 Z"
         style="fill:#000000;fill-opacity:1;stroke:#000000;stroke-width:0.534743;stroke-miterlimit:4;stroke-dashoffset:0;stroke-opacity:1"
         inkscape:connector-curvature="0" />
    </g>
    <g
       transform="matrix(2.1345192,0,0,2.1345192,324.8864,1.3944377)"
       ns1:version="1.8.1"
       ns1:texconverter="pdflatex"
       ns1:pdfconverter="inkscape"
       ns1:text="$\\alpha$"
       ns1:preamble="C:\Users\gonza\AppData\Roaming\inkscape\extensions\textext\default_packages.tex"
       ns1:scale="0.75"
       ns1:alignment="middle center"
       ns1:stroke-to-path="0"
       ns1:inkscapeversion="0.92.4"
       ns1:jacobian_sqrt="1.0"
       id="g551"
       style="display:inline">
      <defs
         id="id-f48d8f8e-3a38-4efd-acfa-1554cd992f0a">
        <g
           id="g11383">
          <g
             id="g11377" />
          <g
             id="g11381">
            <path
               d="m 4.75,-2.359375 c 0,-1.5625 -0.921875,-2.046875 -1.65625,-2.046875 -1.375,0 -2.6875,1.421875 -2.6875,2.828125 0,0.9375 0.59375,1.6875 1.625,1.6875 0.625,0 1.34375,-0.234375 2.09375,-0.84375 0.125,0.53125 0.453125,0.84375 0.90625,0.84375 0.53125,0 0.84375,-0.546875 0.84375,-0.703125 0,-0.078125 -0.0625,-0.109375 -0.125,-0.109375 -0.0625,0 -0.09375,0.03125 -0.125,0.109375 -0.1875,0.484375 -0.546875,0.484375 -0.5625,0.484375 -0.3125,0 -0.3125,-0.78125 -0.3125,-1.015625 0,-0.203125 0,-0.234375 0.109375,-0.34375 C 5.796875,-2.65625 6,-3.8125 6,-3.8125 6,-3.84375 5.984375,-3.921875 5.875,-3.921875 c -0.09375,0 -0.09375,0.03125 -0.140625,0.21875 -0.1875,0.625 -0.515625,1.375 -0.984375,1.96875 z m -0.65625,1.375 c -0.890625,0.765625 -1.65625,0.875 -2.046875,0.875 -0.59375,0 -0.90625,-0.453125 -0.90625,-1.09375 0,-0.484375 0.265625,-1.5625 0.578125,-2.0625 C 2.1875,-4 2.734375,-4.1875 3.078125,-4.1875 c 0.984375,0 0.984375,1.3125 0.984375,2.078125 0,0.375 0,0.953125 0.03125,1.125 z m 0,0"
               id="path11379" />
          </g>
        </g>
      </defs>
      <g
         fill="#000000"
         fill-opacity="1"
         id="id-e6962c0e-60c2-42d0-a55a-f89e5c9c9d3e"
         transform="translate(-149.118,-130.359)">
        <g
           transform="translate(148.712,134.765)"
           id="g548">
          <path
             d="m 4.75,-2.359375 c 0,-1.5625 -0.921875,-2.046875 -1.65625,-2.046875 -1.375,0 -2.6875,1.421875 -2.6875,2.828125 0,0.9375 0.59375,1.6875 1.625,1.6875 0.625,0 1.34375,-0.234375 2.09375,-0.84375 0.125,0.53125 0.453125,0.84375 0.90625,0.84375 0.53125,0 0.84375,-0.546875 0.84375,-0.703125 0,-0.078125 -0.0625,-0.109375 -0.125,-0.109375 -0.0625,0 -0.09375,0.03125 -0.125,0.109375 -0.1875,0.484375 -0.546875,0.484375 -0.5625,0.484375 -0.3125,0 -0.3125,-0.78125 -0.3125,-1.015625 0,-0.203125 0,-0.234375 0.109375,-0.34375 C 5.796875,-2.65625 6,-3.8125 6,-3.8125 6,-3.84375 5.984375,-3.921875 5.875,-3.921875 c -0.09375,0 -0.09375,0.03125 -0.140625,0.21875 -0.1875,0.625 -0.515625,1.375 -0.984375,1.96875 z m -0.65625,1.375 c -0.890625,0.765625 -1.65625,0.875 -2.046875,0.875 -0.59375,0 -0.90625,-0.453125 -0.90625,-1.09375 0,-0.484375 0.265625,-1.5625 0.578125,-2.0625 C 2.1875,-4 2.734375,-4.1875 3.078125,-4.1875 c 0.984375,0 0.984375,1.3125 0.984375,2.078125 0,0.375 0,0.953125 0.03125,1.125 z m 0,0"
             id="id-410b5095-ea4b-43f4-8092-b5c7912c8674" />
        </g>
      </g>
    </g>
    <path
       style="display:inline;fill:none;stroke:#000000;stroke-width:0.7;marker-start:url(#Arrow1L);marker-end:url(#marker1637)"
       d="m 318.57544,14.100924 c 7.60007,-0.223231 9.75803,1.718376 13.03609,5.679083"
       id="path807"
       sodipodi:nodetypes="cc" />
    <g
       transform="matrix(2.13452,0,0,2.13452,234.59464,174.58849)"
       ns1:version="1.8.1"
       ns1:texconverter="pdflatex"
       ns1:pdfconverter="inkscape"
       ns1:text="$d$"
       ns1:preamble="C:\Users\gonza\AppData\Roaming\inkscape\extensions\textext\default_packages.tex"
       ns1:scale="0.75"
       ns1:alignment="middle center"
       ns1:stroke-to-path="0"
       ns1:inkscapeversion="0.92.4"
       ns1:jacobian_sqrt="2.13452"
       id="g2764"
       style="display:inline">
      <defs
         id="id-e41a8b46-e9cc-458f-94b0-15bdfd8a2a94">
        <g
           id="g11397">
          <g
             id="g11391" />
          <g
             id="g11395">
            <path
               d="m 5.140625,-6.8125 c 0,0 0,-0.109375 -0.125,-0.109375 -0.15625,0 -1.09375,0.09375 -1.265625,0.109375 -0.078125,0.015625 -0.140625,0.0625 -0.140625,0.1875 0,0.125 0.09375,0.125 0.234375,0.125 0.484375,0 0.5,0.0625 0.5,0.171875 L 4.3125,-6.125 3.71875,-3.765625 C 3.53125,-4.140625 3.25,-4.40625 2.796875,-4.40625 c -1.15625,0 -2.390625,1.46875 -2.390625,2.921875 0,0.9375 0.546875,1.59375 1.3125,1.59375 0.203125,0 0.703125,-0.046875 1.296875,-0.75 0.078125,0.421875 0.4375,0.75 0.90625,0.75 0.359375,0 0.578125,-0.234375 0.75,-0.546875 0.15625,-0.359375 0.296875,-0.96875 0.296875,-0.984375 0,-0.109375 -0.09375,-0.109375 -0.125,-0.109375 -0.09375,0 -0.109375,0.046875 -0.140625,0.1875 -0.171875,0.640625 -0.34375,1.234375 -0.75,1.234375 -0.28125,0 -0.296875,-0.265625 -0.296875,-0.453125 0,-0.25 0.015625,-0.3125 0.046875,-0.484375 z m -2.0625,5.625 C 3.015625,-1 3.015625,-0.984375 2.875,-0.8125 2.4375,-0.265625 2.03125,-0.109375 1.75,-0.109375 c -0.5,0 -0.640625,-0.546875 -0.640625,-0.9375 0,-0.5 0.3125,-1.71875 0.546875,-2.1875 0.3125,-0.578125 0.75,-0.953125 1.15625,-0.953125 0.640625,0 0.78125,0.8125 0.78125,0.875 0,0.0625 -0.015625,0.125 -0.03125,0.171875 z m 0,0"
               id="path11393" />
          </g>
        </g>
      </defs>
      <g
         fill="#000000"
         fill-opacity="1"
         id="id-087aabb1-a96c-49a1-94bc-9ce876e4f7ea"
         transform="translate(-149.118,-127.843)">
        <g
           transform="translate(148.712,134.765)"
           id="g3639">
          <path
             d="m 5.140625,-6.8125 c 0,0 0,-0.109375 -0.125,-0.109375 -0.15625,0 -1.09375,0.09375 -1.265625,0.109375 -0.078125,0.015625 -0.140625,0.0625 -0.140625,0.1875 0,0.125 0.09375,0.125 0.234375,0.125 0.484375,0 0.5,0.0625 0.5,0.171875 L 4.3125,-6.125 3.71875,-3.765625 C 3.53125,-4.140625 3.25,-4.40625 2.796875,-4.40625 c -1.15625,0 -2.390625,1.46875 -2.390625,2.921875 0,0.9375 0.546875,1.59375 1.3125,1.59375 0.203125,0 0.703125,-0.046875 1.296875,-0.75 0.078125,0.421875 0.4375,0.75 0.90625,0.75 0.359375,0 0.578125,-0.234375 0.75,-0.546875 0.15625,-0.359375 0.296875,-0.96875 0.296875,-0.984375 0,-0.109375 -0.09375,-0.109375 -0.125,-0.109375 -0.09375,0 -0.109375,0.046875 -0.140625,0.1875 -0.171875,0.640625 -0.34375,1.234375 -0.75,1.234375 -0.28125,0 -0.296875,-0.265625 -0.296875,-0.453125 0,-0.25 0.015625,-0.3125 0.046875,-0.484375 z m -2.0625,5.625 C 3.015625,-1 3.015625,-0.984375 2.875,-0.8125 2.4375,-0.265625 2.03125,-0.109375 1.75,-0.109375 c -0.5,0 -0.640625,-0.546875 -0.640625,-0.9375 0,-0.5 0.3125,-1.71875 0.546875,-2.1875 0.3125,-0.578125 0.75,-0.953125 1.15625,-0.953125 0.640625,0 0.78125,0.8125 0.78125,0.875 0,0.0625 -0.015625,0.125 -0.03125,0.171875 z m 0,0"
             id="id-2192be9a-979e-463b-8dc2-18aa538ffc48" />
        </g>
      </g>
    </g>
  </g>
</svg>
